<svg width="16" height="16" viewBox="0 0 16 16" fill="none" xmlns="http://www.w3.org/2000/svg">
<path d="M3.83961 7.99997C3.83961 7.65479 4.11943 7.37497 4.46461 7.37497H7.37512V4.46443C7.37512 4.11925 7.65494 3.83943 8.00012 3.83943C8.3453 3.83943 8.62512 4.11925 8.62512 4.46443V7.37497H11.5357C11.8809 7.37497 12.1607 7.65479 12.1607 7.99997C12.1607 8.34515 11.8809 8.62497 11.5357 8.62497H8.62512V11.5355C8.62512 11.8807 8.3453 12.1605 8.00012 12.1605C7.65494 12.1605 7.37512 11.8807 7.37512 11.5355V8.62497H4.46461C4.11943 8.62497 3.83961 8.34515 3.83961 7.99997Z" fill="black"/>
<path fill-rule="evenodd" clip-rule="evenodd" d="M4.0974 1.1406C6.67036 0.853035 9.32986 0.853035 11.9028 1.1406C13.4248 1.31071 14.6539 2.50957 14.8329 4.04038C15.1406 6.67114 15.1406 9.3288 14.8329 11.9596C14.6539 13.4904 13.4248 14.6892 11.9028 14.8593C9.32985 15.1469 6.67036 15.1469 4.0974 14.8593C2.57541 14.6892 1.34633 13.4904 1.16729 11.9596C0.8596 9.3288 0.8596 6.67114 1.16729 4.04038C1.34633 2.50957 2.57542 1.31071 4.0974 1.1406ZM11.764 2.38287C9.28329 2.10561 6.71693 2.10561 4.23624 2.38287C3.28255 2.48946 2.51917 3.24216 2.40883 4.18558C2.11242 6.71987 2.11242 9.28007 2.40883 11.8144C2.51917 12.7578 3.28255 13.5105 4.23624 13.6171C6.71693 13.8943 9.28329 13.8943 11.764 13.6171C12.7177 13.5105 13.481 12.7578 13.5914 11.8144C13.8878 9.28007 13.8878 6.71988 13.5914 4.18558C13.481 3.24216 12.7177 2.48946 11.764 2.38287Z" fill="black"/>
</svg>
