<svg width="12" height="8" viewBox="0 0 12 8" fill="none" xmlns="http://www.w3.org/2000/svg">
<path d="M5.19202 1.10869C5.4361 0.864612 5.4361 0.468884 5.19202 0.224806C4.94795 -0.0192714 4.55222 -0.0192714 4.30814 0.224806L0.974806 3.55814C0.852767 3.68018 0.791748 3.84013 0.791748 4.00008C0.791748 4.08483 0.808614 4.16563 0.839172 4.23932C0.869672 4.31304 0.914883 4.3821 0.974806 4.44202L4.30814 7.77536C4.55222 8.01944 4.94795 8.01944 5.19202 7.77536C5.4361 7.53128 5.4361 7.13555 5.19202 6.89147L2.92563 4.62508H11.0001C11.3453 4.62508 11.6251 4.34526 11.6251 4.00008C11.6251 3.6549 11.3453 3.37508 11.0001 3.37508H2.92563L5.19202 1.10869Z" fill="#000000"/>
</svg>
