<svg width="17" height="16" viewBox="0 0 17 16" fill="none" xmlns="http://www.w3.org/2000/svg">
<path fill-rule="evenodd" clip-rule="evenodd" d="M14.9577 2.37484H3.44725L2.46377 0.612001C2.35338 0.414132 2.14455 0.291504 1.91797 0.291504H0.667969C0.322791 0.291504 0.0429688 0.571326 0.0429688 0.916504C0.0429688 1.26168 0.322791 1.5415 0.667969 1.5415H1.55097L2.52155 3.28121L4.75994 8.2339L4.76224 8.23896L4.95939 8.67518L2.71202 11.0724C2.55043 11.2447 2.49985 11.4935 2.58129 11.7153C2.66273 11.9371 2.86228 12.094 3.09702 12.1208L5.14546 12.3549C7.70769 12.6477 10.2949 12.6477 12.8572 12.3549L14.9056 12.1208C15.2486 12.0816 15.4948 11.7718 15.4556 11.4289C15.4164 11.0859 15.1066 10.8397 14.7637 10.8789L12.7152 11.113C10.2473 11.395 7.75531 11.395 5.2874 11.113L4.47446 11.0201L6.12394 9.26064C6.1399 9.24362 6.15472 9.22594 6.1684 9.2077L6.79575 9.28933C7.67485 9.40372 8.56348 9.42614 9.44724 9.35625C11.5085 9.19322 13.4188 8.21241 14.7525 6.6324L15.2343 6.06171C15.2504 6.04255 15.2654 6.02243 15.2792 6.00146L16.177 4.63325C16.8134 3.66344 16.1177 2.37484 14.9577 2.37484ZM6.21486 7.95321C6.07702 7.93527 5.95816 7.84771 5.90012 7.72154L5.89901 7.7191L4.04859 3.62484H14.9577C15.1235 3.62484 15.2228 3.80892 15.1319 3.94747L14.2548 5.2842L13.7973 5.8261C12.679 7.15099 11.0771 7.97344 9.34868 8.11014C8.55153 8.17318 7.74999 8.15296 6.95704 8.04978L6.21486 7.95321Z" fill="black"/>
<path d="M4.41797 13.4165C3.72761 13.4165 3.16797 13.9761 3.16797 14.6665C3.16797 15.3569 3.72761 15.9165 4.41797 15.9165C5.10833 15.9165 5.66797 15.3569 5.66797 14.6665C5.66797 13.9761 5.10833 13.4165 4.41797 13.4165Z" fill="black"/>
<path d="M12.3346 14.6665C12.3346 13.9761 12.8943 13.4165 13.5846 13.4165C14.275 13.4165 14.8346 13.9761 14.8346 14.6665C14.8346 15.3569 14.275 15.9165 13.5846 15.9165C12.8943 15.9165 12.3346 15.3569 12.3346 14.6665Z" fill="black"/>
</svg>
