<svg width="23" height="22" viewBox="0 0 23 22" fill="none" xmlns="http://www.w3.org/2000/svg">
<path d="M5.35387 2.57436C3.92333 2.73424 2.77827 3.8633 2.61276 5.27844C2.16814 9.07987 2.16814 12.9202 2.61276 16.7216C2.77827 18.1367 3.92333 19.2658 5.35387 19.4257C9.07491 19.8416 12.9244 19.8416 16.6455 19.4257C18.076 19.2658 19.2211 18.1367 19.3866 16.7216C19.7061 13.9902 19.796 11.2387 19.6564 8.49594C19.6528 8.42511 19.6792 8.35603 19.7294 8.30588L21.0278 7.00741C21.1781 6.85711 21.4349 6.95109 21.4509 7.16304C21.6959 10.4192 21.6286 13.693 21.2489 16.9394C20.9803 19.2356 19.1367 21.0339 16.8537 21.2891C12.9943 21.7204 9.00506 21.7204 5.14561 21.2891C2.86263 21.0339 1.01901 19.2356 0.750451 16.9394C0.288912 12.9933 0.288912 9.00678 0.750451 5.06062C1.01901 2.76442 2.86264 0.966119 5.14561 0.710963C9.00505 0.279614 12.9943 0.279614 16.8537 0.710963C17.6578 0.80083 18.4074 1.08212 19.0528 1.50916C19.1798 1.59319 19.1924 1.77174 19.0847 1.87942L18.0811 2.88303C17.999 2.96512 17.8717 2.97893 17.7694 2.9241C17.4276 2.74098 17.0478 2.61933 16.6455 2.57436C12.9244 2.15848 9.07491 2.15848 5.35387 2.57436Z" fill="#FFA630"/>
<path d="M22.2876 3.53794C22.6537 3.17182 22.6537 2.57823 22.2876 2.21211C21.9215 1.846 21.3279 1.846 20.9617 2.21211L10.3747 12.7992L7.28757 9.71211C6.92145 9.346 6.32786 9.346 5.96174 9.71211C5.59563 10.0782 5.59563 10.6718 5.96174 11.0379L9.71174 14.7879C10.0779 15.1541 10.6715 15.1541 11.0376 14.7879L22.2876 3.53794Z" fill="#FFA630"/>
</svg>
