<svg width="14" height="10" viewBox="0 0 14 10" fill="none" xmlns="http://www.w3.org/2000/svg">
<path fill-rule="evenodd" clip-rule="evenodd" d="M0.5 5C0.5 2.51472 2.51472 0.5 5 0.5H10.3333C12.0822 0.5 13.5 1.91777 13.5 3.66667C13.5 5.41557 12.0822 6.83333 10.3333 6.83333H4.90476C3.89224 6.83333 3.07143 6.01252 3.07143 5C3.07143 3.98748 3.89224 3.16667 4.90476 3.16667H10.1429C10.419 3.16667 10.6429 3.39052 10.6429 3.66667C10.6429 3.94281 10.419 4.16667 10.1429 4.16667H4.90476C4.44452 4.16667 4.07143 4.53976 4.07143 5C4.07143 5.46024 4.44452 5.83333 4.90476 5.83333H10.3333C11.53 5.83333 12.5 4.86328 12.5 3.66667C12.5 2.47005 11.53 1.5 10.3333 1.5H5C3.067 1.5 1.5 3.067 1.5 5C1.5 6.933 3.067 8.5 5 8.5H10.1429C10.419 8.5 10.6429 8.72386 10.6429 9C10.6429 9.27614 10.419 9.5 10.1429 9.5H5C2.51472 9.5 0.5 7.48528 0.5 5Z" fill="black"/>
</svg>
