<svg width="46" height="31" viewBox="0 0 46 31" fill="none" xmlns="http://www.w3.org/2000/svg">
<path fill-rule="evenodd" clip-rule="evenodd" d="M29.3136 12.8119C29.9238 13.4221 29.9238 14.4114 29.3136 15.0216L22.0219 22.3133C21.4117 22.9235 20.4224 22.9235 19.8122 22.3133L15.6455 18.1466C15.0353 17.5364 15.0353 16.5471 15.6455 15.9369C16.2557 15.3267 17.245 15.3267 17.8552 15.9369L20.917 18.9987L27.1039 12.8119C27.7141 12.2017 28.7034 12.2017 29.3136 12.8119Z" fill="#10BB87"/>
<path fill-rule="evenodd" clip-rule="evenodd" d="M24.9418 3.93408C21.712 3.93408 18.9182 5.81394 17.6006 8.54618C17.2464 9.28078 16.3867 9.61935 15.6266 9.3236C14.6042 8.92578 13.4908 8.70675 12.3225 8.70675C7.28814 8.70675 3.20703 12.7879 3.20703 17.8222C3.20703 22.8565 7.28815 26.9376 12.3225 26.9376H36.5905C40.0164 26.9376 42.7937 24.1603 42.7937 20.7343C42.7937 17.3084 40.0164 14.5311 36.5905 14.5311C36.033 14.5311 35.495 14.6042 34.9845 14.7406C34.4841 14.8742 33.95 14.7512 33.5584 14.4121C33.1669 14.073 32.9688 13.5619 33.0297 13.0475C33.0672 12.7304 33.0865 12.4072 33.0865 12.0788C33.0865 7.58059 29.44 3.93408 24.9418 3.93408ZM15.4587 5.98765C17.4624 2.87453 20.9597 0.809082 24.9418 0.809082C30.9429 0.809082 35.8484 5.4996 36.1923 11.4144C36.3244 11.4089 36.4571 11.4061 36.5905 11.4061C41.7423 11.4061 45.9187 15.5825 45.9187 20.7343C45.9187 25.8862 41.7423 30.0626 36.5905 30.0626H12.3225C5.56225 30.0626 0.0820312 24.5824 0.0820312 17.8222C0.0820312 11.062 5.56225 5.58175 12.3225 5.58175C13.4051 5.58175 14.4566 5.72267 15.4587 5.98765Z" fill="#10BB87"/>
</svg>
