<svg width="14" height="16" viewBox="0 0 14 16" fill="none" xmlns="http://www.w3.org/2000/svg">
<path fill-rule="evenodd" clip-rule="evenodd" d="M5.94839 0.708252C5.30372 0.708252 4.76595 1.20094 4.70965 1.84316C4.59195 3.18589 4.56216 4.53462 4.62038 5.8807C4.5501 5.8854 4.47984 5.89031 4.40958 5.89543L3.16833 5.98592C2.37496 6.04375 1.93145 6.92839 2.35977 7.5987C3.27325 9.0283 4.45029 10.2711 5.82816 11.2609L6.32544 11.6181C6.72863 11.9077 7.27167 11.9077 7.67485 11.6181L8.17214 11.2609C9.55 10.2711 10.727 9.0283 11.6405 7.59871C12.0688 6.92839 11.6253 6.04375 10.832 5.98592L9.59071 5.89543C9.52046 5.89031 9.45019 5.8854 9.37991 5.8807C9.43813 4.53461 9.40834 3.18589 9.29064 1.84315C9.23435 1.20094 8.69658 0.708252 8.0519 0.708252H5.94839ZM5.90139 6.42886C5.80663 4.93951 5.82433 3.44506 5.95436 1.95825H8.04594C8.17597 3.44506 8.19367 4.9395 8.0989 6.42886C8.08828 6.59583 8.14505 6.76009 8.2565 6.88488C8.36795 7.00966 8.52478 7.08455 8.69189 7.09279C8.96134 7.10606 9.23068 7.12251 9.49983 7.14213L10.4013 7.20784C9.60168 8.38559 8.60045 9.41414 7.44286 10.2457L7.00015 10.5637L6.55744 10.2457C5.39985 9.41414 4.39861 8.38559 3.599 7.20784L4.50046 7.14213C4.76962 7.12251 5.03895 7.10606 5.3084 7.09279C5.47551 7.08455 5.63234 7.00966 5.74379 6.88488C5.85525 6.76009 5.91201 6.59583 5.90139 6.42886Z" fill="#10BB87"/>
<path d="M1.79175 12.1666C1.79175 11.8214 1.51193 11.5416 1.16675 11.5416C0.82157 11.5416 0.541748 11.8214 0.541748 12.1666V13.8333C0.541748 14.6387 1.19467 15.2916 2.00008 15.2916H12.0001C12.8055 15.2916 13.4584 14.6387 13.4584 13.8333V12.1666C13.4584 11.8214 13.1786 11.5416 12.8334 11.5416C12.4882 11.5416 12.2084 11.8214 12.2084 12.1666V13.8333C12.2084 13.9483 12.1151 14.0416 12.0001 14.0416H2.00008C1.88502 14.0416 1.79175 13.9483 1.79175 13.8333V12.1666Z" fill="#10BB87"/>
</svg>
