<svg width="10" height="18" viewBox="0 0 10 18" fill="none" xmlns="http://www.w3.org/2000/svg">
<path fill-rule="evenodd" clip-rule="evenodd" d="M3.73844 2.15641C4.55891 1.33594 5.67171 0.875 6.83203 0.875H9.08203C9.42721 0.875 9.70703 1.15482 9.70703 1.5V4.5C9.70703 4.84518 9.42721 5.125 9.08203 5.125H6.83203C6.79888 5.125 6.76708 5.13817 6.74364 5.16161C6.7202 5.18505 6.70703 5.21685 6.70703 5.25V6.875H9.08203C9.27449 6.875 9.45622 6.96367 9.57466 7.11537C9.6931 7.26706 9.73505 7.46487 9.68837 7.65158L8.93837 10.6516C8.86881 10.9298 8.61882 11.125 8.33203 11.125H6.70703V16.5C6.70703 16.8452 6.42721 17.125 6.08203 17.125H3.08203C2.73685 17.125 2.45703 16.8452 2.45703 16.5V11.125H0.832031C0.486853 11.125 0.207031 10.8452 0.207031 10.5V7.5C0.207031 7.15482 0.486853 6.875 0.832031 6.875H2.45703V5.25C2.45703 4.08968 2.91797 2.97688 3.73844 2.15641ZM6.83203 2.125C6.00323 2.125 5.20837 2.45424 4.62232 3.04029C4.03627 3.62634 3.70703 4.4212 3.70703 5.25V7.5C3.70703 7.84518 3.42721 8.125 3.08203 8.125H1.45703V9.875H3.08203C3.42721 9.875 3.70703 10.1548 3.70703 10.5V15.875H5.45703V10.5C5.45703 10.1548 5.73685 9.875 6.08203 9.875H7.84405L8.28155 8.125H6.08203C5.73685 8.125 5.45703 7.84518 5.45703 7.5V5.25C5.45703 4.88533 5.6019 4.53559 5.85976 4.27773C6.11762 4.01987 6.46736 3.875 6.83203 3.875H8.45703V2.125H6.83203Z" fill="#487B6C"/>
</svg>
