<svg width="16" height="16" viewBox="0 0 16 16" fill="none" xmlns="http://www.w3.org/2000/svg">
<path d="M11.3345 3.83329C11.3345 3.37305 11.7076 2.99996 12.1679 2.99996C12.6281 2.99996 13.0012 3.37305 13.0012 3.83329C13.0012 4.29353 12.6281 4.66662 12.1679 4.66662C11.7076 4.66662 11.3345 4.29353 11.3345 3.83329Z" fill="#487B6C"/>
<path fill-rule="evenodd" clip-rule="evenodd" d="M8.00121 4.04162C5.81508 4.04162 4.04288 5.81383 4.04288 7.99996C4.04288 10.1861 5.81508 11.9583 8.00121 11.9583C10.1873 11.9583 11.9595 10.1861 11.9595 7.99996C11.9595 5.81383 10.1873 4.04162 8.00121 4.04162ZM5.29288 7.99996C5.29288 6.50419 6.50544 5.29162 8.00121 5.29162C9.49698 5.29162 10.7095 6.50419 10.7095 7.99996C10.7095 9.49573 9.49698 10.7083 8.00121 10.7083C6.50544 10.7083 5.29288 9.49573 5.29288 7.99996Z" fill="#487B6C"/>
<path fill-rule="evenodd" clip-rule="evenodd" d="M12.3831 0.360803C9.49428 0.0379355 6.50816 0.0379355 3.61935 0.360803C1.94264 0.5482 0.589026 1.86904 0.391899 3.55448C0.0464504 6.50807 0.0464504 9.49185 0.391899 12.4454C0.589026 14.1309 1.94264 15.4517 3.61935 15.6391C6.50817 15.962 9.49428 15.962 12.3831 15.6391C14.0598 15.4517 15.4134 14.1309 15.6105 12.4454C15.956 9.49185 15.956 6.50806 15.6105 3.55448C15.4134 1.86904 14.0598 0.5482 12.3831 0.360803ZM3.75819 1.60307C6.55473 1.29051 9.44771 1.29051 12.2442 1.60307C13.3527 1.72695 14.2406 2.60163 14.369 3.69969C14.7032 6.5568 14.7032 9.44311 14.369 12.3002C14.2406 13.3983 13.3527 14.273 12.2442 14.3968C9.44771 14.7094 6.55473 14.7094 3.75819 14.3968C2.64977 14.273 1.76186 13.3983 1.63344 12.3002C1.29927 9.44311 1.29927 6.5568 1.63344 3.69969C1.76186 2.60163 2.64977 1.72695 3.75819 1.60307Z" fill="#487B6C"/>
</svg>
