<svg width="42" height="42" viewBox="0 0 42 42" fill="none" xmlns="http://www.w3.org/2000/svg">
<path fill-rule="evenodd" clip-rule="evenodd" d="M41.3726 7.07637C41.7861 7.70263 41.7172 8.5537 41.1658 9.10503L21.3906 28.8803C21.1879 29.083 20.9348 29.2281 20.6574 29.3005L12.4215 31.4518C12.1528 31.5219 11.876 31.5205 11.6158 31.4543C11.3392 31.3839 11.0816 31.2403 10.8728 31.0316C10.4678 30.6265 10.3079 30.0371 10.4527 29.4829L12.6039 21.247C12.6673 21.0043 12.7863 20.7646 12.9508 20.5766L32.7994 0.73856C32.9731 0.564816 33.1824 0.43478 33.4102 0.355551C33.5791 0.296807 33.7581 0.265991 33.9403 0.265991C34.3682 0.265991 34.7786 0.435979 35.0811 0.73856L41.1658 6.82326C41.2446 6.90203 41.3135 6.9869 41.3726 7.07637ZM37.7432 7.96415L33.9403 4.16121L15.6154 22.4861L14.2709 27.6335L19.4184 26.289L37.7432 7.96415Z" fill="#10BB87"/>
<path d="M37.4713 32.3421C38.0594 27.3132 38.2466 22.2493 38.0327 17.1982C38.0225 16.9563 38.1134 16.721 38.2846 16.5498L40.4 14.4344C40.6601 14.1743 41.1045 14.3395 41.1288 14.7065C41.5266 20.7078 41.3758 26.7363 40.6763 32.7169C40.1674 37.0679 36.673 40.4777 32.3446 40.9615C24.887 41.795 17.1783 41.795 9.72079 40.9615C5.39232 40.4777 1.89794 37.0679 1.38905 32.7169C0.497269 25.0922 0.497269 17.3895 1.38905 9.76476C1.89794 5.41376 5.39232 2.00398 9.72079 1.52021C15.3781 0.88792 21.1799 0.735287 26.907 1.06231C27.2761 1.08338 27.4444 1.53002 27.183 1.79144L25.0477 3.92669C24.8784 4.09599 24.6463 4.1869 24.407 4.17883C19.6174 4.01729 14.7952 4.20006 10.0792 4.72714C7.2178 5.04695 4.92565 7.30495 4.59411 10.1396C3.73145 17.5153 3.73145 24.9664 4.59411 32.3421C4.92565 35.1767 7.21779 37.4347 10.0792 37.7545C17.2985 38.5614 24.7668 38.5614 31.9862 37.7545C34.8476 37.4347 37.1397 35.1767 37.4713 32.3421Z" fill="#10BB87"/>
</svg>
