<svg width="23" height="23" viewBox="0 0 23 23" fill="none" xmlns="http://www.w3.org/2000/svg">
<path fill-rule="evenodd" clip-rule="evenodd" d="M13.9817 15.3071C10.6689 17.9604 5.81961 17.7515 2.74863 14.6806C-0.546418 11.3855 -0.546418 6.04319 2.74863 2.74814C6.04368 -0.546907 11.386 -0.546906 14.6811 2.74814C17.752 5.81912 17.9609 10.6684 15.3076 13.9812L21.7521 20.4258C22.1182 20.7919 22.1182 21.3855 21.7521 21.7516C21.386 22.1177 20.7924 22.1177 20.4263 21.7516L13.9817 15.3071ZM4.07446 13.3547C1.51164 10.7919 1.51164 6.63678 4.07446 4.07397C6.63727 1.51115 10.7924 1.51115 13.3552 4.07397C15.9162 6.6349 15.918 10.7858 13.3609 13.3491C13.359 13.351 13.3571 13.3528 13.3552 13.3547C13.3533 13.3566 13.3515 13.3585 13.3496 13.3604C10.7863 15.9176 6.63539 15.9157 4.07446 13.3547Z" fill="white"/>
</svg>
