<svg width="12" height="11" viewBox="0 0 12 11" fill="none" xmlns="http://www.w3.org/2000/svg">
<path d="M3.33464 4.33336C2.8744 4.33336 2.5013 4.70646 2.5013 5.16669C2.5013 5.62693 2.8744 6.00003 3.33464 6.00003C3.79487 6.00003 4.16797 5.62693 4.16797 5.16669C4.16797 4.70646 3.79487 4.33336 3.33464 4.33336Z" fill="black"/>
<path d="M6.0013 4.33336C5.54106 4.33336 5.16797 4.70646 5.16797 5.16669C5.16797 5.62693 5.54106 6.00003 6.0013 6.00003C6.46154 6.00003 6.83464 5.62693 6.83464 5.16669C6.83464 4.70646 6.46154 4.33336 6.0013 4.33336Z" fill="black"/>
<path d="M7.83464 5.16669C7.83464 4.70646 8.20773 4.33336 8.66797 4.33336C9.12821 4.33336 9.5013 4.70646 9.5013 5.16669C9.5013 5.62693 9.12821 6.00003 8.66797 6.00003C8.20773 6.00003 7.83464 5.62693 7.83464 5.16669Z" fill="black"/>
<path fill-rule="evenodd" clip-rule="evenodd" d="M8.73512 1.06189C6.93899 0.908713 5.13348 0.899824 3.33593 1.0353L3.20711 1.04501C1.49291 1.17421 0.167969 2.60277 0.167969 4.32183V10C0.167969 10.1759 0.260413 10.3389 0.411401 10.4292C0.562389 10.5194 0.749706 10.5237 0.904661 10.4405L3.51185 9.03931C3.63313 8.97414 3.76866 8.94003 3.90634 8.94003H9.89061C10.6453 8.94003 11.2921 8.40043 11.4274 7.65793C11.7016 6.15311 11.7233 4.61313 11.4915 3.10119L11.4232 2.65564C11.2989 1.84447 10.6353 1.22393 9.81761 1.1542L8.73512 1.06189ZM3.41109 2.03248C5.15532 1.90101 6.90729 1.90964 8.65015 2.05827L9.73264 2.15058C10.0902 2.18108 10.3804 2.45244 10.4348 2.80715L10.5031 3.2527C10.718 4.65489 10.6979 6.08309 10.4436 7.47868C10.3949 7.74586 10.1622 7.94003 9.89061 7.94003H3.90634C3.60345 7.94003 3.30528 8.01507 3.03847 8.15846L1.16797 9.16369V4.32183C1.16797 3.1259 2.08971 2.13207 3.28227 2.04219L3.41109 2.03248Z" fill="black"/>
</svg>
