<svg width="19" height="18" viewBox="0 0 19 18" fill="none" xmlns="http://www.w3.org/2000/svg">
<path fill-rule="evenodd" clip-rule="evenodd" d="M2.84047 6.85635C4.62779 10.7482 7.80827 13.8424 11.762 15.519L11.7745 15.5243L12.5383 15.8647C13.511 16.2981 14.6542 15.9903 15.2778 15.1272L16.5522 13.3635C16.63 13.2558 16.6099 13.106 16.5065 13.0225L14.2818 11.2277C14.1712 11.1385 14.0085 11.1593 13.9239 11.2734L13.0581 12.4418C12.8478 12.7256 12.468 12.8242 12.1463 12.6786C9.18987 11.3406 6.81416 8.96491 5.47622 6.00851C5.33061 5.68674 5.42921 5.30699 5.71296 5.09671L6.88134 4.23085C6.9955 4.14625 7.01628 3.98362 6.92706 3.87302L5.13202 1.64798C5.04859 1.54456 4.89884 1.52448 4.79111 1.60225L3.01782 2.88241C2.14903 3.5096 1.84307 4.66244 2.28654 5.63789L2.83988 6.85505C2.84008 6.85549 2.84027 6.85592 2.84047 6.85635ZM11.1701 16.8973C6.8741 15.0737 3.41874 11.7107 1.4767 7.48094L1.47553 7.4784L0.921024 6.25868C0.181924 4.63293 0.691852 2.71152 2.13983 1.66621L3.91313 0.38605C4.66725 -0.158356 5.71548 -0.0177515 6.29947 0.706142L8.09451 2.93119C8.71907 3.70536 8.5736 4.84375 7.77444 5.43599L7.10494 5.93215C8.23585 8.12654 10.0282 9.91892 12.2226 11.0498L12.7188 10.3803C13.311 9.58117 14.4494 9.4357 15.2236 10.0603L17.4483 11.855C18.1724 12.4392 18.3129 13.4879 17.768 14.242L16.4936 16.0057C15.4543 17.4442 13.5489 17.9572 11.9279 17.2349L11.1701 16.8973Z" fill="black"/>
</svg>
