<svg width="45" height="44" viewBox="0 0 45 44" fill="none" xmlns="http://www.w3.org/2000/svg">
<path fill-rule="evenodd" clip-rule="evenodd" d="M41.7982 17.4512C44.7739 19.7537 44.7739 24.246 41.7982 26.5485C32.8056 33.5067 22.764 38.9911 12.0494 42.7966L10.0919 43.4918C6.34712 44.8218 2.39159 42.2881 1.88462 38.4225C0.468146 27.6218 0.468146 16.3779 1.88462 5.57722C2.39159 1.71157 6.34713 -0.822108 10.0919 0.507913L12.0494 1.20312C22.764 5.00856 32.8056 10.493 41.7982 17.4512ZM39.0444 22.9895C39.6918 22.4885 39.6918 21.5111 39.0444 21.0102C30.4289 14.3439 20.8085 9.08944 10.5433 5.44361L8.58588 4.7484C7.61103 4.40217 6.49072 5.06204 6.34642 6.16237C4.98088 16.5746 4.98088 27.4251 6.34641 37.8373C6.49072 38.9376 7.61103 39.5975 8.58588 39.2513L10.5433 38.5561C20.8085 34.9102 30.4289 29.6558 39.0444 22.9895Z" fill="white"/>
<path d="M39.0444 21.0102C39.6918 21.5111 39.6918 22.4885 39.0444 22.9895C30.4289 29.6558 20.8085 34.9102 10.5433 38.5561L8.58588 39.2513C7.61103 39.5975 6.49072 38.9376 6.34641 37.8373C4.98088 27.4251 4.98088 16.5746 6.34642 6.16237C6.49072 5.06204 7.61103 4.40217 8.58588 4.7484L10.5433 5.44361C20.8085 9.08944 30.4289 14.3439 39.0444 21.0102Z" fill="white"/>
</svg>
