<svg width="14" height="15" viewBox="0 0 14 15" fill="none" xmlns="http://www.w3.org/2000/svg">
<path fill-rule="evenodd" clip-rule="evenodd" d="M3.45964 4.25016C3.45964 2.29415 5.04529 0.708496 7.0013 0.708496C8.95731 0.708496 10.543 2.29415 10.543 4.25016C10.543 6.20617 8.95731 7.79183 7.0013 7.79183C5.04529 7.79183 3.45964 6.20617 3.45964 4.25016ZM7.0013 1.9585C5.73565 1.9585 4.70964 2.98451 4.70964 4.25016C4.70964 5.51581 5.73565 6.54183 7.0013 6.54183C8.26696 6.54183 9.29297 5.51581 9.29297 4.25016C9.29297 2.98451 8.26696 1.9585 7.0013 1.9585Z" fill="black"/>
<path fill-rule="evenodd" clip-rule="evenodd" d="M3.66797 10.2918C2.63244 10.2918 1.79297 11.1313 1.79297 12.1668V13.1571C1.79297 13.1721 1.8039 13.185 1.81878 13.1874C5.25107 13.7478 8.75153 13.7478 12.1838 13.1874C12.1987 13.185 12.2096 13.1721 12.2096 13.1571V12.1668C12.2096 11.1313 11.3702 10.2918 10.3346 10.2918H10.0506C10.0286 10.2918 10.0068 10.2953 9.98591 10.3021L9.26465 10.5376C7.79396 11.0179 6.20864 11.0179 4.73796 10.5376L4.01669 10.3021C3.99582 10.2953 3.97399 10.2918 3.95203 10.2918H3.66797ZM0.542969 12.1668C0.542969 10.4409 1.94208 9.04183 3.66797 9.04183H3.95203C4.10577 9.04183 4.25855 9.06614 4.4047 9.11386L5.12596 9.34938C6.34453 9.74728 7.65808 9.74728 8.87665 9.34938L9.59791 9.11386C9.74406 9.06614 9.89684 9.04183 10.0506 9.04183H10.3346C12.0605 9.04183 13.4596 10.4409 13.4596 12.1668V13.1571C13.4596 13.7848 13.0047 14.32 12.3852 14.4211C8.81955 15.0032 5.18305 15.0032 1.61736 14.4211C0.997872 14.32 0.542969 13.7848 0.542969 13.1571V12.1668Z" fill="black"/>
</svg>
