<svg width="12" height="15" viewBox="0 0 12 15" fill="none" xmlns="http://www.w3.org/2000/svg">
<path fill-rule="evenodd" clip-rule="evenodd" d="M0.34829 5.90457C0.584508 3.03883 2.97928 0.833336 5.85474 0.833336H6.1427C9.01816 0.833336 11.4129 3.03883 11.6491 5.90457C11.776 7.444 11.3005 8.9726 10.3227 10.1684L7.12737 14.0762C6.54403 14.7896 5.4534 14.7896 4.87006 14.0762L1.67469 10.1684C0.696918 8.9726 0.221397 7.444 0.34829 5.90457ZM5.85474 1.83334C3.49971 1.83334 1.53837 3.63965 1.34491 5.98672C1.2393 7.26795 1.63506 8.54016 2.44884 9.53538L5.64421 13.4432C5.82743 13.6673 6.17 13.6673 6.35322 13.4432L9.54859 9.53538C10.3624 8.54016 10.7581 7.26795 10.6525 5.98672C10.4591 3.63965 8.49772 1.83334 6.1427 1.83334H5.85474Z" fill="black"/>
<path d="M6.66538 10.6667C6.66538 11.0349 6.3669 11.3333 5.99871 11.3333C5.63052 11.3333 5.33205 11.0349 5.33205 10.6667C5.33205 10.2985 5.63052 10 5.99871 10C6.3669 10 6.66538 10.2985 6.66538 10.6667Z" fill="black"/>
<path fill-rule="evenodd" clip-rule="evenodd" d="M5.99871 5.16667C5.36757 5.16667 4.83205 5.69695 4.83205 6.38095C4.83205 6.6571 4.60819 6.88095 4.33205 6.88095C4.05591 6.88095 3.83205 6.6571 3.83205 6.38095C3.83205 5.17141 4.78891 4.16667 5.99871 4.16667C7.20852 4.16667 8.16538 5.17141 8.16538 6.38095C8.16538 7.33494 7.57323 8.15657 6.73074 8.46555C6.64776 8.49598 6.58027 8.54254 6.53953 8.58789C6.50141 8.63033 6.49871 8.65624 6.49871 8.66667C6.49871 8.94281 6.27486 9.16667 5.99871 9.16667C5.72257 9.16667 5.49871 8.94281 5.49871 8.66667C5.49871 8.05093 5.99435 7.67049 6.38642 7.5267C6.83408 7.36252 7.16538 6.91648 7.16538 6.38095C7.16538 5.69695 6.62986 5.16667 5.99871 5.16667Z" fill="black"/>
</svg>
