<svg width="12" height="13" viewBox="0 0 12 13" fill="none" xmlns="http://www.w3.org/2000/svg">
<path fill-rule="evenodd" clip-rule="evenodd" d="M11.3899 10.2882C11.6865 7.4371 11.6865 4.56288 11.3899 1.71175C11.2841 0.695048 10.1118 0.180038 9.29147 0.789851L6.55571 2.82346C5.72208 3.44313 4.71099 3.77776 3.67226 3.77776H1.11947C0.659229 3.77776 0.286133 4.15086 0.286133 4.6111V7.38887C0.286133 7.84911 0.659228 8.22221 1.11947 8.22221H1.53565L0.97208 10.3255C0.909279 10.5599 1.02382 10.8055 1.24373 10.908L3.69783 12.0524C3.83178 12.1149 3.9865 12.1149 4.12045 12.0524C4.2544 11.99 4.35385 11.8715 4.3921 11.7287L5.2339 8.58708C5.24284 8.55371 5.24818 8.52022 5.25017 8.48703C5.71516 8.64763 6.15585 8.87928 6.55571 9.17652L9.29147 11.2101C10.1118 11.8199 11.2841 11.3049 11.3899 10.2882ZM10.3952 1.81523C10.6847 4.59756 10.6847 7.40242 10.3952 10.1847C10.3697 10.4305 10.0863 10.555 9.88804 10.4076L7.15229 8.37396C6.14617 7.62607 4.92589 7.22221 3.67226 7.22221L1.28613 7.22221L1.28613 4.77776H3.67226C4.9259 4.77776 6.14617 4.3739 7.15228 3.62601L9.88804 1.59241C10.0863 1.44502 10.3697 1.56949 10.3952 1.81523ZM4.29077 8.26194C4.0865 8.23558 3.87993 8.22221 3.67226 8.22221H2.57093L2.04659 10.1791L3.5804 10.8943L4.26797 8.32826C4.27412 8.30532 4.28176 8.28319 4.29077 8.26194Z" fill="black"/>
</svg>
