<svg width="20" height="20" viewBox="0 0 20 20" fill="none" xmlns="http://www.w3.org/2000/svg">
<path fill-rule="evenodd" clip-rule="evenodd" d="M4.82307 11.6832C4.85955 11.6955 4.89637 11.7042 4.93315 11.7095C4.97326 11.8038 5.02509 11.9257 5.08555 12.0683C5.23312 12.4164 5.43194 12.887 5.63717 13.3781C6.05571 14.3795 6.47789 15.4118 6.57113 15.7073C6.68655 16.0725 6.80856 16.3209 6.94176 16.4904C7.01063 16.578 7.09028 16.6546 7.18348 16.7126C7.2304 16.7418 7.27996 16.7657 7.33169 16.7835C7.33397 16.7843 7.33625 16.7851 7.33852 16.7858C7.6052 16.8865 7.84834 16.8446 8.00056 16.7933C8.08201 16.7659 8.14791 16.7327 8.19462 16.7059C8.21843 16.6922 8.23855 16.6794 8.2546 16.6686L8.25839 16.666L10.6136 15.1973L13.334 17.283C13.3742 17.3138 13.4179 17.3396 13.4643 17.3598C13.7911 17.5024 14.1076 17.5522 14.4053 17.5115C14.7025 17.4709 14.9385 17.3461 15.1141 17.2055C15.2862 17.0679 15.4028 16.9138 15.4754 16.7992C15.5125 16.7408 15.5403 16.689 15.5599 16.6494C15.5698 16.6295 15.5777 16.6123 15.5839 16.5986L15.5917 16.5804L15.5947 16.5733L15.5959 16.5702L15.5965 16.5688L15.597 16.5675C15.6113 16.5318 15.6223 16.4948 15.6298 16.457L18.1133 3.93578C18.1212 3.89573 18.1252 3.85501 18.1252 3.81418C18.1252 3.44751 17.9871 3.09884 17.6622 2.88726C17.3845 2.70643 17.0752 2.69864 16.8798 2.71348C16.6689 2.72949 16.4741 2.78154 16.3434 2.82314C16.2754 2.84479 16.2184 2.86567 16.1773 2.88161C16.1566 2.88962 16.1397 2.89649 16.1271 2.90173L16.1176 2.90572L2.1895 8.3695L2.1877 8.37015C2.17882 8.37338 2.16742 8.37763 2.15388 8.38291C2.12691 8.39341 2.09078 8.4082 2.04857 8.42733C1.96624 8.46464 1.85076 8.52295 1.73225 8.6041C1.54293 8.73375 1.10752 9.08884 1.18084 9.67492C1.23933 10.1425 1.55965 10.4296 1.75481 10.5677C1.86197 10.6435 1.96377 10.6978 2.03791 10.7331C2.07231 10.7494 2.14372 10.7785 2.17471 10.791L2.18253 10.7942L4.82307 11.6832ZM16.605 4.05672L16.6031 4.05756C16.5962 4.06058 16.5892 4.06346 16.5821 4.06623L2.63712 9.53665C2.62984 9.5395 2.62251 9.54222 2.61512 9.5448L2.60736 9.54775C2.59844 9.55122 2.58342 9.55731 2.56457 9.56586C2.55388 9.5707 2.54272 9.57599 2.53135 9.58166C2.54698 9.59047 2.56193 9.59811 2.57522 9.60444C2.58798 9.61051 2.59771 9.61466 2.60304 9.61685L5.2219 10.4985C5.26983 10.5146 5.31452 10.536 5.35553 10.5618L14.0028 5.49973L14.0109 5.49494C14.0172 5.49122 14.0255 5.48644 14.0354 5.48083C14.0551 5.46971 14.0821 5.45489 14.1143 5.43852C14.1743 5.40798 14.2703 5.36264 14.3785 5.32921C14.4538 5.30593 14.6759 5.24036 14.916 5.31736C15.0641 5.36489 15.2176 5.46706 15.3173 5.64015C15.3669 5.72614 15.3933 5.81252 15.4061 5.8916C15.4401 6.01616 15.4347 6.13917 15.4081 6.24536C15.3508 6.47412 15.1901 6.65256 15.0438 6.78904C14.9186 6.90605 13.2974 8.46926 11.6981 10.0124C10.9006 10.7819 10.1112 11.5439 9.52113 12.1134L9.13359 12.4876L14.0269 16.2391C14.1391 16.2793 14.2054 16.2772 14.2361 16.273C14.2727 16.268 14.3026 16.254 14.3332 16.2295C14.3674 16.2021 14.3973 16.1652 14.4197 16.13L14.4206 16.1285L16.8293 3.98434C16.7935 3.99294 16.7574 4.00317 16.7226 4.01426C16.6831 4.02682 16.6506 4.03878 16.629 4.04714C16.6183 4.05128 16.6106 4.05442 16.6065 4.05615L16.605 4.05672ZM9.55398 14.385L8.57774 13.6365L8.34119 15.1413L9.55398 14.385ZM7.68217 12.1513L8.65299 11.2141C9.24306 10.6445 10.0325 9.88249 10.8302 9.11286L11.6406 8.331L6.20723 11.5117L6.23638 11.5804C6.38447 11.9296 6.58418 12.4024 6.7905 12.8961C6.94477 13.2652 7.10609 13.6539 7.25303 14.0137L7.48889 12.5134C7.51163 12.3687 7.5823 12.2435 7.68217 12.1513Z" fill="#D87B00"/>
</svg>
