<svg width="38" height="38" viewBox="0 0 38 38" fill="none" xmlns="http://www.w3.org/2000/svg">
<path d="M8.29997 8.3384C11.0365 5.59249 14.818 3.896 18.9987 3.896C27.3405 3.896 34.1029 10.6584 34.1029 19.0002C34.1029 27.342 27.3405 34.1043 18.9987 34.1043C10.6569 34.1043 3.89453 27.342 3.89453 19.0002C3.89453 18.1372 3.19498 17.4377 2.33203 17.4377C1.46909 17.4377 0.769531 18.1372 0.769531 19.0002C0.769531 29.0679 8.93101 37.2293 18.9987 37.2293C29.0664 37.2293 37.2279 29.0679 37.2279 19.0002C37.2279 8.93247 29.0664 0.770996 18.9987 0.770996C13.9539 0.770996 9.38531 2.82229 6.08647 6.1325C6.03345 6.1857 5.98506 6.24176 5.94129 6.30019L3.32136 3.68026C3.03556 3.39446 2.61022 3.29978 2.23018 3.43738C1.85014 3.57497 1.58399 3.91999 1.5474 4.32252L0.810831 12.4248C0.782842 12.7327 0.893051 13.0371 1.11165 13.2557C1.33025 13.4743 1.63465 13.5845 1.94253 13.5565L10.0448 12.8199C10.4473 12.7833 10.7923 12.5172 10.9299 12.1371C11.0675 11.7571 10.9729 11.3318 10.6871 11.046L8.12848 8.48738C8.18831 8.44257 8.24565 8.39291 8.29997 8.3384Z" fill="#10BB87"/>
<path d="M20.5612 8.5835C20.5612 7.72055 19.8616 7.021 18.9987 7.021C18.1358 7.021 17.4362 7.72055 17.4362 8.5835V19.0002C17.4362 19.5389 17.7137 20.0396 18.1706 20.3252L24.4206 24.2314C25.1524 24.6888 26.1163 24.4663 26.5737 23.7345C27.0311 23.0028 26.8086 22.0388 26.0768 21.5814L20.5612 18.1342V8.5835Z" fill="#10BB87"/>
</svg>
