<svg width="38" height="36" viewBox="0 0 38 36" fill="none" xmlns="http://www.w3.org/2000/svg">
<path fill-rule="evenodd" clip-rule="evenodd" d="M29.9135 0.0200195H31.4987C34.6628 0.0200195 37.2279 2.58505 37.2279 5.74919V9.91585C37.2279 11.5912 36.0979 13.0026 34.5585 13.4295C34.8586 17.2349 34.6848 27.2924 34.0393 31.0592C33.6539 33.3085 31.8271 35.0316 29.5591 35.2851L27.654 35.498C21.9017 36.1409 16.0957 36.1409 10.3435 35.498L8.4383 35.2851C6.17034 35.0316 4.34354 33.3085 3.95811 31.0592C3.31263 27.2924 3.13878 17.2349 3.43892 13.4295C1.89953 13.0026 0.769531 11.5912 0.769531 9.91585V5.74919C0.769531 2.58505 3.33457 0.0200195 6.4987 0.0200195H8.08392H13.7904H24.207H29.9135ZM3.89453 5.74919C3.89453 4.31094 5.06046 3.14502 6.4987 3.14502H17.4362H20.5612H31.4987C32.9369 3.14502 34.1029 4.31094 34.1029 5.74919V9.91585C34.1029 10.2035 33.8697 10.4367 33.582 10.4367H20.5612H17.4362H4.41536C4.12772 10.4367 3.89453 10.2035 3.89453 9.91585V5.74919ZM20.5612 13.5617H31.4341C31.7263 17.1463 31.5673 26.9827 30.9592 30.5314C30.8089 31.4086 30.0965 32.0806 29.212 32.1795L27.3069 32.3924C25.0645 32.643 22.8136 32.7918 20.5612 32.8389V13.5617ZM17.4362 13.5617V32.8389C15.1837 32.7918 12.9329 32.643 10.6906 32.3924L8.7854 32.1795C7.90094 32.0806 7.18852 31.4086 7.03821 30.5314C6.43011 26.9827 6.27106 17.1463 6.56335 13.5617H17.4362Z" fill="#10BB87"/>
</svg>
