<svg width="14" height="18" viewBox="0 0 14 18" fill="none" xmlns="http://www.w3.org/2000/svg">
<path d="M5.33342 0.875C4.98824 0.875 4.70842 1.15482 4.70842 1.5V2.125H1.16675C0.82157 2.125 0.541748 2.40482 0.541748 2.75C0.541748 3.09518 0.82157 3.375 1.16675 3.375H12.8334C13.1786 3.375 13.4584 3.09518 13.4584 2.75C13.4584 2.40482 13.1786 2.125 12.8334 2.125H9.29175V1.5C9.29175 1.15482 9.01193 0.875 8.66675 0.875H5.33342Z" fill="#10BB87"/>
<path d="M5.33342 7.875C5.67859 7.875 5.95842 8.15482 5.95842 8.5L5.95841 14.3333C5.95841 14.6785 5.67859 14.9583 5.33341 14.9583C4.98824 14.9583 4.70841 14.6785 4.70841 14.3333L4.70842 8.5C4.70842 8.15482 4.98824 7.875 5.33342 7.875Z" fill="#10BB87"/>
<path d="M9.29175 8.5C9.29175 8.15482 9.01193 7.875 8.66675 7.875C8.32157 7.875 8.04175 8.15482 8.04175 8.5V14.3333C8.04175 14.6785 8.32157 14.9583 8.66675 14.9583C9.01193 14.9583 9.29175 14.6785 9.29175 14.3333V8.5Z" fill="#10BB87"/>
<path fill-rule="evenodd" clip-rule="evenodd" d="M1.99294 5.59765C2.0281 5.28113 2.29564 5.04167 2.61411 5.04167H11.386C11.7045 5.04167 11.9721 5.28113 12.0072 5.59765L12.174 7.09877C12.4764 9.81987 12.4764 12.5661 12.174 15.2872L12.1576 15.435C12.0376 16.5151 11.2005 17.3764 10.1242 17.5271C8.05155 17.8172 5.94861 17.8172 3.87598 17.5271C2.7997 17.3764 1.96258 16.5151 1.84256 15.435L1.82614 15.2872C1.5238 12.5661 1.5238 9.81987 1.82614 7.09877L1.99294 5.59765ZM3.17351 6.29167L3.0685 7.23681C2.77635 9.86617 2.77635 12.5198 3.0685 15.1492L3.08492 15.2969C3.14184 15.8092 3.53885 16.2177 4.04929 16.2891C6.00694 16.5632 7.99322 16.5632 9.95087 16.2891C10.4613 16.2177 10.8583 15.8092 10.9152 15.2969L10.9317 15.1492C11.2238 12.5198 11.2238 9.86617 10.9317 7.23681L10.8266 6.29167H3.17351Z" fill="#10BB87"/>
</svg>
