<svg width="26" height="24" viewBox="0 0 26 24" fill="none" xmlns="http://www.w3.org/2000/svg">
<path d="M14.2496 8.25018C14.2496 8.94054 13.69 9.50018 12.9996 9.50018C12.3093 9.50018 11.7496 8.94054 11.7496 8.25018C11.7496 7.55983 12.3093 7.00018 12.9996 7.00018C13.69 7.00018 14.2496 7.55983 14.2496 8.25018Z" fill="#FFA630"/>
<path d="M12.9996 11.6877C13.5174 11.6877 13.9371 12.1074 13.9371 12.6252V18.8752C13.9371 19.3929 13.5174 19.8127 12.9996 19.8127C12.4819 19.8127 12.0621 19.3929 12.0621 18.8752V12.6252C12.0621 12.1074 12.4819 11.6877 12.9996 11.6877Z" fill="#FFA630"/>
<path fill-rule="evenodd" clip-rule="evenodd" d="M15.8376 1.99098C14.4726 -0.00610257 11.5266 -0.00611062 10.1617 1.99097L9.62176 2.78091C6.23921 7.72992 3.33301 12.9882 0.942095 18.4853L0.829327 18.7446C-0.0132419 20.6818 1.25971 22.8814 3.35914 23.1161C9.76618 23.8321 16.2331 23.8321 22.6401 23.1161C24.7395 22.8814 26.0125 20.6818 25.1699 18.7446L25.0571 18.4853C22.6662 12.9882 19.76 7.72993 16.3775 2.78091L15.8376 1.99098ZM11.7096 3.04899C12.3301 2.14122 13.6692 2.14122 14.2896 3.04899L14.8295 3.83892C18.1453 8.6902 20.9941 13.8446 23.3377 19.2331L23.4505 19.4924C23.7898 20.2724 23.2772 21.1582 22.4318 21.2527C16.1632 21.9533 9.83603 21.9533 3.56741 21.2527C2.72203 21.1582 2.20946 20.2724 2.54873 19.4924L2.6615 19.2331C5.00519 13.8446 7.854 8.69019 11.1697 3.83892L11.7096 3.04899Z" fill="#FFA630"/>
</svg>
