<svg width="20" height="20" viewBox="0 0 20 20" fill="none" xmlns="http://www.w3.org/2000/svg">
<path d="M7.40502 5.97471C7.55749 5.9788 7.72652 5.98704 7.88734 6.34403C7.99399 6.58168 8.17364 7.01918 8.31998 7.37557C8.43385 7.65289 8.52756 7.8811 8.55101 7.92781C8.6046 8.03447 8.63758 8.15755 8.5675 8.30113C8.55924 8.31807 8.55144 8.33427 8.54392 8.34986C8.48771 8.46653 8.4477 8.54955 8.35317 8.65812C8.3143 8.70273 8.27381 8.75166 8.23347 8.80041C8.16251 8.88615 8.09202 8.97133 8.0316 9.03152C7.92443 9.13811 7.81309 9.25309 7.93675 9.46642C8.06048 9.67976 8.49332 10.3814 9.13229 10.9476C9.81923 11.5592 10.4166 11.8169 10.7185 11.9472C10.7772 11.9725 10.8246 11.993 10.8595 12.0103C11.0739 12.117 11.2017 12.1006 11.3253 11.957C11.4491 11.8133 11.8612 11.3333 12.0056 11.12C12.1457 10.9066 12.29 10.9395 12.4879 11.0133C12.6857 11.0871 13.741 11.6041 13.9554 11.7108C13.9977 11.7319 14.0374 11.7509 14.0741 11.7685C14.2233 11.84 14.3246 11.8886 14.3676 11.9611C14.4212 12.0513 14.4212 12.4781 14.244 12.9786C14.0626 13.4792 13.1886 13.9593 12.7929 13.9962C12.7554 13.9997 12.7181 14.0042 12.6798 14.0089C12.3171 14.0527 11.8567 14.1084 10.2164 13.4628C8.19526 12.668 6.86108 10.696 6.59134 10.2973C6.57004 10.2658 6.55538 10.2442 6.54754 10.2337L6.54298 10.2275C6.42025 10.0633 5.66946 9.05873 5.66946 8.02221C5.66946 7.03052 6.15798 6.51422 6.38081 6.27873C6.39493 6.2638 6.40798 6.25001 6.41978 6.23729C6.61762 6.02396 6.84851 5.97063 6.99277 5.97063C7.1371 5.97063 7.28136 5.97063 7.40502 5.97471Z" fill="#D87B00"/>
<path fill-rule="evenodd" clip-rule="evenodd" d="M1.82021 17.776C1.75203 18.0235 1.97744 18.2519 2.22581 18.1871L6.06526 17.1842C7.27722 17.8407 8.64173 18.1894 10.031 18.1894H10.0351C14.6068 18.1894 18.3334 14.4844 18.3334 9.93005C18.3334 7.72263 17.4718 5.64645 15.9053 4.08726C14.3389 2.52814 12.257 1.6665 10.035 1.6665C5.46346 1.6665 1.73682 5.37155 1.73682 9.92597C1.7363 11.3748 2.11873 12.7983 2.84572 14.0536L1.82021 17.776ZM4.05082 14.3856C4.13984 14.0625 4.09537 13.7171 3.9274 13.4271C3.31061 12.3621 2.98638 11.1544 2.98682 9.92597C2.98682 6.06782 6.14787 2.9165 10.035 2.9165C11.9266 2.9165 13.6914 3.64732 15.0235 4.97322C16.3541 6.29764 17.0834 8.05493 17.0834 9.93005C17.0834 13.7881 13.9224 16.9394 10.0351 16.9394H10.031C8.85057 16.9394 7.69058 16.643 6.66061 16.0851C6.38184 15.9341 6.05611 15.8947 5.74936 15.9748L3.44736 16.5761L4.05082 14.3856Z" fill="#D87B00"/>
</svg>
