<svg width="12" height="12" viewBox="0 0 12 12" fill="none" xmlns="http://www.w3.org/2000/svg">
<path fill-rule="evenodd" clip-rule="evenodd" d="M8.09063 0.312951C7.99687 0.219182 7.86969 0.166504 7.73708 0.166504C7.60447 0.166504 7.4773 0.219182 7.38353 0.312951L1.25527 6.44121C1.19245 6.50403 1.1475 6.58245 1.12505 6.6684L0.458386 9.22069C0.413526 9.39243 0.463086 9.57509 0.588602 9.7006C0.714119 9.82612 0.896773 9.87568 1.06852 9.83082L3.6208 9.16415C3.70676 9.1417 3.78518 9.09675 3.84799 9.03394L9.97625 2.90568C10.1715 2.71041 10.1715 2.39383 9.97625 2.19857L8.09063 0.312951ZM2.05831 7.05239L7.73708 1.37361L8.91559 2.55212L3.23682 8.2309L1.64164 8.64756L2.05831 7.05239Z" fill="black"/>
<path d="M0.666016 10.8332C0.389873 10.8332 0.166016 11.057 0.166016 11.3332C0.166016 11.6093 0.389873 11.8332 0.666016 11.8332H10.666C10.9422 11.8332 11.166 11.6093 11.166 11.3332C11.166 11.057 10.9422 10.8332 10.666 10.8332H0.666016Z" fill="black"/>
</svg>
