<svg width="18" height="14" viewBox="0 0 18 14" fill="none" xmlns="http://www.w3.org/2000/svg">
<path fill-rule="evenodd" clip-rule="evenodd" d="M7.65516 3.96405C7.46208 3.8482 7.2216 3.84517 7.02566 3.95611C6.82972 4.06705 6.7086 4.27482 6.7086 4.49999V9.49999C6.7086 9.72516 6.82972 9.93292 7.02566 10.0439C7.2216 10.1548 7.46208 10.1518 7.65516 10.0359L11.8218 7.53592C12.0101 7.42297 12.1253 7.21952 12.1253 6.99999C12.1253 6.78045 12.0101 6.57701 11.8218 6.46405L7.65516 3.96405ZM10.2855 6.99999L7.9586 8.39612V5.60385L10.2855 6.99999Z" fill="#487B6C"/>
<path fill-rule="evenodd" clip-rule="evenodd" d="M13.1925 0.867719C10.402 0.6494 7.59863 0.6494 4.80808 0.867719L2.94083 1.0138C1.80536 1.10264 0.876457 1.95364 0.688759 3.07701C0.254789 5.67432 0.254789 8.32565 0.688759 10.923C0.876457 12.0463 1.80536 12.8973 2.94083 12.9862L4.80808 13.1323C7.59862 13.3506 10.402 13.3506 13.1925 13.1323L15.0597 12.9862C16.1952 12.8973 17.1241 12.0463 17.3118 10.923C17.7458 8.32565 17.7458 5.67432 17.3118 3.07701C17.1241 1.95364 16.1952 1.10264 15.0597 1.0138L13.1925 0.867719ZM4.90558 2.11391C7.63123 1.90067 10.3694 1.90067 13.095 2.11391L14.9622 2.26C15.5253 2.30404 15.9858 2.726 16.0789 3.28301C16.4901 5.74394 16.4901 8.25603 16.0789 10.717C15.9858 11.274 15.5253 11.6959 14.9622 11.74L13.095 11.8861C10.3694 12.0993 7.63122 12.0993 4.90558 11.8861L3.03833 11.74C2.47532 11.6959 2.01474 11.274 1.92167 10.717C1.51049 8.25603 1.51049 5.74394 1.92167 3.28301C2.01474 2.726 2.47532 2.30404 3.03833 2.26L4.90558 2.11391Z" fill="#487B6C"/>
</svg>
