<svg width="18" height="18" viewBox="0 0 18 18" fill="none" xmlns="http://www.w3.org/2000/svg">
<path d="M7.19983 3.95007C7.61404 3.95007 7.94983 4.28586 7.94983 4.70007V6.45007H9.69983C10.114 6.45007 10.4498 6.78586 10.4498 7.20007C10.4498 7.61429 10.114 7.95007 9.69983 7.95007H7.94983V9.70007C7.94983 10.1143 7.61404 10.4501 7.19983 10.4501C6.78562 10.4501 6.44983 10.1143 6.44983 9.70007V7.95007H4.69983C4.28562 7.95007 3.94983 7.61429 3.94983 7.20007C3.94983 6.78586 4.28562 6.45007 4.69983 6.45007H6.44983V4.70007C6.44983 4.28586 6.78562 3.95007 7.19983 3.95007Z" fill="white"/>
<path fill-rule="evenodd" clip-rule="evenodd" d="M2.39842 11.9446C4.8552 14.4014 8.73463 14.5685 11.3849 12.4458L16.5405 17.6014C16.8334 17.8943 17.3083 17.8943 17.6012 17.6014C17.8941 17.3085 17.8941 16.8337 17.6012 16.5408L12.4456 11.3851C14.5682 8.73487 14.4011 4.85544 11.9444 2.39866C9.30832 -0.237379 5.03445 -0.237379 2.39842 2.39866C-0.237623 5.0347 -0.237623 9.30856 2.39842 11.9446ZM3.45908 3.45932C1.40882 5.50957 1.40882 8.83369 3.45908 10.8839C5.50783 12.9327 8.82857 12.9342 10.8792 10.8884L10.8837 10.8839L10.8882 10.8794C12.9339 8.82881 12.9324 5.50807 10.8837 3.45932C8.83344 1.40907 5.50933 1.40907 3.45908 3.45932Z" fill="white"/>
</svg>
