<svg width="16" height="16" fill="none" xmlns="http://www.w3.org/2000/svg"><path d="M3.84 8c0-.345.28-.625.625-.625h2.91v-2.91a.625.625 0 111.25 0v2.91h2.91a.625.625 0 110 1.25h-2.91v2.91a.625.625 0 11-1.25 0v-2.91h-2.91A.625.625 0 013.84 8z" fill="#000"/><path fill-rule="evenodd" clip-rule="evenodd" d="M4.097 1.14a35.418 35.418 0 017.806 0 3.321 3.321 0 012.93 2.9 34.058 34.058 0 010 7.92 3.321 3.321 0 01-2.93 2.9 35.414 35.414 0 01-7.806 0 3.321 3.321 0 01-2.93-2.9 34.086 34.086 0 010-7.92 3.322 3.322 0 012.93-2.9zm7.667 1.243a34.168 34.168 0 00-7.528 0A2.072 2.072 0 002.41 4.186a32.835 32.835 0 000 7.628 2.07 2.07 0 001.827 1.803c2.48.277 5.047.277 7.528 0a2.072 2.072 0 001.827-1.803 32.837 32.837 0 000-7.628 2.072 2.072 0 00-1.827-1.803z" fill="#000"/></svg>