<svg width="17" height="16" fill="none" xmlns="http://www.w3.org/2000/svg"><path fill-rule="evenodd" clip-rule="evenodd" d="M14.958 2.375H3.448L2.463.612a.625.625 0 00-.546-.32H.668a.625.625 0 100 1.25h.883l.97 1.74L4.76 8.233l.002.005.197.436-2.247 2.397a.625.625 0 00.385 1.049l2.048.234a33.94 33.94 0 007.712 0l2.049-.234a.625.625 0 10-.142-1.242l-2.049.234c-2.468.282-4.96.282-7.428 0l-.813-.093 1.65-1.76a.63.63 0 00.044-.052l.628.081a12.7 12.7 0 002.651.067 7.741 7.741 0 005.306-2.724l.481-.57a.644.644 0 00.045-.06l.898-1.369c.636-.97-.06-2.258-1.22-2.258zM6.215 7.953a.404.404 0 01-.315-.231v-.003L4.05 3.625h10.909c.165 0 .265.184.174.322l-.877 1.337-.458.542A6.491 6.491 0 019.35 8.11c-.797.063-1.599.043-2.392-.06l-.742-.097z" fill="#000"/><path d="M4.418 13.416a1.25 1.25 0 100 2.5 1.25 1.25 0 000-2.5zm7.917 1.25a1.25 1.25 0 112.5 0 1.25 1.25 0 01-2.5 0z" fill="#000"/></svg>