<svg width="23" height="22" fill="none" xmlns="http://www.w3.org/2000/svg"><path d="M5.354 2.574c-1.43.16-2.576 1.29-2.741 2.704a49.252 49.252 0 000 11.444c.165 1.415 1.31 2.544 2.74 2.704a51.25 51.25 0 0011.292 0c1.431-.16 2.576-1.29 2.742-2.704.32-2.732.409-5.483.27-8.226a.25.25 0 01.072-.19l1.299-1.299a.248.248 0 01.423.156c.245 3.256.178 6.53-.202 9.776-.269 2.297-2.112 4.095-4.395 4.35a53.17 53.17 0 01-11.708 0c-2.283-.255-4.127-2.053-4.396-4.35a51.128 51.128 0 010-11.878C1.02 2.764 2.863.966 5.146.71a53.127 53.127 0 0111.708 0 4.99 4.99 0 012.199.798.24.24 0 01.032.37L18.08 2.883a.264.264 0 01-.312.041 3.109 3.109 0 00-1.123-.35 51.253 51.253 0 00-11.292 0z" fill="#FFA630"/><path d="M22.288 3.538a.938.938 0 00-1.326-1.326L10.375 12.8 7.288 9.712a.938.938 0 00-1.326 1.326l3.75 3.75a.937.937 0 001.326 0l11.25-11.25z" fill="#FFA630"/></svg>