<svg width="46" height="31" fill="none" xmlns="http://www.w3.org/2000/svg"><path fill-rule="evenodd" clip-rule="evenodd" d="M29.314 12.812c.61.61.61 1.6 0 2.21l-7.292 7.291c-.61.61-1.6.61-2.21 0l-4.167-4.166a1.562 1.562 0 112.21-2.21l3.062 3.062 6.187-6.187c.61-.61 1.6-.61 2.21 0z" fill="#10BB87"/><path fill-rule="evenodd" clip-rule="evenodd" d="M24.942 3.934A8.145 8.145 0 0017.6 8.546a1.562 1.562 0 01-1.974.778 9.089 9.089 0 00-3.305-.617 9.115 9.115 0 100 18.23H36.59a6.203 6.203 0 10-1.607-12.196 1.563 1.563 0 01-1.954-1.694 8.145 8.145 0 00-8.088-9.113zm-9.483 2.054A11.26 11.26 0 0124.942.809c6 0 10.906 4.69 11.25 10.605a9.328 9.328 0 11.398 18.648H12.322c-6.76 0-12.24-5.48-12.24-12.24s5.48-12.24 12.24-12.24c1.083 0 2.135.14 3.137.406z" fill="#10BB87"/></svg>