<svg width="14" height="14" fill="none" xmlns="http://www.w3.org/2000/svg"><path fill-rule="evenodd" clip-rule="evenodd" d="M13.305 2.61a.5.5 0 01-.064.63L7.113 9.366a.5.5 0 01-.228.13l-2.552.667a.5.5 0 01-.61-.61l.667-2.552a.519.519 0 01.107-.208L10.648.646a.5.5 0 01.707 0l1.886 1.886c.024.024.046.05.064.079zm-1.125.276l-1.178-1.179-5.679 5.679-.417 1.595 1.595-.417 5.68-5.678z" fill="#000"/><path d="M12.096 10.44c.182-1.558.24-3.127.174-4.693a.268.268 0 01.078-.2l.656-.656c.08-.08.218-.03.225.084a30.61 30.61 0 01-.14 5.581 2.927 2.927 0 01-2.582 2.555c-2.31.259-4.7.259-7.01 0a2.927 2.927 0 01-2.583-2.555 30.615 30.615 0 010-7.112A2.927 2.927 0 013.496.889 31.833 31.833 0 018.822.747a.132.132 0 01.086.226l-.662.661a.268.268 0 01-.199.079 30.776 30.776 0 00-4.44.17 1.927 1.927 0 00-1.7 1.677 29.614 29.614 0 000 6.88 1.927 1.927 0 001.7 1.678c2.238.25 4.552.25 6.79 0a1.927 1.927 0 001.699-1.678z" fill="#000"/></svg>