<svg width="16" height="20" fill="none" xmlns="http://www.w3.org/2000/svg"><path d="M11.75 11a.75.75 0 00-.75-.75H5a.75.75 0 000 1.5h6a.75.75 0 00.75-.75zm0 4a.75.75 0 00-.75-.75H5a.75.75 0 000 1.5h6a.75.75 0 00.75-.75z" fill="#000"/><path fill-rule="evenodd" clip-rule="evenodd" d="M3 .25A2.75 2.75 0 00.25 3v14A2.75 2.75 0 003 19.75h10A2.75 2.75 0 0015.75 17V5.968c0-.381-.124-.751-.354-1.055L12.398.945A1.75 1.75 0 0011.003.25H3zM1.75 3c0-.69.56-1.25 1.25-1.25h7.25v4.397c0 .414.336.75.75.75h3.25V17c0 .69-.56 1.25-1.25 1.25H3c-.69 0-1.25-.56-1.25-1.25V3z" fill="#000"/></svg>