<svg width="14" height="16" fill="none" xmlns="http://www.w3.org/2000/svg"><path fill-rule="evenodd" clip-rule="evenodd" d="M5.948.708c-.644 0-1.182.493-1.238 1.135a30.931 30.931 0 00-.09 4.038l-.21.014-1.242.09A1.05 1.05 0 002.36 7.6a13.38 13.38 0 003.468 3.662l.497.357c.404.29.947.29 1.35 0l.497-.357A13.38 13.38 0 0011.64 7.6a1.05 1.05 0 00-.808-1.613l-1.241-.09c-.07-.006-.14-.01-.211-.015a30.931 30.931 0 00-.09-4.038A1.243 1.243 0 008.053.708H5.948zm-.047 5.72a29.681 29.681 0 01.053-4.47h2.092a29.68 29.68 0 01.053 4.47.625.625 0 00.593.665c.27.013.539.03.808.05l.901.065a12.13 12.13 0 01-2.958 3.038L7 10.564l-.443-.318A12.13 12.13 0 013.6 7.208l.901-.066c.27-.02.539-.036.808-.05a.625.625 0 00.593-.663z" fill="#10BB87"/><path d="M1.792 12.167a.625.625 0 10-1.25 0v1.666c0 .806.653 1.459 1.458 1.459h10c.806 0 1.458-.653 1.458-1.459v-1.666a.625.625 0 10-1.25 0v1.666a.208.208 0 01-.208.209H2a.208.208 0 01-.208-.209v-1.666z" fill="#10BB87"/></svg>