<svg width="10" height="18" fill="none" xmlns="http://www.w3.org/2000/svg"><path fill-rule="evenodd" clip-rule="evenodd" d="M3.738 2.156A4.375 4.375 0 016.832.875h2.25c.345 0 .625.28.625.625v3c0 .345-.28.625-.625.625h-2.25a.125.125 0 00-.125.125v1.625h2.375a.625.625 0 01.606.777l-.75 3a.625.625 0 01-.606.473H6.707V16.5c0 .345-.28.625-.625.625h-3a.625.625 0 01-.625-.625v-5.375H.832a.625.625 0 01-.625-.625v-3c0-.345.28-.625.625-.625h1.625V5.25c0-1.16.461-2.273 1.281-3.094zm3.094-.031A3.125 3.125 0 003.707 5.25V7.5c0 .345-.28.625-.625.625H1.457v1.75h1.625c.345 0 .625.28.625.625v5.375h1.75V10.5c0-.345.28-.625.625-.625h1.762l.438-1.75h-2.2a.625.625 0 01-.625-.625V5.25a1.375 1.375 0 011.375-1.375h1.625v-1.75H6.832z" fill="#487B6C"/></svg>