<svg width="16" height="16" fill="none" xmlns="http://www.w3.org/2000/svg"><path d="M11.335 3.833a.833.833 0 111.666 0 .833.833 0 01-1.666 0z" fill="#487B6C"/><path fill-rule="evenodd" clip-rule="evenodd" d="M8.001 4.042a3.958 3.958 0 100 7.916 3.958 3.958 0 000-7.916zM5.293 8a2.708 2.708 0 115.417 0 2.708 2.708 0 01-5.417 0z" fill="#487B6C"/><path fill-rule="evenodd" clip-rule="evenodd" d="M12.383.36a39.768 39.768 0 00-8.764 0A3.659 3.659 0 00.392 3.555a38.268 38.268 0 000 8.891 3.659 3.659 0 003.227 3.194c2.89.323 5.875.323 8.764 0a3.658 3.658 0 003.228-3.194 38.262 38.262 0 000-8.89A3.658 3.658 0 0012.383.36zM3.758 1.604a38.516 38.516 0 018.486 0A2.409 2.409 0 0114.37 3.7a37.014 37.014 0 010 8.6 2.408 2.408 0 01-2.125 2.097c-2.796.312-5.69.312-8.486 0A2.408 2.408 0 011.633 12.3a37.017 37.017 0 010-8.6 2.409 2.409 0 012.125-2.097z" fill="#487B6C"/></svg>