<svg width="42" height="42" fill="none" xmlns="http://www.w3.org/2000/svg"><path fill-rule="evenodd" clip-rule="evenodd" d="M41.373 7.076a1.614 1.614 0 01-.207 2.029L21.39 28.88a1.613 1.613 0 01-.734.42l-8.236 2.152a1.613 1.613 0 01-1.968-1.97l2.15-8.235c.064-.243.183-.482.348-.67L32.799.739a1.613 1.613 0 012.282 0l6.085 6.084c.079.079.148.164.207.253zm-3.63.888L33.94 4.161 15.615 22.486l-1.344 5.148 5.147-1.345L37.743 7.964z" fill="#10BB87"/><path d="M37.471 32.342a95.568 95.568 0 00.562-15.144.865.865 0 01.252-.648l2.115-2.116a.427.427 0 01.729.273 98.79 98.79 0 01-.453 18.01c-.509 4.35-4.003 7.76-8.331 8.245a102.66 102.66 0 01-22.624 0c-4.329-.484-7.823-3.894-8.332-8.245a98.79 98.79 0 010-22.952c.509-4.351 4.003-7.761 8.332-8.245a102.752 102.752 0 0117.186-.458c.37.021.537.468.276.73l-2.135 2.135a.864.864 0 01-.641.252 99.312 99.312 0 00-14.328.548c-2.861.32-5.153 2.578-5.485 5.413a95.562 95.562 0 000 22.202c.332 2.835 2.624 5.093 5.485 5.413a99.43 99.43 0 0021.907 0c2.862-.32 5.154-2.578 5.485-5.413z" fill="#10BB87"/></svg>