<svg width="130" height="30" fill="none" xmlns="http://www.w3.org/2000/svg"><path fill-rule="evenodd" clip-rule="evenodd" d="M13.3.037c0 .023-.237.037-.633.037-.395 0-.633.014-.633.037s-.211.038-.554.038c-.343 0-.554.014-.554.037s-.238.037-.634.037S9.66.237 9.66.26c0 .024-.62.037-1.781.037C6.716.297 6.096.284 6.096.26c0-.023-.224-.037-.594-.037-.369 0-.593-.014-.593-.037 0-.024-.423-.037-1.188-.037-.765 0-1.188.013-1.188.037 0 .02-.118.037-.277.037-.158 0-.277.016-.277.037 0 .02-.071.037-.158.037-.087 0-.158.017-.158.037 0 .02-.054.037-.12.037-.064 0-.118.017-.118.037 0 .02-.053.038-.119.038-.065 0-.118.016-.118.037 0 .02-.036.037-.08.037-.043 0-.079.017-.079.037 0 .02-.035.037-.079.037-.043 0-.08.017-.08.037 0 .02-.026.037-.06.037-.077 0-.652.539-.652.612 0 .031-.017.057-.04.057-.021 0-.039.05-.039.111s-.018.111-.04.111C.017 1.56 0 1.72 0 1.968c0 .247.016.408.04.408.021 0 .04.034.04.074 0 .041.017.075.039.075s.04.025.04.057c0 .07.254.314.326.314.028 0 .077.033.109.074.031.041.085.075.119.075.033 0 .087.033.118.074.032.04.09.074.128.074.039 0 .07.017.07.037 0 .02.036.037.08.037.043 0 .079.017.079.037 0 .02.035.038.079.038.043 0 .079.016.079.037 0 .02.027.037.06.037.074 0 .494.387.494.455 0 .027.036.072.08.102.043.03.078.083.078.12 0 .036.018.065.04.065.022 0 .04.05.04.112 0 .061.017.111.04.111.021 0 .039.084.039.186s.018.185.04.185c.022 0 .039.124.039.298 0 .173.016.297.04.297.026 0 .04 1.62.04 4.79 0 3.167-.014 4.789-.04 4.789-.025 0-.04.185-.04.482s-.015.483-.04.483c-.022 0-.04.112-.04.26 0 .148-.016.26-.039.26-.022 0-.04.083-.04.185 0 .103-.017.186-.039.186s-.04.067-.04.149c0 .081-.017.148-.04.148-.02 0-.039.05-.039.112 0 .06-.018.111-.04.111-.021 0-.039.03-.039.066 0 .036-.036.09-.079.12-.044.03-.08.075-.08.101 0 .063-.576.604-.643.604-.028 0-.077.034-.108.074-.032.041-.082.075-.112.075s-.104.05-.165.111c-.061.061-.131.111-.156.111-.024 0-.142.092-.261.204-.148.139-.217.233-.217.297 0 .051-.018.093-.04.093-.023 0-.039.149-.039.372s.016.371.04.371c.021 0 .04.05.04.111 0 .062.017.112.039.112s.04.03.04.066c0 .036.035.09.079.12.043.029.079.075.079.102 0 .063.259.306.326.306.029 0 .078.033.11.074.03.04.084.074.118.074.034 0 .087.034.119.075.031.04.088.074.127.074.039 0 .07.017.07.037 0 .02.054.037.12.037.065 0 .118.017.118.037 0 .02.036.037.08.037.043 0 .078.017.078.038 0 .02.054.037.12.037.065 0 .118.016.118.037 0 .02.071.037.158.037.087 0 .159.017.159.037 0 .02.07.037.158.037.087 0 .158.017.158.037 0 .02.09.037.198.037.11 0 .198.017.198.037 0 .022.119.038.277.038.159 0 .277.016.277.037 0 .022.159.037.396.037.238 0 .396.015.396.037 0 .024.726.037 2.098.037 1.372 0 2.098-.013 2.098-.037 0-.023.172-.037.436-.037s.435-.015.435-.037c0-.021.119-.037.277-.037.159 0 .277-.016.277-.038 0-.02.09-.037.198-.037.11 0 .198-.016.198-.037 0-.02.071-.037.159-.037.087 0 .158-.017.158-.037 0-.02.071-.037.158-.037.087 0 .159-.017.159-.037 0-.02.035-.037.079-.037.043 0 .079-.017.079-.037 0-.02.05-.038.11-.038a.22.22 0 00.167-.074c.031-.04.085-.074.119-.074.034 0 .087-.034.119-.074.03-.041.08-.075.109-.075.068 0 .247-.167.247-.231 0-.027.035-.073.079-.103.043-.03.08-.083.08-.12 0-.036.017-.066.039-.066.021 0 .04-.083.04-.185s.017-.186.039-.186.04-.083.04-.185-.018-.186-.04-.186c-.022 0-.04-.067-.04-.149 0-.081-.018-.148-.04-.148-.021 0-.039-.034-.039-.074 0-.041-.018-.075-.04-.075-.021 0-.04-.025-.04-.056 0-.069-.492-.538-.564-.538-.028 0-.077-.033-.108-.074-.031-.04-.089-.074-.127-.074-.04 0-.071-.017-.071-.037 0-.02-.032-.037-.07-.037-.04 0-.096-.034-.128-.075-.031-.04-.08-.074-.109-.074-.072 0-.326-.245-.326-.314 0-.032-.018-.057-.04-.057-.022 0-.04-.05-.04-.112 0-.06-.017-.111-.04-.111-.02 0-.039-.067-.039-.148 0-.082-.018-.149-.04-.149-.022 0-.039-.111-.039-.26 0-.148-.017-.26-.04-.26s-.039-.148-.039-.371-.016-.371-.04-.371c-.025 0-.04-.458-.04-1.3 0-.841.015-1.3.04-1.3.022 0 .04-.098.04-.222s.018-.223.04-.223c.021 0 .04-.026.04-.057 0-.093.262-.314.374-.314.055 0 .1-.017.1-.037 0-.022.132-.037.317-.037s.317.015.317.037c0 .02.07.037.158.037.087 0 .158.016.158.037 0 .02.054.037.119.037s.119.017.119.037c0 .02.035.037.079.037.043 0 .08.017.08.037 0 .02.035.038.078.038.044 0 .08.016.08.037 0 .02.027.037.06.037.073 0 .494.387.494.455 0 .027.035.072.079.102.043.03.079.083.079.12 0 .036.018.065.04.065.021 0 .04.034.04.075 0 .04.017.074.039.074s.04.033.04.074c0 .041.017.074.039.074s.04.034.04.075c0 .04.017.074.04.074.02 0 .039.05.039.111 0 .062.018.112.04.112.021 0 .039.05.039.111s.018.112.04.112c.021 0 .039.05.039.11 0 .062.018.112.04.112.021 0 .04.05.04.112 0 .06.017.111.039.111s.04.067.04.149c0 .081.017.148.039.148s.04.067.04.148c0 .082.017.15.04.15.02 0 .039.066.039.148 0 .081.018.148.04.148.021 0 .039.067.039.149 0 .081.018.148.04.148.021 0 .04.067.04.149 0 .081.017.148.039.148.021 0 .04.067.04.149 0 .081.017.148.039.148s.04.05.04.112c0 .06.017.111.039.111s.04.067.04.149c0 .081.017.148.04.148.02 0 .039.05.039.111 0 .062.018.112.04.112.021 0 .039.067.039.148 0 .082.018.149.04.149.021 0 .04.05.04.111s.017.112.039.112c.021 0 .04.05.04.11 0 .062.017.112.039.112s.04.05.04.112c0 .061.017.111.039.111s.04.034.04.074c0 .041.017.075.04.075.021 0 .039.05.039.111s.018.111.04.111c.021 0 .039.034.039.075 0 .04.018.074.04.074.021 0 .04.033.04.074 0 .041.017.074.039.074.021 0 .04.034.04.075 0 .04.017.074.039.074s.04.033.04.074c0 .041.017.074.039.074s.04.034.04.075c0 .04.017.074.04.074.021 0 .039.033.039.074 0 .041.018.075.04.075.021 0 .039.03.039.066 0 .036.036.09.08.12.043.029.078.076.078.104 0 .028.054.098.12.155.064.057.118.123.118.145 0 .055.579.598.636.598.025 0 .095.05.156.111.06.061.135.111.165.111s.08.034.112.075c.031.04.088.074.127.074.039 0 .07.017.07.037 0 .02.036.037.08.037.043 0 .079.017.079.037 0 .02.036.037.08.037.043 0 .078.017.078.037 0 .02.054.038.119.038s.119.016.119.037c0 .02.053.037.119.037.065 0 .118.017.118.037 0 .02.054.037.12.037.064 0 .118.017.118.037 0 .02.071.037.158.037.087 0 .159.017.159.038 0 .02.07.037.158.037.087 0 .158.016.158.037 0 .021.119.037.277.037.159 0 .277.016.277.037 0 .024.462.037 1.307.037.844 0 1.306-.013 1.306-.037 0-.022.132-.037.317-.037.184 0 .316-.015.316-.037 0-.02.106-.037.238-.037s.238-.017.238-.037c0-.02.07-.038.158-.038.087 0 .158-.016.158-.037 0-.02.054-.037.119-.037s.119-.017.119-.037c0-.02.07-.037.158-.037.087 0 .158-.017.158-.037 0-.02.036-.037.08-.037.043 0 .079-.017.079-.038 0-.02.053-.037.119-.037.065 0 .118-.016.118-.037 0-.02.032-.037.07-.037.04 0 .097-.033.128-.074.032-.041.085-.074.119-.074.034 0 .087-.034.119-.075.031-.04.08-.074.108-.074.067 0 .485-.392.485-.455 0-.027.036-.072.08-.102.043-.03.079-.083.079-.12 0-.036.018-.066.04-.066.021 0 .039-.033.039-.074 0-.04.018-.074.04-.074.021 0 .04-.033.04-.074 0-.041.017-.075.039-.075.024 0 .04-.16.04-.408 0-.247-.016-.408-.04-.408-.022 0-.04-.034-.04-.075 0-.04-.018-.074-.04-.074-.021 0-.039-.025-.039-.056 0-.098-.422-.464-.534-.464-.054 0-.1-.016-.1-.037 0-.02-.053-.037-.118-.037-.066 0-.119-.017-.119-.037 0-.02-.053-.037-.119-.037-.065 0-.118-.017-.118-.037 0-.02-.036-.037-.08-.037-.043 0-.079-.017-.079-.037 0-.021-.035-.038-.079-.038s-.08-.016-.08-.037c0-.02-.035-.037-.078-.037-.044 0-.08-.017-.08-.037 0-.02-.027-.037-.06-.037-.079 0-.335-.24-.335-.315 0-.03-.018-.056-.04-.056-.022 0-.04-.05-.04-.112 0-.061-.017-.111-.04-.111-.02 0-.039-.067-.039-.149 0-.081-.017-.148-.04-.148-.021 0-.039-.084-.039-.186s-.018-.186-.04-.186c-.022 0-.039-.111-.039-.26 0-.148-.017-.26-.04-.26-.022 0-.04-.098-.04-.222s-.017-.223-.039-.223-.04-.084-.04-.186-.017-.185-.039-.185-.04-.084-.04-.186-.017-.185-.04-.185c-.02 0-.039-.067-.039-.149 0-.082-.018-.149-.04-.149-.021 0-.039-.066-.039-.148 0-.082-.018-.148-.04-.148-.021 0-.04-.05-.04-.112 0-.061-.017-.111-.039-.111-.021 0-.04-.05-.04-.112 0-.061-.017-.111-.039-.111s-.04-.05-.04-.111c0-.062-.017-.112-.039-.112s-.04-.033-.04-.074c0-.041-.017-.074-.04-.074-.02 0-.039-.034-.039-.075 0-.04-.018-.074-.04-.074-.021 0-.039-.046-.039-.103a.198.198 0 00-.08-.157c-.043-.03-.078-.083-.078-.12 0-.036-.018-.065-.04-.065-.022 0-.04-.03-.04-.066 0-.037-.035-.09-.079-.12-.043-.03-.079-.076-.079-.104 0-.028-.071-.115-.158-.193-.087-.079-.159-.162-.159-.184 0-.055-.18-.225-.238-.225-.025 0-.113-.066-.197-.148-.084-.082-.173-.149-.199-.149-.025 0-.096-.05-.157-.11-.061-.062-.14-.112-.174-.112-.035 0-.064-.017-.064-.038 0-.02-.035-.037-.079-.037-.043 0-.079-.016-.079-.037 0-.02-.036-.037-.08-.037-.043 0-.078-.016-.078-.037 0-.02-.036-.037-.08-.037-.043 0-.079-.017-.079-.037 0-.02-.035-.037-.079-.037-.043 0-.08-.017-.08-.037 0-.02-.035-.038-.078-.038-.044 0-.08-.016-.08-.037 0-.02-.053-.037-.118-.037s-.119-.017-.119-.037c0-.02-.036-.037-.08-.037-.043 0-.078-.017-.078-.037 0-.02-.036-.037-.08-.037-.043 0-.079-.017-.079-.037 0-.02-.031-.038-.07-.038-.039 0-.096-.033-.128-.074-.03-.04-.088-.074-.127-.074-.044 0-.07-.028-.07-.074 0-.041-.018-.075-.04-.075-.022 0-.04-.033-.04-.074 0-.04-.018-.074-.04-.074-.021 0-.039-.034-.039-.074 0-.041.018-.075.04-.075.021 0 .04-.025.04-.056 0-.074.335-.39.414-.39.033 0 .06-.016.06-.036 0-.02.036-.037.08-.037.043 0 .079-.017.079-.038 0-.02.035-.037.079-.037.043 0 .08-.016.08-.037 0-.02.027-.037.062-.037s.114-.05.175-.111c.06-.062.131-.112.157-.112.026 0 .115-.067.199-.148.084-.082.172-.149.197-.149.057 0 .238-.17.238-.223 0-.023.09-.123.198-.222.11-.1.198-.204.198-.231 0-.028.036-.074.08-.104.043-.029.078-.083.078-.12 0-.035.018-.065.04-.065.022 0 .04-.034.04-.074 0-.041.018-.075.04-.075.021 0 .039-.03.039-.066 0-.036.035-.09.079-.12a.198.198 0 00.08-.156c0-.057.017-.103.039-.103s.04-.034.04-.074c0-.041.017-.075.039-.075s.04-.05.04-.111.017-.112.04-.112c.02 0 .039-.05.039-.11 0-.062.017-.112.04-.112.021 0 .039-.067.039-.149 0-.081.018-.148.04-.148.021 0 .04-.084.04-.186s.017-.186.039-.186c.025 0 .04-.309.04-.854 0-.544-.015-.854-.04-.854-.022 0-.04-.083-.04-.185s-.018-.186-.04-.186c-.021 0-.04-.067-.04-.148 0-.082-.017-.149-.039-.149s-.04-.05-.04-.111-.017-.112-.039-.112-.04-.05-.04-.111-.017-.111-.039-.111-.04-.034-.04-.075c0-.04-.017-.074-.04-.074-.021 0-.039-.046-.039-.103a.198.198 0 00-.079-.157c-.044-.03-.08-.083-.08-.12 0-.036-.017-.065-.039-.065-.021 0-.04-.03-.04-.067 0-.036-.035-.09-.079-.12-.043-.029-.079-.076-.079-.104 0-.028-.053-.098-.118-.155-.066-.057-.12-.123-.12-.145 0-.054-.658-.672-.715-.672-.024 0-.094-.05-.155-.111s-.136-.112-.165-.112c-.03 0-.08-.033-.112-.074-.032-.04-.085-.074-.119-.074-.034 0-.087-.034-.119-.074-.031-.041-.088-.075-.127-.075-.039 0-.07-.016-.07-.037 0-.02-.032-.037-.071-.037-.039 0-.096-.033-.128-.074-.03-.041-.088-.074-.127-.074-.039 0-.07-.017-.07-.038 0-.02-.036-.037-.08-.037-.043 0-.079-.016-.079-.037 0-.02-.035-.037-.079-.037-.043 0-.08-.017-.08-.037 0-.02-.035-.037-.078-.037-.044 0-.08-.017-.08-.037 0-.02-.053-.037-.118-.037-.066 0-.119-.017-.119-.038 0-.02-.036-.037-.08-.037-.043 0-.078-.016-.078-.037 0-.02-.054-.037-.12-.037-.064 0-.118-.017-.118-.037 0-.02-.053-.037-.119-.037-.065 0-.118-.017-.118-.037 0-.02-.072-.037-.159-.037-.087 0-.158-.017-.158-.038 0-.02-.053-.037-.119-.037-.065 0-.119-.016-.119-.037 0-.02-.089-.037-.197-.037-.11 0-.198-.017-.198-.037 0-.02-.09-.037-.198-.037-.11 0-.198-.017-.198-.037 0-.022-.12-.037-.277-.037-.159 0-.277-.016-.277-.038s-.185-.037-.476-.037c-.29 0-.475-.014-.475-.037S14.264 0 13.895 0c-.37 0-.594.014-.594.037zm38.162.297c0 .021-.12.037-.278.037-.158 0-.277.016-.277.037 0 .02-.089.038-.197.038-.11 0-.198.016-.198.037 0 .02-.09.037-.198.037-.11 0-.198.017-.198.037 0 .02-.072.037-.159.037-.087 0-.158.017-.158.037 0 .02-.071.037-.158.037-.087 0-.159.017-.159.037 0 .02-.07.038-.158.038-.087 0-.158.016-.158.037 0 .02-.072.037-.159.037-.087 0-.158.017-.158.037 0 .02-.053.037-.119.037-.065 0-.119.017-.119.037 0 .02-.07.037-.158.037-.087 0-.158.017-.158.037 0 .02-.054.038-.119.038s-.119.016-.119.037c0 .02-.053.037-.119.037-.065 0-.118.017-.118.037 0 .02-.054.037-.119.037s-.119.017-.119.037c0 .02-.053.037-.118.037-.066 0-.12.017-.12.038 0 .02-.053.037-.118.037s-.119.016-.119.037c0 .02-.053.037-.119.037-.065 0-.118.017-.118.037 0 .02-.054.037-.12.037-.064 0-.118.017-.118.037 0 .02-.053.037-.119.037-.065 0-.118.017-.118.038 0 .02-.036.037-.08.037-.043 0-.079.016-.079.037 0 .02-.053.037-.118.037-.066 0-.12.017-.12.037 0 .02-.053.037-.118.037s-.119.017-.119.037c0 .02-.035.037-.079.037-.043 0-.08.017-.08.038 0 .02-.052.037-.118.037-.065 0-.119.016-.119.037 0 .02-.035.037-.079.037-.043 0-.079.017-.079.037 0 .02-.036.037-.08.037-.043 0-.078.017-.078.037 0 .02-.054.037-.119.037s-.119.017-.119.038c0 .02-.032.037-.07.037-.039 0-.096.033-.128.074-.031.04-.088.074-.127.074-.039 0-.07.017-.07.037 0 .02-.032.037-.071.037-.039 0-.096.034-.128.075-.031.04-.08.074-.108.074-.072 0-.565.47-.565.538 0 .03-.017.056-.04.056-.02 0-.039.033-.039.074 0 .041-.018.075-.04.075-.021 0-.039.098-.039.22 0 .139-.018.227-.05.24-.039.018-.039.027 0 .044.03.013.05.094.05.204 0 .1.018.183.04.183.021 0 .04.025.04.057 0 .074.256.314.334.314.034 0 .061.017.061.037 0 .02.036.037.08.037.043 0 .078.017.078.037 0 .02.036.037.08.037.043 0 .079.017.079.038 0 .02.071.037.158.037.087 0 .159.016.159.037 0 .02.105.037.237.037s.237.016.237.037c0 .02.036.037.08.037.043 0 .079.017.079.037 0 .02.035.038.08.038.043 0 .078.016.078.037 0 .02.036.037.08.037.049 0 .079.025.079.066 0 .036.035.09.079.12.046.03.079.096.079.156 0 .057.018.103.04.103.021 0 .04.084.04.186s.017.186.039.186c.024 0 .04.21.04.557 0 .346.014.556.039.556.026 0 .04.941.04 2.748 0 1.807-.014 2.748-.04 2.748-.026 0-.04.433-.04 1.225S45.747 15 45.721 15c-.024 0-.039.21-.039.557 0 .346-.015.557-.04.557-.023 0-.04.148-.04.371s-.015.371-.039.371c-.023 0-.04.124-.04.297 0 .174-.016.298-.039.298-.022 0-.04.083-.04.185s-.017.186-.039.186-.04.033-.04.074c0 .04-.017.074-.04.074-.021 0-.039.034-.039.075 0 .04-.018.074-.04.074-.021 0-.039.026-.039.058 0 .069-.093.165-.16.165-.025 0-.096.05-.157.111-.06.061-.135.111-.165.111s-.08.034-.112.075c-.031.04-.081.074-.111.074s-.105.05-.166.111c-.06.061-.14.112-.174.112-.035 0-.063.026-.063.059s-.054.106-.12.163c-.064.058-.118.131-.118.164s-.018.06-.04.06c-.021 0-.039.066-.039.148 0 .081-.018.148-.04.148-.021 0-.04.05-.04.112 0 .06.019.111.04.111.022 0 .04.084.04.186s.018.185.04.185c.021 0 .04.05.04.112 0 .06.017.111.039.111.021 0 .04.03.04.066 0 .036.035.09.078.12.044.03.08.075.08.101 0 .068.42.456.494.456.033 0 .06.016.06.037 0 .02.035.037.079.037s.08.017.08.037c0 .02.035.037.078.037.044 0 .08.017.08.037 0 .02.053.037.118.037.066 0 .12.017.12.037 0 .021.105.038.237.038s.237.016.237.037c0 .022.158.037.396.037.237 0 .396.015.396.037 0 .024.37.037 1.029.037.66 0 1.03.014 1.03.037 0 .024.25.037.672.037.422 0 .673-.013.673-.037 0-.023.277-.037.752-.037s.752-.014.752-.037c0-.022.146-.037.357-.037.21 0 .356-.015.356-.037 0-.02.09-.037.198-.037.109 0 .198-.017.198-.038 0-.02.089-.037.198-.037.109 0 .198-.016.198-.037 0-.02.053-.037.118-.037.066 0 .12-.017.12-.037 0-.02.053-.037.118-.037s.119-.017.119-.037c0-.02.035-.037.079-.037.043 0 .08-.017.08-.037 0-.02.035-.038.078-.038.044 0 .08-.016.08-.037 0-.02.035-.037.079-.037.043 0 .079-.017.079-.037 0-.02.027-.037.06-.037.078 0 .494-.39.494-.463 0-.032.018-.057.04-.057.021 0 .04-.033.04-.074 0-.041.017-.075.039-.075s.04-.033.04-.074c0-.04.017-.074.039-.074.024 0 .04-.198.04-.52s-.016-.52-.04-.52c-.022 0-.04-.033-.04-.074 0-.04-.017-.074-.04-.074-.021 0-.039-.026-.039-.057 0-.031-.214-.256-.475-.5s-.475-.469-.475-.5c0-.031-.018-.057-.04-.057-.021 0-.04-.05-.04-.111 0-.062-.017-.112-.039-.112s-.04-.099-.04-.222c0-.124-.017-.223-.039-.223-.024 0-.04-.149-.04-.372 0-.222.016-.37.04-.37s.04-.137.04-.335.016-.334.04-.334c.021 0 .039-.034.039-.074 0-.06.026-.075.14-.075.12 0 .178.038.435.278.163.153.296.296.296.319 0 .022.071.104.158.183.087.078.159.162.159.186 0 .023.07.107.158.185.087.079.158.162.158.186 0 .024.071.107.158.186.088.078.159.162.159.186 0 .024.053.09.119.148.065.057.118.123.118.148 0 .024.072.107.159.186.087.078.158.162.158.186 0 .024.053.09.119.148.065.057.119.124.119.148 0 .024.07.108.158.186.087.079.158.163.158.187 0 .024.054.09.119.147.065.058.119.124.119.148 0 .024.071.108.158.186.087.079.159.163.159.187 0 .024.053.09.118.148.066.057.119.123.119.147 0 .024.071.108.158.187.087.078.159.162.159.186 0 .024.053.09.118.148.066.057.12.124.12.148 0 .024.07.108.157.186.088.079.159.161.159.184 0 .058.263.299.326.299.029 0 .078.033.11.074.03.041.088.074.127.074.039 0 .07.017.07.038 0 .02.036.037.08.037.043 0 .079.016.079.037 0 .02.053.037.118.037.066 0 .12.017.12.037 0 .024 1.147.037 3.364.037 2.217 0 3.365-.012 3.365-.037 0-.02.089-.037.198-.037.109 0 .198-.017.198-.037 0-.02.053-.037.118-.037.066 0 .12-.017.12-.037 0-.02.052-.038.118-.038.065 0 .119-.016.119-.037 0-.02.035-.037.079-.037.043 0 .079-.017.079-.037 0-.02.032-.037.07-.037.04 0 .096-.034.128-.074.031-.041.08-.075.109-.075.067 0 .326-.242.326-.306 0-.027.036-.073.08-.102.043-.03.079-.083.079-.12 0-.036.017-.066.04-.066.021 0 .039-.05.039-.111s.018-.112.04-.112c.023 0 .039-.148.039-.37 0-.224-.016-.372-.04-.372-.021 0-.04-.046-.04-.103a.199.199 0 00-.078-.157c-.044-.03-.08-.075-.08-.102 0-.063-.418-.455-.485-.455-.028 0-.077-.033-.108-.074-.032-.041-.089-.074-.128-.074-.038 0-.07-.017-.07-.037 0-.021-.032-.038-.07-.038-.04 0-.097-.033-.128-.074-.031-.04-.089-.074-.128-.074-.038 0-.07-.017-.07-.037 0-.02-.032-.037-.07-.037-.04 0-.097-.034-.128-.075-.031-.04-.085-.074-.119-.074-.034 0-.087-.033-.118-.074-.032-.041-.085-.075-.12-.075-.033 0-.087-.033-.118-.074-.031-.04-.08-.074-.108-.074-.061 0-.882-.762-.882-.819 0-.021-.107-.138-.237-.258s-.238-.237-.238-.26c0-.023-.089-.123-.198-.222-.109-.1-.198-.2-.198-.224 0-.023-.07-.106-.158-.185-.087-.078-.158-.162-.158-.186 0-.023-.072-.107-.159-.185-.087-.079-.158-.162-.158-.187 0-.024-.053-.09-.119-.147-.065-.058-.119-.124-.119-.148 0-.024-.07-.108-.158-.186-.087-.079-.158-.163-.158-.187 0-.024-.054-.09-.119-.148-.065-.057-.119-.124-.119-.148 0-.025-.053-.091-.118-.149-.066-.057-.12-.127-.12-.155 0-.028-.035-.075-.078-.104-.044-.03-.08-.077-.08-.105 0-.028-.053-.098-.118-.155-.066-.058-.119-.125-.119-.149 0-.024-.053-.091-.119-.148-.065-.058-.119-.127-.119-.156 0-.028-.035-.075-.079-.104-.043-.03-.079-.077-.079-.105 0-.028-.053-.098-.119-.155-.065-.058-.118-.127-.118-.155 0-.029-.036-.076-.08-.105-.043-.03-.079-.08-.079-.112 0-.031-.035-.082-.079-.11-.044-.03-.08-.08-.08-.112s-.035-.082-.078-.112c-.044-.03-.08-.08-.08-.111 0-.032-.035-.082-.079-.112-.043-.029-.079-.083-.079-.119 0-.036-.018-.066-.04-.066-.021 0-.039-.03-.039-.066 0-.037-.036-.09-.08-.12-.057-.039-.078-.096-.078-.213 0-.15.018-.177.336-.474.184-.173.359-.315.387-.315.028 0 .077-.034.108-.074.031-.041.085-.075.119-.075.034 0 .087-.033.118-.074.032-.04.085-.074.12-.074.033 0 .087-.034.118-.075.031-.04.089-.074.128-.074.038 0 .07-.016.07-.037 0-.02.032-.037.07-.037.04 0 .096-.033.128-.074.031-.041.089-.075.127-.075.04 0 .07-.016.07-.037 0-.02.036-.037.08-.037.044 0 .08-.017.08-.037 0-.02.035-.037.078-.037.044 0 .08-.017.08-.037 0-.02.053-.037.118-.037.066 0 .119-.017.119-.037 0-.02.036-.038.08-.038.043 0 .078-.016.078-.037 0-.02.072-.037.159-.037.087 0 .158-.017.158-.037 0-.02.09-.037.198-.037.109 0 .198-.017.198-.037 0-.02.089-.037.198-.037.109 0 .198-.017.198-.037 0-.02.053-.038.119-.038.065 0 .118-.016.118-.037 0-.02.032-.037.07-.037.04 0 .097-.033.128-.074.032-.04.081-.074.11-.074.073 0 .167-.093.167-.165 0-.032.018-.058.04-.058.022 0 .04-.034.04-.074 0-.041.017-.075.04-.075.02 0 .039-.066.039-.148 0-.082.017-.149.04-.149.021 0 .039-.05.039-.111s-.018-.111-.04-.111c-.022 0-.04-.084-.04-.186s-.017-.186-.039-.186-.04-.046-.04-.103a.198.198 0 00-.079-.157c-.043-.03-.079-.075-.079-.101 0-.068-.5-.53-.573-.53-.033 0-.06-.017-.06-.037 0-.02-.036-.037-.08-.037-.043 0-.079-.017-.079-.037 0-.02-.053-.037-.118-.037-.066 0-.12-.017-.12-.037 0-.02-.052-.038-.118-.038-.065 0-.119-.016-.119-.037 0-.02-.07-.037-.158-.037-.087 0-.158-.017-.158-.037 0-.02-.09-.037-.198-.037-.11 0-.198-.017-.198-.037 0-.02-.106-.037-.238-.037s-.237-.017-.237-.038c0-.022-.158-.037-.396-.037-.238 0-.396-.014-.396-.037 0-.024-.448-.037-1.267-.037-.818 0-1.266.013-1.266.037 0 .023-.159.037-.396.037-.238 0-.396.015-.396.037 0 .021-.106.038-.238.038s-.237.016-.237.037c0 .02-.071.037-.158.037-.088 0-.159.017-.159.037 0 .02-.071.037-.158.037-.087 0-.158.017-.158.037 0 .02-.036.037-.08.037-.043 0-.079.017-.079.038 0 .02-.05.037-.11.037a.222.222 0 00-.167.074c-.031.04-.089.074-.127.074-.04 0-.07.017-.07.037 0 .02-.028.037-.061.037-.079 0-.415.316-.415.39 0 .03-.018.056-.04.056-.021 0-.04.033-.04.074 0 .041-.017.074-.039.074-.023 0-.04.149-.04.372s.017.371.04.371c.022 0 .04.033.04.074 0 .041.018.075.04.075.021 0 .04.03.04.066 0 .036.035.09.078.12.044.029.08.079.08.11 0 .032.035.083.079.112.043.03.079.083.079.12 0 .036.018.066.04.066.021 0 .039.032.039.07 0 .04.022.082.05.094.039.017.039.026 0 .043a.09.09 0 00-.05.075c0 .063-.334.386-.399.386-.024 0-.094.05-.155.111-.061.062-.14.112-.175.112-.034 0-.063.016-.063.037 0 .02-.032.037-.07.037-.039 0-.096.033-.128.074-.031.041-.089.075-.127.075-.039 0-.07.016-.07.037 0 .02-.032.037-.071.037-.039 0-.096.033-.128.074-.031.04-.088.074-.127.074-.039 0-.07.017-.07.037 0 .02-.054.037-.12.037-.065 0-.118.017-.118.038 0 .02-.036.037-.08.037-.043 0-.078.017-.078.037 0 .02-.054.037-.12.037-.064 0-.118.017-.118.037 0 .02-.089.037-.198.037-.109 0-.198-.016-.198-.037 0-.02-.027-.037-.06-.037-.08 0-.336-.24-.336-.314 0-.032-.017-.057-.04-.057-.022 0-.039-.124-.039-.297 0-.174-.016-.297-.04-.297-.025 0-.039-.62-.039-1.782 0-1.164.014-1.783.04-1.783.025 0 .04-.445.04-1.262s.013-1.262.039-1.262c.026 0 .04-.47.04-1.337 0-.866-.014-1.337-.04-1.337-.022 0-.04-.026-.04-.058 0-.075-.095-.164-.175-.164-.034 0-.062-.017-.062-.038 0-.02-.036-.037-.08-.037-.043 0-.079-.016-.079-.037 0-.023-.237-.037-.633-.037s-.633.014-.633.037zm24.464 0c0 .022-.132.037-.317.037s-.317.016-.317.037c0 .022-.118.038-.277.038-.158 0-.277.015-.277.037 0 .02-.106.037-.237.037-.132 0-.238.016-.238.037 0 .02-.106.037-.237.037-.132 0-.238.017-.238.037 0 .02-.089.037-.198.037-.109 0-.198.017-.198.037 0 .02-.089.038-.198.038-.109 0-.198.016-.198.037 0 .02-.089.037-.198.037-.108 0-.198.017-.198.037 0 .02-.07.037-.158.037-.087 0-.158.017-.158.037 0 .02-.072.037-.159.037-.087 0-.158.017-.158.037 0 .02-.071.038-.158.038-.087 0-.159.016-.159.037 0 .02-.053.037-.118.037-.066 0-.12.017-.12.037 0 .02-.07.037-.157.037s-.159.017-.159.037c0 .02-.053.037-.118.037-.066 0-.12.017-.12.038 0 .02-.053.037-.118.037s-.119.016-.119.037c0 .02-.053.037-.119.037-.065 0-.118.017-.118.037 0 .02-.036.037-.08.037-.043 0-.079.017-.079.037 0 .02-.053.037-.118.037-.066 0-.12.017-.12.038 0 .02-.035.037-.078.037-.044 0-.08.016-.08.037 0 .02-.035.037-.079.037-.043 0-.079.017-.079.037 0 .02-.036.037-.079.037-.044 0-.08.017-.08.037 0 .02-.035.037-.078.037-.044 0-.08.017-.08.038 0 .02-.031.037-.07.037-.039 0-.096.033-.128.074-.03.04-.084.074-.118.074-.034 0-.088.034-.119.074-.031.041-.08.075-.108.075-.073 0-.486.394-.486.463 0 .031-.018.057-.04.057-.021 0-.039.033-.039.074 0 .04-.018.074-.04.074-.021 0-.04.033-.04.074 0 .041-.017.075-.039.075-.021 0-.04.05-.04.11 0 .062-.017.112-.039.112-.023 0-.04.124-.04.297 0 .174.017.297.04.297.022 0 .04.067.04.149 0 .082.018.148.04.148.021 0 .039.034.039.075 0 .04.018.074.04.074.021 0 .039.025.039.057 0 .065.332.388.399.388.024 0 .094.05.155.112.061.061.14.111.175.111.034 0 .063.017.063.037 0 .02.032.038.07.038.039 0 .096.033.128.074.031.04.08.074.108.074.072 0 .644.544.644.612 0 .031.018.056.04.056.021 0 .039.034.039.075 0 .04.018.074.04.074.021 0 .04.033.04.074 0 .04.017.074.039.074.021 0 .04.034.04.075 0 .04.017.074.039.074s.04.067.04.148c0 .082.017.149.04.149.02 0 .039.083.039.186 0 .102.017.185.04.185s.039.149.039.371c0 .223.016.372.04.372.025 0 .039.31.039.854s.014.854.04.854c.026 0 .04.718.04 2.079 0 1.361-.014 2.08-.04 2.08-.026 0-.04.333-.04.927 0 .594-.014.928-.04.928-.024 0-.04.199-.04.52 0 .322-.014.52-.039.52-.023 0-.04.149-.04.371 0 .223-.015.372-.039.372-.022 0-.04.083-.04.185s-.017.186-.04.186c-.02 0-.039.067-.039.148 0 .082-.017.149-.04.149-.021 0-.039.034-.039.074 0 .041-.018.075-.04.075-.021 0-.039.033-.039.074 0 .04-.018.074-.04.074-.021 0-.04.026-.04.057 0 .074-.255.314-.334.314-.034 0-.061.017-.061.038 0 .02-.036.037-.08.037-.043 0-.078.016-.078.037 0 .02-.036.037-.08.037-.043 0-.079.017-.079.037 0 .02-.035.037-.079.037-.043 0-.08.017-.08.037 0 .02-.03.037-.07.037-.038 0-.096.034-.127.075-.031.04-.08.074-.11.074-.072 0-.246.17-.246.24 0 .031-.018.057-.04.057-.024 0-.04.16-.04.408 0 .248.016.409.04.409.022 0 .04.046.04.103 0 .06.032.125.079.157.043.03.08.075.08.101 0 .068.5.53.572.53.033 0 .06.017.06.037 0 .02.036.037.08.037.043 0 .079.017.079.037 0 .02.035.037.079.037.043 0 .08.017.08.038 0 .02.035.037.078.037.044 0 .08.016.08.037 0 .02.053.037.118.037.066 0 .119.017.119.037 0 .02.071.037.158.037.087 0 .159.017.159.037 0 .02.089.037.198.037.109 0 .198.017.198.037 0 .022.118.038.277.038.158 0 .277.016.277.037 0 .022.158.037.396.037.237 0 .395.015.395.037 0 .024.74.037 2.138.037 1.399 0 2.138-.013 2.138-.037 0-.023.171-.037.435-.037s.436-.015.436-.037c0-.02.105-.037.237-.037s.238-.017.238-.038c0-.02.089-.037.198-.037.108 0 .198-.016.198-.037 0-.02.053-.037.118-.037.066 0 .119-.017.119-.037 0-.02.053-.037.119-.037.065 0 .119-.017.119-.037 0-.02.035-.037.079-.037.043 0 .079-.017.079-.037 0-.02.032-.038.07-.038.04 0 .096-.033.128-.074.031-.04.08-.074.109-.074.067 0 .326-.243.326-.306 0-.027.036-.073.08-.103.043-.029.079-.083.079-.12 0-.035.017-.065.04-.065.021 0 .039-.05.039-.112 0-.06.018-.111.04-.111.023 0 .039-.149.039-.371 0-.223-.016-.372-.04-.372-.021 0-.04-.033-.04-.074 0-.04-.017-.074-.039-.074s-.04-.026-.04-.057c0-.07-.174-.24-.246-.24-.029 0-.078-.034-.11-.074-.031-.041-.088-.075-.127-.075-.039 0-.07-.016-.07-.037 0-.02-.054-.037-.12-.037-.065 0-.118-.017-.118-.037 0-.02-.036-.037-.08-.037-.043 0-.078-.017-.078-.037 0-.02-.027-.037-.06-.037-.079 0-.574-.465-.574-.538 0-.031-.018-.056-.04-.056-.022 0-.039-.112-.039-.26 0-.149-.017-.26-.04-.26-.026 0-.04-1.782-.04-5.272s.014-5.273.04-5.273c.025 0 .04-.26.04-.705 0-.446.015-.706.04-.706.024 0 .04-.222.04-.594 0-.371.014-.594.039-.594.024 0 .04-.173.04-.445 0-.273.015-.446.039-.446s.04-.198.04-.52.015-.52.04-.52c.024 0 .039-.198.039-.52 0-.321-.015-.52-.04-.52-.022 0-.04-.083-.04-.185s-.017-.185-.04-.185c-.02 0-.039-.034-.039-.075 0-.04-.017-.074-.04-.074-.021 0-.039-.025-.039-.056 0-.098-.421-.464-.533-.464-.055 0-.1-.016-.1-.037 0-.023-.264-.037-.713-.037-.448 0-.712.014-.712.037zM11.559 3.453c0 .02.09.037.198.037.109 0 .198.017.198.037 0 .02.036.037.08.037.043 0 .078.017.078.037 0 .02.036.038.08.038.043 0 .079.016.079.037 0 .02.027.037.06.037.078 0 .652.539.652.612 0 .03.018.056.04.056.022 0 .04.034.04.074 0 .041.017.075.039.075s.04.05.04.111.017.111.04.111c.02 0 .039.05.039.112 0 .061.018.111.04.111.021 0 .039.067.039.149 0 .081.018.148.04.148.023 0 .039.136.039.334s.016.335.04.335.04.173.04.445-.016.446-.04.446-.04.123-.04.297c0 .173-.017.297-.04.297-.021 0-.04.067-.04.148 0 .082-.017.149-.039.149-.021 0-.04.05-.04.111s-.017.112-.039.112-.04.033-.04.074c0 .04-.017.074-.04.074-.02 0-.039.033-.039.074 0 .041-.018.075-.04.075-.021 0-.039.025-.039.056 0 .073-.574.612-.652.612-.033 0-.06.017-.06.037 0 .02-.036.037-.08.037-.043 0-.079.017-.079.037 0 .02-.035.037-.079.037-.043 0-.08.017-.08.038 0 .02-.07.037-.157.037-.088 0-.159.016-.159.037 0 .02-.089.037-.198.037-.108 0-.198.017-.198.037 0 .023-.171.037-.435.037s-.436-.014-.436-.037c0-.02-.045-.037-.1-.037-.13 0-.295-.155-.295-.277 0-.052-.018-.094-.04-.094-.025 0-.04-.31-.04-.854 0-.545.015-.854.04-.854s.04-.285.04-.78c0-.495.014-.78.04-.78.024 0 .039-.235.039-.63 0-.397.015-.632.04-.632.021 0 .039-.067.039-.149 0-.081.018-.148.04-.148.021 0 .04-.034.04-.074 0-.041.017-.075.039-.075.021 0 .04-.025.04-.057 0-.074.176-.24.255-.24.034 0 .061-.016.061-.037 0-.02.071-.037.158-.037.087 0 .159-.017.159-.037 0-.022.132-.037.316-.037.185 0 .317.015.317.037zm22.96 2.525c0 .023-.211.037-.554.037-.343 0-.555.014-.555.037 0 .02-.105.037-.237.037s-.238.017-.238.037c0 .02-.089.037-.198.037-.108 0-.197.017-.197.037 0 .02-.072.038-.159.038-.087 0-.158.016-.158.037 0 .02-.071.037-.158.037-.087 0-.159.017-.159.037 0 .02-.053.037-.118.037-.066 0-.12.017-.12.037 0 .02-.035.037-.078.037-.044 0-.08.017-.08.038 0 .02-.053.037-.118.037-.066 0-.12.016-.12.037 0 .02-.053.037-.118.037s-.119.017-.119.037c0 .02-.035.037-.079.037-.043 0-.079.017-.079.037 0 .02-.036.037-.08.037-.043 0-.078.017-.078.038 0 .02-.036.037-.08.037-.043 0-.079.016-.079.037 0 .02-.035.037-.079.037-.043 0-.079.017-.079.037 0 .02-.036.037-.08.037-.043 0-.078.017-.078.037 0 .02-.036.037-.08.037-.043 0-.079.017-.079.038 0 .02-.031.037-.07.037-.039 0-.096.033-.128.074-.031.04-.085.074-.118.074-.034 0-.088.034-.12.074-.03.041-.084.075-.118.075-.034 0-.087.033-.119.074-.031.04-.081.074-.111.074s-.105.05-.166.112c-.06.06-.131.111-.156.111-.026 0-.151.1-.28.223-.128.122-.252.223-.275.223-.056 0-.397.32-.397.372 0 .022-.107.139-.238.259-.13.12-.237.238-.237.261 0 .024-.054.09-.119.147-.065.057-.119.124-.119.149 0 .024-.053.091-.119.148-.065.057-.118.127-.118.155 0 .029-.036.076-.08.105-.043.03-.079.083-.079.12 0 .036-.017.066-.04.066-.021 0-.039.033-.039.074 0 .04-.018.074-.04.074-.021 0-.039.03-.039.066 0 .037-.036.09-.08.12-.043.03-.078.083-.078.12 0 .036-.018.066-.04.066-.022 0-.04.033-.04.074 0 .04-.017.074-.04.074-.02 0-.039.05-.039.112 0 .06-.018.11-.04.11-.021 0-.039.034-.039.075 0 .04-.018.074-.04.074-.021 0-.039.034-.039.075 0 .04-.018.074-.04.074-.021 0-.04.05-.04.111 0 .062-.017.112-.039.112-.021 0-.04.05-.04.111s-.017.111-.039.111-.04.067-.04.149c0 .082-.017.148-.04.148-.02 0-.039.067-.039.149 0 .082-.017.149-.04.149-.021 0-.039.083-.039.185s-.018.186-.04.186c-.022 0-.039.111-.039.26 0 .148-.017.26-.04.26-.025 0-.04.309-.04.854 0 .544.015.854.04.854.023 0 .04.11.04.26 0 .148.017.26.04.26.021 0 .04.083.04.185s.017.186.039.186.04.066.04.148c0 .082.017.149.039.149s.04.066.04.148c0 .082.017.149.04.149.02 0 .039.05.039.111s.018.111.04.111c.021 0 .039.05.039.112 0 .061.018.111.04.111.021 0 .039.034.039.074 0 .041.018.075.04.075.021 0 .04.05.04.111s.017.111.039.111c.021 0 .04.034.04.075 0 .04.017.074.039.074s.04.033.04.074c0 .041.017.075.04.075.02 0 .039.033.039.074 0 .04.017.074.04.074.021 0 .039.033.039.074 0 .041.018.075.04.075.021 0 .039.033.039.074 0 .04.018.074.04.074.021 0 .04.03.04.066 0 .036.035.09.078.12.044.03.08.08.08.111 0 .032.035.082.079.111.043.03.079.08.079.112s.036.082.08.111c.043.03.078.077.078.105 0 .028.054.098.119.155.065.057.119.123.119.145 0 .054 1.213 1.192 1.27 1.192.024 0 .094.05.155.111.06.061.135.111.165.111s.08.034.112.075c.031.04.085.074.119.074.034 0 .087.034.118.074.032.041.085.075.12.075.033 0 .087.033.118.074.031.04.089.074.128.074.038 0 .07.017.07.037 0 .02.035.037.08.037.043 0 .078.017.078.038 0 .02.036.037.08.037.043 0 .079.016.079.037 0 .02.035.037.079.037.043 0 .079.017.079.037 0 .02.036.037.08.037.043 0 .078.017.078.037 0 .02.054.037.12.037.064 0 .118.017.118.038 0 .02.035.037.079.037s.08.016.08.037c0 .02.053.037.118.037s.119.017.119.037c0 .02.053.037.118.037.066 0 .12.017.12.037 0 .02.07.037.158.037.087 0 .158.017.158.037 0 .02.053.038.119.038.065 0 .118.016.118.037 0 .02.09.037.198.037.11 0 .198.017.198.037 0 .02.106.037.238.037s.237.017.237.037c0 .023.159.037.396.037.238 0 .396.015.396.038s.277.037.752.037.752-.014.752-.037.159-.038.396-.038c.238 0 .396-.014.396-.037 0-.02.105-.037.237-.037s.238-.016.238-.037c0-.02.09-.037.198-.037.109 0 .198-.017.198-.037 0-.02.071-.037.158-.037.087 0 .159-.017.159-.038 0-.02.053-.037.118-.037.066 0 .12-.016.12-.037 0-.02.07-.037.157-.037s.159-.017.159-.037c0-.02.053-.037.118-.037.066 0 .12-.017.12-.037 0-.02.035-.037.078-.037.044 0 .08-.017.08-.037 0-.02.053-.038.118-.038.066 0 .12-.016.12-.037 0-.02.035-.037.078-.037.044 0 .08-.017.08-.037 0-.02.053-.037.118-.037.066 0 .119-.017.119-.037 0-.02.036-.037.08-.037.043 0 .078-.017.078-.037 0-.021.036-.038.08-.038.043 0 .079-.016.079-.037 0-.02.031-.037.07-.037.039 0 .096-.033.128-.074.031-.041.088-.074.127-.074.039 0 .07-.017.07-.038 0-.02.036-.037.08-.037.043 0 .079-.016.079-.037 0-.02.032-.037.07-.037.039 0 .096-.033.128-.074.031-.041.085-.075.119-.075.034 0 .087-.033.118-.074.032-.04.082-.074.112-.074s.104-.05.165-.111c.061-.062.133-.112.159-.112.026 0 .097-.05.158-.111s.13-.111.155-.111c.058 0 .558-.47.558-.523 0-.023.053-.089.118-.146.066-.057.12-.13.12-.163s.017-.06.039-.06.04-.033.04-.074c0-.04.017-.074.039-.074s.04-.034.04-.074c0-.041.017-.075.04-.075.02 0 .039-.033.039-.074 0-.04.018-.074.04-.074.021 0 .039-.067.039-.149 0-.081.018-.148.04-.148.023 0 .039-.124.039-.297 0-.174-.017-.297-.04-.297-.021 0-.04-.05-.04-.112 0-.06-.017-.111-.039-.111-.021 0-.04-.05-.04-.111 0-.062-.017-.112-.039-.112s-.04-.027-.04-.06c0-.032-.053-.105-.118-.163-.066-.057-.119-.123-.119-.146 0-.062-.265-.3-.335-.3-.034 0-.06-.016-.06-.036 0-.02-.037-.037-.08-.037-.044 0-.08-.017-.08-.038 0-.02-.118-.037-.276-.037-.159 0-.277.016-.277.037 0 .02-.05.038-.11.038a.222.222 0 00-.168.074c-.03.04-.088.074-.127.074-.039 0-.07.017-.07.037 0 .02-.032.037-.07.037-.04 0-.097.034-.128.075-.032.04-.085.074-.12.074-.033 0-.087.033-.118.074-.031.041-.089.074-.127.074-.04 0-.07.017-.07.038 0 .02-.036.037-.08.037-.043 0-.08.016-.08.037 0 .02-.035.037-.078.037-.044 0-.08.017-.08.037 0 .02-.035.037-.079.037-.043 0-.079.017-.079.037 0 .02-.053.038-.119.038-.065 0-.118.016-.118.037 0 .02-.054.037-.12.037-.064 0-.118.016-.118.037 0 .02-.053.037-.119.037-.065 0-.118.017-.118.037 0 .02-.054.037-.12.037-.065 0-.118.017-.118.037 0 .02-.071.038-.158.038-.087 0-.159.016-.159.037 0 .02-.089.037-.197.037-.11 0-.198.017-.198.037 0 .023-.238.037-.634.037s-.633-.014-.633-.037c0-.02-.09-.037-.198-.037-.109 0-.198-.017-.198-.037 0-.02-.053-.037-.119-.037-.065 0-.119-.017-.119-.038 0-.02-.035-.037-.079-.037-.043 0-.079-.017-.079-.037 0-.02-.053-.037-.119-.037-.065 0-.118-.017-.118-.037 0-.02-.032-.037-.07-.037-.04 0-.097-.034-.128-.075-.032-.04-.09-.074-.128-.074-.039 0-.07-.017-.07-.037 0-.02-.029-.037-.064-.037-.034 0-.113-.05-.174-.111-.06-.062-.13-.112-.155-.112-.062 0-.716-.62-.716-.678 0-.026-.035-.072-.079-.101-.043-.03-.079-.08-.079-.112s-.036-.082-.08-.111c-.043-.03-.078-.083-.078-.12 0-.036-.018-.066-.04-.066-.022 0-.04-.05-.04-.111 0-.062-.017-.112-.04-.112s-.039-.143-.039-.355c0-.366.036-.461.176-.461.034 0 .062-.017.062-.038 0-.024 1.412-.037 4.156-.037 2.745 0 4.157-.012 4.157-.037 0-.02.05-.037.11-.037.064 0 .133-.03.167-.074.031-.041.08-.075.109-.075.068 0 .326-.242.326-.306 0-.027.036-.072.08-.102.043-.03.079-.083.079-.12 0-.036.017-.066.04-.066.021 0 .039-.033.039-.074 0-.04.018-.074.04-.074.021 0 .04-.05.04-.112 0-.06.017-.11.039-.11.021 0 .04-.051.04-.112 0-.062.017-.112.039-.112s.04-.111.04-.26c0-.148.016-.26.039-.26.024 0 .04-.148.04-.37 0-.224-.016-.372-.04-.372-.023 0-.04-.112-.04-.26 0-.149-.017-.26-.04-.26-.021 0-.039-.067-.039-.148 0-.082-.018-.149-.04-.149-.021 0-.039-.067-.039-.148 0-.082-.018-.149-.04-.149-.021 0-.04-.05-.04-.111 0-.062-.017-.112-.039-.112s-.04-.033-.04-.074c0-.04-.017-.074-.039-.074s-.04-.034-.04-.074c0-.041-.017-.075-.039-.075s-.04-.05-.04-.111-.017-.111-.04-.111c-.021 0-.039-.03-.039-.067 0-.036-.035-.09-.079-.12-.044-.029-.08-.082-.08-.119 0-.036-.017-.066-.039-.066-.021 0-.04-.033-.04-.074 0-.04-.017-.074-.039-.074s-.04-.03-.04-.066c0-.037-.035-.09-.079-.12-.043-.03-.079-.077-.079-.105 0-.028-.053-.098-.119-.155-.065-.057-.118-.124-.118-.148 0-.024-.072-.108-.159-.186-.087-.079-.158-.161-.158-.183 0-.053-.659-.671-.715-.671-.024 0-.112-.067-.196-.148-.083-.082-.173-.149-.198-.149-.026 0-.097-.05-.158-.111-.06-.062-.135-.112-.165-.112s-.08-.033-.112-.074c-.031-.04-.089-.074-.127-.074-.04 0-.07-.017-.07-.037 0-.02-.033-.038-.071-.038-.039 0-.096-.033-.128-.074-.031-.04-.088-.074-.127-.074-.039 0-.07-.017-.07-.037 0-.02-.036-.037-.08-.037-.043 0-.079-.017-.079-.037 0-.02-.036-.038-.08-.038-.043 0-.078-.016-.078-.037 0-.02-.036-.037-.08-.037-.043 0-.079-.017-.079-.037 0-.02-.053-.037-.119-.037-.065 0-.118-.017-.118-.037 0-.02-.036-.037-.08-.037-.043 0-.079-.017-.079-.037 0-.02-.053-.038-.118-.038-.066 0-.12-.016-.12-.037 0-.02-.053-.037-.118-.037s-.119-.017-.119-.037c0-.02-.053-.037-.118-.037-.066 0-.12-.017-.12-.037 0-.02-.07-.037-.157-.037s-.159-.017-.159-.038c0-.02-.089-.037-.198-.037-.109 0-.198-.016-.198-.037 0-.02-.105-.037-.237-.037s-.238-.016-.238-.037c0-.023-.224-.037-.593-.037-.37 0-.594-.014-.594-.037 0-.02-.09-.037-.198-.037-.11 0-.198.016-.198.037zm54.866 0c0 .023-.211.037-.554.037-.343 0-.555.014-.555.037 0 .021-.118.037-.277.037-.158 0-.277.016-.277.037 0 .02-.071.037-.158.037-.087 0-.158.017-.158.037 0 .02-.072.038-.159.038-.087 0-.158.016-.158.037 0 .02-.071.037-.158.037-.087 0-.159.017-.159.037 0 .02-.053.037-.119.037-.065 0-.118.017-.118.037 0 .02-.054.037-.119.037s-.119.017-.119.038c0 .02-.035.037-.079.037s-.08.016-.08.037c0 .02-.053.037-.118.037s-.119.017-.119.037c0 .02-.035.037-.079.037-.043 0-.079.017-.079.037 0 .02-.036.037-.08.037-.043 0-.078.017-.078.038 0 .02-.05.037-.11.037a.222.222 0 00-.167.074c-.032.04-.09.074-.128.074-.039 0-.07.017-.07.037 0 .02-.036.037-.08.037-.043 0-.079.017-.079.038 0 .02-.035.037-.079.037-.043 0-.08.016-.08.037 0 .02-.03.037-.07.037-.038 0-.096.033-.127.074-.031.041-.085.074-.119.074-.034 0-.087.034-.118.075-.032.04-.082.074-.112.074s-.105.05-.166.111c-.06.062-.132.112-.157.112-.026 0-.115.067-.199.148-.084.082-.171.149-.195.149-.056 0-.953.84-.953.893 0 .023-.071.105-.158.184-.087.078-.159.162-.159.186 0 .024-.053.09-.118.148-.066.057-.12.127-.12.155 0 .028-.035.075-.078.105-.044.029-.08.08-.08.111 0 .032-.035.082-.079.111-.043.03-.079.084-.079.12 0 .036-.018.066-.04.066-.021 0-.039.033-.039.074 0 .041-.018.075-.04.075-.021 0-.04.033-.04.074 0 .04-.017.074-.039.074s-.04.034-.04.074c0 .041-.017.075-.039.075s-.04.033-.04.074c0 .04-.017.074-.039.074s-.04.034-.04.074c0 .041-.017.075-.04.075-.021 0-.039.033-.039.074 0 .04-.018.074-.04.074-.021 0-.039.034-.039.074 0 .041-.018.075-.04.075-.021 0-.04.05-.04.111s-.017.111-.039.111-.04.05-.04.112c0 .061-.017.111-.039.111s-.04.05-.04.111c0 .062-.017.112-.04.112-.02 0-.039.067-.039.148 0 .082-.017.149-.04.149-.021 0-.039.084-.039.186s-.018.185-.04.185c-.021 0-.039.1-.039.223 0 .124-.018.223-.04.223-.025 0-.04.383-.04 1.077 0 .693.015 1.076.04 1.076.022 0 .04.1.04.223 0 .124.018.223.04.223.021 0 .04.083.04.185s.017.186.039.186.04.067.04.149c0 .081.017.148.039.148s.04.05.04.111c0 .062.017.112.04.112.02 0 .039.05.039.111 0 .062.017.112.04.112.021 0 .039.05.039.111s.018.111.04.111c.021 0 .039.034.039.075 0 .04.018.074.04.074.021 0 .04.033.04.074 0 .041.017.075.039.075s.04.05.04.11c0 .062.017.112.039.112s.04.034.04.075c0 .04.017.074.04.074.02 0 .039.033.039.074 0 .04.017.074.04.074.021 0 .039.03.039.066 0 .037.035.09.08.12.043.03.078.083.078.12 0 .036.018.066.04.066.022 0 .04.03.04.066 0 .036.035.09.079.12.043.029.079.079.079.11 0 .032.035.082.079.112.043.03.08.08.08.111 0 .032.035.082.078.112.044.03.08.076.08.103 0 .028.088.131.197.23.11.1.198.2.198.222 0 .052.739.744.795.744.023 0 .111.067.195.149.084.081.176.148.206.148s.08.034.11.075c.032.04.085.074.12.074.033 0 .087.033.118.074.032.04.085.074.119.074.034 0 .087.034.119.075.031.04.088.074.127.074.039 0 .07.017.07.037 0 .02.036.037.08.037.043 0 .079.017.079.037 0 .02.036.037.08.037.043 0 .078.017.078.038 0 .02.036.037.08.037.043 0 .079.016.079.037 0 .02.035.037.079.037.043 0 .079.017.079.037 0 .02.036.037.08.037.043 0 .078.017.078.037 0 .02.036.037.08.037.043 0 .079.017.079.038 0 .02.053.037.118.037.066 0 .12.016.12.037 0 .02.053.037.118.037s.119.017.119.037c0 .02.053.037.118.037.066 0 .12.017.12.037 0 .02.053.037.118.037s.119.017.119.037c0 .02.071.038.158.038.087 0 .158.016.158.037 0 .02.09.037.198.037.11 0 .198.017.198.037 0 .02.106.037.238.037s.237.017.237.037c0 .023.159.037.396.037.238 0 .396.015.396.038s.264.037.713.037c.448 0 .712-.014.712-.037s.172-.038.436-.038c.263 0 .435-.014.435-.037 0-.02.106-.037.237-.037.132 0 .238-.016.238-.037 0-.02.09-.037.198-.037.109 0 .198-.017.198-.037 0-.02.071-.037.158-.037.087 0 .159-.017.159-.038 0-.02.053-.037.118-.037.066 0 .12-.016.12-.037 0-.02.052-.037.118-.037.065 0 .119-.017.119-.037 0-.02.053-.037.118-.037.066 0 .12-.017.12-.037 0-.02.052-.037.118-.037.065 0 .119-.017.119-.037 0-.02.053-.038.118-.038.066 0 .12-.016.12-.037 0-.02.035-.037.078-.037.044 0 .08-.017.08-.037 0-.02.035-.037.079-.037.043 0 .079-.017.079-.037 0-.02.035-.037.079-.037.043 0 .08-.017.08-.037 0-.021.035-.038.078-.038.044 0 .08-.016.08-.037 0-.02.035-.037.079-.037.043 0 .079-.017.079-.037 0-.02.035-.037.079-.037s.08-.017.08-.037c0-.02.03-.037.07-.037.038 0 .096-.034.127-.075.032-.04.089-.074.128-.074.038 0 .07-.017.07-.037 0-.02.032-.037.07-.037.04 0 .097-.034.128-.075.031-.04.085-.074.119-.074.034 0 .087-.033.118-.074.032-.04.082-.074.112-.074s.105-.05.166-.112c.06-.06.13-.111.154-.111.062 0 .954-.843.954-.901 0-.026.036-.072.08-.102.043-.029.078-.083.078-.12 0-.035.018-.065.04-.065.022 0 .04-.034.04-.074 0-.041.017-.075.04-.075.02 0 .039-.05.039-.111s.017-.111.04-.111c.024 0 .039-.186.039-.483s-.015-.483-.04-.483c-.022 0-.04-.05-.04-.111s-.017-.111-.039-.111-.04-.034-.04-.075c0-.04-.017-.074-.04-.074-.02 0-.039-.025-.039-.056 0-.074-.574-.612-.652-.612-.033 0-.06-.017-.06-.038 0-.02-.119-.037-.277-.037-.159 0-.277.016-.277.037 0 .02-.054.038-.12.038-.064 0-.118.016-.118.037 0 .02-.032.037-.07.037-.04 0-.096.033-.128.074-.031.041-.085.074-.119.074-.033 0-.087.034-.118.075-.032.04-.09.074-.128.074-.039 0-.07.017-.07.037 0 .02-.032.037-.07.037-.04 0-.097.034-.128.074-.032.041-.089.075-.128.075-.038 0-.07.016-.07.037 0 .02-.036.037-.08.037-.043 0-.079.017-.079.037 0 .02-.053.037-.118.037-.066 0-.119.017-.119.037 0 .02-.036.038-.08.038-.043 0-.078.016-.078.037 0 .02-.054.037-.12.037-.064 0-.118.016-.118.037 0 .02-.053.037-.119.037-.065 0-.118.017-.118.037 0 .02-.054.037-.12.037-.065 0-.118.017-.118.037 0 .02-.071.038-.158.038-.087 0-.159.016-.159.037 0 .02-.105.037-.237.037s-.238.016-.238.037c0 .023-.237.037-.633.037s-.633-.014-.633-.037c0-.02-.072-.037-.159-.037-.087 0-.158-.017-.158-.037 0-.02-.053-.037-.119-.037-.065 0-.119-.017-.119-.038 0-.02-.053-.037-.118-.037-.066 0-.12-.017-.12-.037 0-.02-.035-.037-.078-.037-.044 0-.08-.017-.08-.037 0-.02-.035-.037-.079-.037-.043 0-.079-.017-.079-.037 0-.02-.032-.037-.07-.037-.039 0-.096-.034-.128-.075-.031-.04-.085-.074-.118-.074-.034 0-.088-.034-.12-.074-.03-.041-.08-.075-.107-.075-.072 0-.961-.84-.961-.909 0-.03-.018-.056-.04-.056-.021 0-.04-.033-.04-.074 0-.041-.017-.074-.039-.074s-.04-.034-.04-.075c0-.04-.017-.074-.039-.074s-.04-.033-.04-.074c0-.041-.017-.075-.04-.075-.02 0-.039-.066-.039-.148 0-.082-.017-.149-.04-.149-.021 0-.039-.083-.039-.185s.018-.186.04-.186c.021 0 .04-.026.04-.058 0-.075.095-.164.175-.164.034 0 .062-.017.062-.038 0-.024 1.412-.037 4.156-.037 2.745 0 4.157-.012 4.157-.037 0-.02.035-.037.079-.037s.08-.017.08-.037c0-.02.026-.037.06-.037.078 0 .573-.465.573-.538 0-.031.017-.056.04-.056.02 0 .039-.034.039-.075 0-.04.017-.074.04-.074.021 0 .039-.033.039-.074 0-.041.018-.074.04-.074.021 0 .04-.05.04-.112 0-.061.017-.111.039-.111.021 0 .04-.067.04-.149 0-.081.017-.148.039-.148.025 0 .04-.272.04-.743 0-.47-.015-.742-.04-.742-.022 0-.04-.084-.04-.186s-.018-.186-.04-.186c-.021 0-.039-.05-.039-.111s-.018-.111-.04-.111c-.021 0-.04-.067-.04-.149 0-.082-.017-.148-.039-.148s-.04-.034-.04-.075c0-.04-.017-.074-.039-.074s-.04-.05-.04-.111c0-.062-.017-.112-.039-.112s-.04-.033-.04-.074c0-.04-.017-.074-.04-.074-.021 0-.039-.034-.039-.075 0-.04-.018-.074-.04-.074-.021 0-.039-.033-.039-.074 0-.04-.018-.074-.04-.074-.021 0-.04-.03-.04-.066 0-.037-.035-.09-.078-.12-.044-.03-.08-.083-.08-.12 0-.036-.017-.066-.04-.066-.02 0-.039-.03-.039-.066 0-.036-.035-.09-.079-.12-.043-.029-.079-.076-.079-.104 0-.028-.053-.098-.119-.155-.065-.057-.118-.123-.118-.145 0-.054-1.214-1.192-1.27-1.192-.025 0-.095-.05-.156-.111-.06-.061-.135-.112-.165-.112s-.08-.033-.112-.074c-.031-.04-.085-.074-.119-.074-.033 0-.087-.033-.118-.074-.032-.041-.089-.075-.128-.075-.038 0-.07-.016-.07-.037 0-.02-.036-.037-.08-.037-.043 0-.079-.017-.079-.037 0-.02-.031-.037-.07-.037-.039 0-.096-.033-.127-.074a.222.222 0 00-.167-.075c-.061 0-.11-.016-.11-.037 0-.02-.036-.037-.08-.037-.043 0-.079-.017-.079-.037 0-.02-.035-.037-.079-.037s-.08-.017-.08-.037c0-.02-.053-.037-.118-.037s-.119-.017-.119-.037c0-.02-.035-.038-.079-.038-.043 0-.08-.016-.08-.037 0-.02-.052-.037-.118-.037-.065 0-.119-.017-.119-.037 0-.02-.07-.037-.158-.037-.087 0-.158-.017-.158-.037 0-.02-.072-.037-.159-.037-.087 0-.158-.017-.158-.038 0-.02-.071-.037-.158-.037-.087 0-.159-.016-.159-.037 0-.021-.118-.037-.277-.037-.158 0-.277-.016-.277-.037 0-.023-.211-.037-.554-.037-.343 0-.554-.014-.554-.037 0-.02-.09-.037-.198-.037-.109 0-.198.016-.198.037zm16.388.148c0 .022-.131.037-.316.037s-.317.016-.317.037c0 .021-.106.038-.237.038-.132 0-.238.016-.238.037 0 .02-.089.037-.198.037-.109 0-.198.017-.198.037 0 .02-.071.037-.158.037-.087 0-.159.017-.159.037 0 .02-.071.037-.158.037-.087 0-.158.017-.158.038 0 .02-.071.037-.159.037-.087 0-.158.016-.158.037 0 .02-.071.037-.158.037-.087 0-.159.017-.159.037 0 .02-.053.037-.118.037-.066 0-.119.017-.119.037 0 .02-.054.037-.119.037s-.119.017-.119.038c0 .02-.071.037-.158.037-.087 0-.158.016-.158.037 0 .02-.054.037-.119.037s-.119.017-.119.037c0 .02-.053.037-.119.037-.065 0-.118.017-.118.037 0 .02-.054.037-.119.037s-.119.017-.119.038c0 .02-.053.037-.119.037-.065 0-.118.016-.118.037 0 .02-.054.037-.119.037s-.119.017-.119.037c0 .02-.053.037-.119.037-.065 0-.118.017-.118.037 0 .02-.054.037-.119.037s-.119.017-.119.038c0 .02-.053.037-.119.037-.065 0-.118.016-.118.037 0 .02-.036.037-.08.037-.043 0-.079.017-.079.037 0 .02-.053.037-.119.037-.065 0-.118.017-.118.037 0 .02-.036.038-.08.038-.043 0-.079.016-.079.037 0 .02-.035.037-.079.037-.043 0-.079.016-.079.037 0 .02-.032.037-.07.037-.04 0-.097.033-.128.074-.031.041-.08.075-.108.075-.072 0-.644.543-.644.612 0 .03-.018.056-.04.056-.021 0-.04.05-.04.111 0 .062-.017.112-.039.112-.023 0-.04.136-.04.334s.017.334.04.334c.022 0 .04.033.04.074 0 .041.018.074.04.074.021 0 .039.026.039.057 0 .066.252.315.319.315.024 0 .112.067.196.148.083.082.172.149.197.149.06 0 .159.094.159.15 0 .023.053.09.119.147.065.057.118.13.118.163s.018.06.04.06c.022 0 .04.033.04.074 0 .04.017.074.04.074.02 0 .039.067.039.149 0 .081.018.148.04.148.022 0 .039.124.039.297s.016.297.039.297c.026 0 .04.594.04 1.708 0 1.114-.014 1.708-.04 1.708-.024 0-.04.235-.04.631s-.014.631-.039.631c-.024 0-.04.161-.04.409 0 .247-.015.408-.039.408-.022 0-.04.067-.04.149 0 .081-.017.148-.039.148s-.04.05-.04.112c0 .06-.017.111-.04.111-.021 0-.039.05-.039.111 0 .062-.018.112-.04.112-.021 0-.039.033-.039.074 0 .04-.018.074-.04.074-.021 0-.04.027-.04.06 0 .032-.053.106-.118.163-.065.057-.119.123-.119.146 0 .053-.26.3-.316.3-.06 0-.555.472-.555.53 0 .026-.035.071-.079.1a.198.198 0 00-.079.158c0 .056-.018.103-.04.103-.022 0-.039.111-.039.26 0 .148.017.26.04.26.021 0 .04.05.04.11 0 .062.017.112.039.112s.04.026.04.057c0 .073.415.463.493.463.033 0 .06.017.06.037 0 .02.036.037.08.037.043 0 .079.017.079.038 0 .02.035.037.079.037s.08.016.08.037c0 .02.053.037.118.037s.119.017.119.037c0 .02.053.037.118.037.066 0 .12.017.12.037 0 .02.088.037.197.037.109 0 .198.017.198.037 0 .021.106.038.238.038s.237.016.237.037c0 .022.145.037.356.037s.357.015.357.037c0 .024.58.037 1.662.037 1.082 0 1.663-.013 1.663-.037 0-.022.145-.037.356-.037s.356-.015.356-.037c0-.02.106-.037.238-.037s.237-.017.237-.038c0-.02.09-.037.198-.037.109 0 .198-.016.198-.037 0-.02.072-.037.159-.037.087 0 .158-.017.158-.037 0-.02.071-.037.158-.037.087 0 .159-.017.159-.037 0-.02.053-.037.118-.037.066 0 .119-.017.119-.037 0-.02.036-.038.079-.038.044 0 .08-.016.08-.037 0-.02.049-.037.11-.037.064 0 .133-.03.167-.074.031-.041.08-.074.108-.074.072 0 .485-.395.485-.464 0-.03.018-.056.04-.056.022 0 .04-.05.04-.112 0-.06.017-.111.039-.111.024 0 .04-.136.04-.334s-.016-.334-.04-.334c-.022 0-.039-.05-.039-.112 0-.06-.018-.111-.04-.111-.022 0-.04-.05-.04-.111 0-.062-.017-.112-.039-.112s-.04-.033-.04-.074c0-.04-.018-.074-.039-.074-.022 0-.04-.034-.04-.075 0-.04-.018-.074-.04-.074-.021 0-.039-.033-.039-.074 0-.041-.018-.074-.04-.074-.021 0-.039-.034-.039-.075 0-.04-.018-.074-.04-.074-.022 0-.039-.033-.039-.074 0-.041-.018-.074-.04-.074-.022 0-.04-.05-.04-.112 0-.061-.017-.111-.039-.111s-.04-.05-.04-.112c0-.06-.018-.111-.039-.111-.024 0-.04-.136-.04-.334s-.016-.334-.04-.334c-.025 0-.039-.594-.039-1.708 0-1.114.014-1.708.039-1.708s.04-.21.04-.557c0-.347.015-.557.04-.557.023 0 .039-.136.039-.334s.016-.334.04-.334c.022 0 .039-.067.039-.149 0-.082.018-.148.04-.148.022 0 .04-.05.04-.112 0-.061.017-.111.039-.111s.04-.034.04-.074c0-.041.018-.075.039-.075.022 0 .04-.025.04-.056 0-.074.336-.39.415-.39.033 0 .06-.016.06-.036 0-.02.053-.037.119-.037.065 0 .118-.017.118-.037 0-.023.172-.038.436-.038s.435.015.435.038c0 .02.036.037.08.037.043 0 .079.016.079.037 0 .02.027.037.06.037.074 0 .415.313.415.38 0 .027.035.073.079.103a.2.2 0 01.079.156c0 .057.018.103.04.103.021 0 .039.034.039.075 0 .04.018.074.04.074.022 0 .039.067.039.148 0 .082.018.149.04.149.022 0 .04.067.04.149 0 .081.017.148.039.148.024 0 .04.136.04.334s.016.334.039.334c.026 0 .04.396.04 1.114 0 .718-.014 1.114-.04 1.114-.025 0-.039.297-.039.817s-.015.817-.04.817c-.024 0-.039.16-.039.408 0 .248-.016.409-.04.409-.022 0-.04.083-.04.185s-.017.186-.039.186-.04.033-.04.074c0 .04-.018.074-.039.074-.022 0-.04.03-.04.066 0 .037-.036.09-.079.12-.044.03-.079.075-.079.102 0 .058-.257.306-.316.306-.061 0-.476.398-.476.456 0 .026-.036.072-.079.101-.044.03-.079.084-.079.12 0 .036-.018.066-.04.066-.024 0-.04.173-.04.445 0 .273.016.446.04.446.022 0 .04.034.04.074 0 .041.017.075.039.075s.04.025.04.056c0 .074.415.463.494.463.033 0 .06.017.06.038 0 .02.036.037.079.037.044 0 .079.016.079.037 0 .02.036.037.08.037.043 0 .079.017.079.037 0 .02.071.037.158.037.087 0 .158.017.158.037 0 .02.072.037.159.037.087 0 .158.017.158.037 0 .021.106.038.238.038s.237.016.237.037c0 .022.158.037.396.037.238 0 .396.015.396.037 0 .024.673.037 1.94.037 1.266 0 1.939-.013 1.939-.037 0-.022.132-.037.317-.037s.317-.016.317-.037c0-.02.105-.037.237-.037s.238-.017.238-.038c0-.02.089-.037.198-.037.108 0 .198-.016.198-.037 0-.02.053-.037.118-.037.066 0 .119-.017.119-.037 0-.02.053-.037.119-.037.065 0 .119-.017.119-.037 0-.02.053-.037.118-.037.066 0 .119-.017.119-.037 0-.02.036-.038.079-.038.044 0 .079-.016.079-.037 0-.02.036-.037.08-.037.043 0 .079-.017.079-.037 0-.02.027-.037.06-.037.078 0 .573-.464.573-.538 0-.03.018-.056.04-.056.021 0 .039-.034.039-.075 0-.04.018-.074.04-.074.022 0 .039-.082.039-.182 0-.11.02-.192.05-.204.04-.018.04-.026 0-.044-.031-.014-.05-.102-.05-.241 0-.122-.017-.22-.039-.22s-.04-.033-.04-.074c0-.04-.018-.074-.039-.074-.022 0-.04-.03-.04-.066 0-.037-.035-.09-.079-.12s-.079-.08-.079-.111c0-.032-.036-.082-.079-.112-.044-.03-.08-.083-.08-.12 0-.036-.017-.065-.039-.065s-.04-.034-.04-.075c0-.04-.018-.074-.039-.074-.022 0-.04-.033-.04-.074 0-.041-.018-.074-.039-.074-.022 0-.04-.034-.04-.075 0-.04-.018-.074-.04-.074-.021 0-.039-.033-.039-.074 0-.041-.018-.074-.04-.074-.022 0-.039-.05-.039-.112 0-.061-.018-.111-.04-.111-.022 0-.04-.084-.04-.186s-.017-.185-.039-.185c-.025 0-.04-.198-.04-.52s-.015-.52-.039-.52c-.026 0-.04-.668-.04-1.93 0-1.263.014-1.931.04-1.931.024 0 .039-.161.039-.409 0-.247.016-.408.04-.408.022 0 .039-.05.039-.112 0-.061.018-.111.04-.111.022 0 .04-.046.04-.103 0-.06.032-.126.079-.157.043-.03.079-.075.079-.102 0-.064.259-.306.326-.306.029 0 .078-.034.109-.075.032-.04.089-.074.128-.074.039 0 .07-.017.07-.037 0-.02.054-.037.119-.037s.119-.017.119-.037c0-.022.145-.037.356-.037s.356.015.356.037c0 .02.054.037.119.037s.119.017.119.037c0 .02.036.037.079.037.044 0 .079.017.079.037 0 .02.027.037.061.037.078 0 .414.316.414.39 0 .03.018.056.04.056.022 0 .039.033.039.074 0 .041.018.074.04.074.022 0 .04.05.04.112 0 .061.017.111.039.111s.04.05.04.111c0 .062.018.112.039.112.022 0 .04.099.04.223 0 .123.018.223.04.223.023 0 .039.136.039.334s.016.334.04.334c.025 0 .039.594.039 1.708 0 1.114-.014 1.708-.039 1.708-.024 0-.04.173-.04.445s-.015.446-.039.446c-.023 0-.04.111-.04.26 0 .148-.017.26-.04.26-.021 0-.039.066-.039.148 0 .082-.018.149-.04.149-.022 0-.039.05-.039.11 0 .062-.018.112-.04.112-.022 0-.04.034-.04.075 0 .04-.017.074-.039.074s-.04.03-.04.066c0 .036-.035.09-.079.12-.043.029-.079.08-.079.11 0 .033-.036.083-.079.112-.044.03-.079.077-.079.105 0 .028-.054.098-.119.155-.066.057-.119.13-.119.164 0 .032-.018.059-.04.059-.021 0-.039.033-.039.074 0 .041-.018.074-.04.074-.024 0-.039.161-.039.409 0 .247.015.408.039.408.022 0 .04.034.04.075 0 .04.018.074.039.074.022 0 .04.025.04.056 0 .07.334.39.406.39.028 0 .077.033.109.074.031.04.088.074.127.074.039 0 .071.017.071.037 0 .02.035.037.079.037.043 0 .079.017.079.037 0 .02.053.037.119.037.065 0 .118.017.118.038 0 .02.036.037.08.037.043 0 .079.016.079.037 0 .02.053.037.119.037.065 0 .118.017.118.037 0 .02.072.037.159.037.087 0 .158.017.158.037 0 .02.071.037.158.037.087 0 .159.017.159.037 0 .02.089.038.198.038.108 0 .198.016.198.037 0 .021.118.037.277.037.158 0 .277.016.277.037 0 .023.224.037.594.037.369 0 .593.014.593.037s.185.037.475.037c.291 0 .475-.014.475-.037s.238-.037.634-.037.633-.014.633-.037c0-.022.132-.037.317-.037s.317-.016.317-.037c0-.02.089-.037.197-.037.109 0 .198-.017.198-.038 0-.02.072-.037.159-.037.087 0 .158-.016.158-.037 0-.02.053-.037.119-.037.065 0 .119-.017.119-.037 0-.02.049-.037.11-.037.064 0 .133-.03.167-.074.031-.041.088-.075.127-.075.039 0 .071-.016.071-.037 0-.02.035-.037.079-.037.043 0 .079-.017.079-.037 0-.02.036-.037.079-.037.044 0 .079-.017.079-.037 0-.02.027-.037.061-.037.078 0 .493-.39.493-.464 0-.03.018-.056.04-.056.022 0 .04-.034.04-.075 0-.04.017-.074.039-.074s.04-.05.04-.111.018-.112.039-.112c.023 0 .04-.123.04-.296 0-.174-.017-.298-.04-.298-.021 0-.039-.033-.039-.074 0-.04-.018-.074-.04-.074-.022 0-.039-.03-.039-.066 0-.037-.036-.09-.08-.12-.043-.03-.079-.083-.079-.12 0-.036-.018-.065-.039-.065-.022 0-.04-.027-.04-.059s-.071-.123-.158-.201c-.087-.079-.159-.17-.159-.202s-.017-.058-.039-.058-.04-.034-.04-.074c0-.041-.018-.075-.039-.075-.022 0-.04-.033-.04-.074 0-.04-.018-.074-.039-.074-.022 0-.04-.034-.04-.074 0-.041-.018-.075-.04-.075-.021 0-.039-.05-.039-.111s-.018-.112-.04-.112c-.022 0-.039-.066-.039-.148 0-.082-.018-.148-.04-.148-.026 0-.04-.768-.04-2.228 0-1.46.014-2.228.04-2.228.026 0 .04-.557.04-1.596 0-1.04-.014-1.597-.04-1.597-.022 0-.04-.099-.04-.223s-.017-.223-.039-.223-.04-.083-.04-.185-.018-.186-.039-.186c-.022 0-.04-.05-.04-.111 0-.062-.018-.112-.04-.112-.021 0-.039-.05-.039-.111s-.018-.111-.04-.111c-.021 0-.039-.034-.039-.075 0-.04-.018-.074-.04-.074-.022 0-.039-.033-.039-.074 0-.041-.018-.074-.04-.074-.022 0-.04-.034-.04-.075 0-.04-.017-.074-.039-.074s-.04-.03-.04-.066c0-.036-.035-.09-.079-.12-.043-.029-.079-.075-.079-.101 0-.063-.815-.827-.882-.827-.028 0-.076-.033-.108-.074-.031-.04-.085-.074-.119-.074-.033 0-.087-.034-.118-.075-.032-.04-.089-.074-.128-.074-.038 0-.07-.017-.07-.037 0-.02-.036-.037-.079-.037-.044 0-.08-.017-.08-.037 0-.02-.035-.037-.079-.037-.043 0-.079-.017-.079-.037 0-.02-.053-.038-.119-.038-.065 0-.118-.016-.118-.037 0-.02-.054-.037-.119-.037s-.119-.017-.119-.037c0-.02-.053-.037-.119-.037-.065 0-.118-.017-.118-.037 0-.02-.072-.037-.159-.037-.087 0-.158-.017-.158-.038 0-.02-.119-.037-.277-.037-.159 0-.277-.016-.277-.037 0-.023-.291-.037-.792-.037-.501 0-.792.014-.792.037 0 .02-.105.037-.237.037s-.238.017-.238.037c0 .02-.089.038-.198.038-.109 0-.198.016-.198.037 0 .02-.053.037-.118.037-.066 0-.119.017-.119.037 0 .02-.054.037-.119.037s-.119.017-.119.037c0 .02-.053.037-.118.037-.066 0-.119.017-.119.038 0 .02-.054.037-.119.037s-.119.016-.119.037c0 .02-.035.037-.079.037-.043 0-.079.017-.079.037 0 .02-.036.037-.079.037-.044 0-.079.017-.079.037 0 .02-.036.037-.08.037-.043 0-.079.017-.079.038 0 .02-.031.037-.07.037-.039 0-.096.033-.128.074-.031.04-.088.074-.127.074-.039 0-.071.017-.071.037 0 .02-.031.037-.07.037-.039 0-.096.034-.128.075-.031.04-.081.074-.111.074s-.105.05-.166.111c-.061.062-.132.112-.157.112-.026 0-.115.067-.199.148-.084.082-.172.149-.196.149-.024 0-.221.167-.437.371-.217.204-.417.371-.445.371-.029 0-.078.034-.109.075-.094.122-.294.098-.457-.055-.076-.07-.137-.15-.137-.177 0-.027-.036-.073-.079-.103-.044-.029-.08-.083-.08-.12 0-.035-.017-.065-.039-.065s-.04-.03-.04-.066c0-.037-.035-.09-.079-.12s-.079-.08-.079-.111c0-.032-.036-.082-.079-.112-.044-.03-.079-.075-.079-.101 0-.063-.657-.678-.724-.678-.028 0-.076-.034-.108-.075-.031-.04-.085-.074-.119-.074-.033 0-.087-.033-.118-.074-.032-.04-.089-.074-.128-.074-.039 0-.07-.017-.07-.037 0-.02-.054-.038-.119-.038s-.119-.016-.119-.037c0-.02-.035-.037-.079-.037-.043 0-.079-.017-.079-.037 0-.02-.054-.037-.119-.037s-.119-.017-.119-.037c0-.02-.071-.037-.158-.037-.087 0-.158-.017-.158-.038 0-.02-.119-.037-.277-.037-.159 0-.277-.016-.277-.037 0-.023-.278-.037-.753-.037s-.752.014-.752.037c0 .021-.119.037-.277.037-.158 0-.277.016-.277.037 0 .02-.071.038-.158.038-.087 0-.159.016-.159.037 0 .02-.071.037-.158.037-.087 0-.158.017-.158.037 0 .02-.054.037-.119.037s-.119.017-.119.037c0 .02-.053.037-.119.037-.065 0-.118.017-.118.038 0 .02-.054.037-.119.037s-.119.016-.119.037c0 .02-.035.037-.079.037s-.079.017-.079.037c0 .02-.036.037-.079.037-.044 0-.08.017-.08.037 0 .02-.035.037-.079.037-.043 0-.079.017-.079.038 0 .02-.036.037-.079.037-.044 0-.079.016-.079.037 0 .02-.036.037-.079.037-.044 0-.08.017-.08.037 0 .02-.031.037-.07.037-.039 0-.096.034-.128.074-.031.041-.084.075-.118.075-.034 0-.088.033-.119.074-.031.04-.081.074-.111.074-.029 0-.122.067-.206.149-.083.081-.171.148-.195.148-.055 0-.794.692-.794.744 0 .056-.265.296-.327.296-.028 0-.077.033-.109.074-.031.041-.089.074-.127.074-.039 0-.071.017-.071.038 0 .02-.045.037-.1.037-.134 0-.375-.226-.375-.352 0-.052-.018-.094-.039-.094-.026 0-.04-.297-.04-.817s-.014-.817-.04-.817c-.021 0-.039-.05-.039-.111s-.018-.111-.04-.111c-.021 0-.039-.026-.039-.058 0-.074-.177-.24-.256-.24-.033 0-.061-.016-.061-.037 0-.02-.036-.037-.079-.037-.044 0-.079-.016-.079-.037 0-.023-.198-.037-.515-.037s-.515.014-.515.037zm-70.78 2.748c0 .02.072.037.16.037.086 0 .158.017.158.037 0 .02.031.037.07.037.039 0 .096.034.127.074.032.041.08.075.11.075.071 0 .405.32.405.389 0 .03.018.056.04.056.021 0 .04.034.04.074 0 .041.017.075.039.075s.04.033.04.074c0 .04.017.074.04.074.02 0 .039.034.039.075 0 .04.017.074.04.074.021 0 .039.099.039.223 0 .123.017.222.04.222.021 0 .039.067.039.149 0 .082-.018.148-.04.148-.021 0-.04.067-.04.149 0 .082-.017.148-.039.148-.021 0-.04.026-.04.057 0 .074-.256.315-.334.315-.034 0-.061.016-.061.037 0 .024-.475.037-1.346.037-.871 0-1.346-.013-1.346-.037 0-.02-.036-.037-.08-.037-.043 0-.078-.017-.078-.037 0-.02-.036-.038-.08-.038-.052 0-.079-.024-.079-.074 0-.04-.017-.074-.04-.074-.021 0-.039-.033-.039-.074 0-.041-.018-.075-.04-.075-.023 0-.04-.136-.04-.334s.017-.334.04-.334c.022 0 .04-.067.04-.149 0-.081.018-.148.04-.148.022 0 .04-.033.04-.074 0-.041.017-.075.039-.075s.04-.033.04-.074c0-.04.017-.074.039-.074s.04-.03.04-.066c0-.036.035-.09.079-.12.043-.03.079-.075.079-.102 0-.063.339-.38.406-.38.028 0 .077-.034.109-.075.031-.04.088-.074.127-.074.039 0 .07-.017.07-.037 0-.02.054-.037.12-.037.065 0 .118-.017.118-.037 0-.023.172-.037.436-.037.263 0 .435.014.435.037zm54.867 0c0 .02.053.037.119.037.065 0 .118.017.118.037 0 .02.036.037.08.037.043 0 .079.017.079.037 0 .02.027.037.06.037.078 0 .652.54.652.612 0 .031.018.057.04.057.022 0 .04.05.04.111s.017.111.04.111c.02 0 .039.05.039.112 0 .061.017.111.04.111s.039.161.039.409c0 .247-.016.408-.04.408-.022 0-.04.043-.04.095 0 .104-.159.276-.255.276-.033 0-.061.017-.061.037 0 .02-.036.038-.08.038-.043 0-.078.016-.078.037 0 .024-.462.037-1.307.037-.844 0-1.306-.013-1.306-.037 0-.02-.045-.037-.1-.037-.112 0-.296-.15-.296-.24 0-.032-.018-.057-.04-.057-.024 0-.04-.174-.04-.446s.016-.445.04-.445c.022 0 .04-.05.04-.112 0-.061.018-.111.04-.111.021 0 .04-.034.04-.075 0-.04.017-.074.039-.074s.04-.03.04-.066c0-.036.035-.09.079-.12.043-.029.079-.075.079-.101 0-.068.5-.53.573-.53.033 0 .06-.016.06-.037 0-.02.036-.037.08-.037.043 0 .078-.017.078-.037 0-.02.054-.037.12-.037.065 0 .118-.017.118-.037 0-.023.172-.037.435-.037.264 0 .436.014.436.037zM48.216 25.582c0 .02-.054.037-.12.037-.064 0-.118.017-.118.037 0 .02-.05.037-.11.037a.222.222 0 00-.167.074c-.031.041-.081.075-.11.075-.07 0-.167.091-.167.156 0 .027-.036.074-.08.104-.043.029-.078.083-.078.12 0 .035-.018.065-.04.065-.024 0-.04.161-.04.409 0 .247.016.408.04.408.022 0 .04.033.04.074 0 .041.017.075.04.075.02 0 .039.025.039.056 0 .07.254.315.326.315.029 0 .078.033.11.074.03.04.088.074.127.074.038 0 .07.017.07.037 0 .02.036.037.08.037.043 0 .078.017.078.038 0 .02.036.037.08.037.043 0 .079.017.079.037 0 .02.035.037.079.037.043 0 .08.017.08.037 0 .02.03.037.07.037.038 0 .096.034.127.075.031.04.089.074.127.074.04 0 .071.017.071.037 0 .02.027.037.06.037.08 0 .336.24.336.314 0 .032.018.057.04.057.021 0 .039.1.039.223 0 .124-.018.223-.04.223-.021 0-.04.026-.04.057 0 .09-.183.24-.294.24-.056 0-.101.017-.101.037 0 .023-.172.037-.435.037-.264 0-.436-.014-.436-.037 0-.02-.071-.037-.158-.037-.087 0-.159-.017-.159-.037 0-.02-.035-.037-.079-.037-.043 0-.079-.017-.079-.037 0-.02-.032-.038-.07-.038-.04 0-.096-.033-.128-.074-.031-.04-.07-.074-.088-.074-.017 0-.03.167-.03.371 0 .347.005.372.079.372.043 0 .079.016.079.037 0 .02.071.037.158.037.087 0 .158.016.158.037 0 .023.251.037.673.037.423 0 .673-.014.673-.037 0-.02.054-.037.12-.037.064 0 .118-.017.118-.037 0-.02.036-.037.079-.037.044 0 .08-.017.08-.038 0-.02.026-.037.06-.037.079 0 .335-.24.335-.314 0-.031.018-.057.04-.057.021 0 .04-.034.04-.074 0-.041.017-.075.039-.075.024 0 .04-.16.04-.408 0-.247-.016-.408-.04-.408-.022 0-.04-.03-.04-.066 0-.037-.035-.09-.079-.12s-.08-.076-.08-.103c0-.064-.178-.231-.246-.231-.029 0-.078-.034-.11-.075-.03-.04-.084-.074-.118-.074-.034 0-.087-.033-.119-.074-.031-.04-.089-.074-.127-.074-.04 0-.07-.017-.07-.037 0-.02-.037-.038-.08-.038-.044 0-.08-.016-.08-.037 0-.02-.035-.037-.078-.037-.044 0-.08-.017-.08-.037 0-.02-.035-.037-.079-.037-.043 0-.079-.017-.079-.037 0-.02-.036-.037-.08-.037-.043 0-.078-.017-.078-.037 0-.02-.028-.037-.06-.037-.08 0-.336-.241-.336-.315 0-.031-.018-.057-.04-.057-.022 0-.04-.099-.04-.223 0-.123.018-.222.04-.222.022 0 .04-.027.04-.059 0-.075.095-.164.175-.164.034 0 .062-.017.062-.037 0-.02.036-.037.08-.037.043 0 .079-.017.079-.037 0-.023.184-.038.475-.038.29 0 .475.015.475.038 0 .02.053.037.119.037.065 0 .118.016.118.037 0 .02.036.037.08.037.043 0 .079.017.079.037 0 .02.035.037.079.037.072 0 .079-.025.079-.281 0-.29-.044-.387-.175-.387-.035 0-.063-.017-.063-.037 0-.024-.25-.037-.672-.037-.423 0-.673.013-.673.037zm10.609 0c0 .02-.054.037-.12.037-.064 0-.118.017-.118.037 0 .02-.036.037-.08.037-.043 0-.078.017-.078.037 0 .02-.036.037-.08.037-.043 0-.079.017-.079.038 0 .02-.027.037-.06.037-.032 0-.21.141-.395.315-.185.173-.336.34-.336.37 0 .032-.018.057-.04.057-.022 0-.04.034-.04.074 0 .041-.017.075-.04.075-.02 0-.039.033-.039.074 0 .04-.017.074-.04.074-.021 0-.039.067-.039.149 0 .081-.018.148-.04.148-.022 0-.039.112-.039.26 0 .149-.017.26-.04.26-.021 0-.04.067-.04.148 0 .082.019.149.04.149.023 0 .04.124.04.297s.017.297.04.297c.021 0 .04.05.04.112 0 .06.017.11.039.11s.04.034.04.075c0 .041.017.074.039.074s.04.034.04.075c0 .04.017.074.04.074.02 0 .039.025.039.056 0 .069.492.538.564.538.028 0 .077.033.109.074a.222.222 0 00.167.075c.06 0 .11.016.11.037 0 .02.053.037.118.037.066 0 .12.016.12.037 0 .023.263.037.712.037.448 0 .712-.014.712-.037 0-.02.054-.037.12-.037.064 0 .118-.017.118-.037 0-.02.028-.037.062-.037.126 0 .175-.1.175-.35 0-.22-.008-.245-.079-.245-.043 0-.079.017-.079.038 0 .02-.053.037-.119.037-.065 0-.119.016-.119.037 0 .02-.053.037-.118.037-.066 0-.119.017-.119.037 0 .023-.198.037-.515.037-.316 0-.514-.014-.514-.037 0-.02-.054-.037-.119-.037s-.119-.017-.119-.037c0-.02-.027-.037-.06-.037-.078 0-.573-.465-.573-.538 0-.031-.018-.056-.04-.056-.022 0-.04-.034-.04-.075 0-.04-.017-.074-.039-.074s-.04-.05-.04-.111c0-.062-.017-.112-.039-.112-.025 0-.04-.21-.04-.557 0-.346.015-.556.04-.556.022 0 .04-.05.04-.112 0-.061.017-.111.04-.111.02 0 .039-.034.039-.075 0-.04.017-.074.04-.074.021 0 .039-.025.039-.056 0-.074.495-.538.573-.538.033 0 .06-.017.06-.037 0-.02.036-.037.08-.037.043 0 .079-.017.079-.037 0-.02.053-.037.118-.037.066 0 .12-.017.12-.037 0-.023.17-.038.435-.038.264 0 .435.015.435.038 0 .02.071.037.158.037.087 0 .159.016.159.037 0 .02.035.037.079.037.043 0 .079.017.079.037 0 .02.036.037.08.037.071 0 .078-.025.078-.281 0-.31-.043-.387-.215-.387-.056 0-.101-.017-.101-.037 0-.024-.264-.037-.713-.037-.448 0-.712.013-.712.037zm8.233 0c0 .02-.035.037-.079.037-.043 0-.079.017-.079.037 0 .02-.035.037-.08.037-.043 0-.078.017-.078.037 0 .02-.028.037-.061.037-.034 0-.105.041-.159.091-.086.081-.097.124-.097.372 0 .323.05.358.238.168.06-.06.135-.11.165-.11s.08-.034.112-.075c.031-.041.088-.074.127-.074.039 0 .07-.017.07-.037 0-.02.054-.038.12-.038.065 0 .118-.016.118-.037 0-.02.09-.037.198-.037.109 0 .198.017.198.037 0 .02.045.037.1.037.066 0 .16.057.277.166.143.134.177.192.177.297 0 .072.018.131.04.131.022 0 .04.05.04.112 0 .061-.018.111-.04.111-.022 0-.04.067-.04.149 0 .081-.018.148-.04.148-.021 0-.039.034-.039.075 0 .04-.018.074-.04.074-.021 0-.04.025-.04.056 0 .065-.49.538-.556.538-.025 0-.095.05-.156.111-.06.061-.132.112-.157.112-.026 0-.115.066-.199.148-.084.082-.172.149-.196.149-.062 0-.319.247-.319.306 0 .027-.035.073-.079.102-.043.03-.079.083-.079.12 0 .036-.018.066-.04.066-.021 0-.04.067-.04.148 0 .082-.017.149-.039.149-.023 0-.04.123-.04.297v.297h2.851v-.446H66.9v-.148c0-.082.018-.149.04-.149.022 0 .04-.025.04-.056 0-.065.49-.538.557-.538.024 0 .094-.05.155-.111.06-.062.132-.112.158-.112.026 0 .098-.05.159-.111.06-.061.13-.111.155-.111.067 0 .557-.473.557-.538 0-.031.018-.057.04-.057.021 0 .04-.033.04-.074 0-.04.017-.074.039-.074s.04-.05.04-.111c0-.062.017-.112.039-.112.024 0 .04-.173.04-.445 0-.273-.016-.446-.04-.446-.022 0-.04-.033-.04-.074 0-.041-.017-.074-.04-.074-.02 0-.039-.026-.039-.057 0-.074-.336-.389-.414-.389-.034 0-.06-.017-.06-.037 0-.02-.036-.037-.08-.037-.043 0-.08-.017-.08-.037 0-.023-.21-.037-.553-.037-.343 0-.555.014-.555.037zm3.721 0c0 .02-.035.037-.079.037-.043 0-.079.017-.079.037 0 .02-.027.037-.06.037-.078 0-.494.39-.494.463 0 .031-.018.057-.04.057-.021 0-.04.033-.04.074 0 .041-.017.074-.039.074-.021 0-.04.05-.04.112 0 .061-.017.111-.039.111s-.04.067-.04.149c0 .081-.017.148-.04.148s-.039.136-.039.334-.016.334-.04.334c-.022 0-.039.124-.039.297 0 .174.017.298.04.298s.04.123.04.297c0 .173.016.297.039.297.022 0 .04.067.04.148 0 .082.017.149.04.149.02 0 .039.05.039.111s.017.111.04.111c.021 0 .039.03.039.066 0 .037.035.09.079.12s.08.075.08.102c0 .068.26.306.334.306.034 0 .061.017.061.038 0 .02.036.037.08.037.043 0 .078.016.078.037 0 .023.185.037.475.037s.475-.014.475-.037c0-.02.047-.037.103-.037.064 0 .146-.043.214-.112.061-.06.14-.111.174-.111.035 0 .064-.03.064-.066 0-.036.035-.09.079-.12.043-.03.079-.083.079-.12 0-.036.018-.065.04-.065.021 0 .04-.034.04-.075 0-.04.017-.074.039-.074s.04-.033.04-.074c0-.04.017-.074.039-.074s.04-.067.04-.149c0-.081.017-.148.04-.148.021 0 .039-.1.039-.223 0-.124.017-.223.04-.223.024 0 .039-.21.039-.557 0-.346-.015-.557-.04-.557-.022 0-.04-.099-.04-.223 0-.123-.017-.222-.039-.222s-.04-.067-.04-.149c0-.081-.017-.148-.04-.148-.02 0-.039-.05-.039-.112 0-.061-.017-.111-.04-.111-.021 0-.039-.026-.039-.056 0-.099-.5-.538-.613-.538-.055 0-.1-.017-.1-.037 0-.023-.184-.037-.474-.037s-.475.014-.475.037zm3.484 0c0 .02-.035.037-.08.037-.043 0-.078.017-.078.037 0 .02-.027.037-.06.037-.08 0-.415.315-.415.389 0 .031-.018.057-.04.057-.022 0-.04.033-.04.074 0 .04-.017.074-.039.074s-.04.034-.04.074c0 .041-.017.075-.04.075-.021 0-.039.05-.039.111s-.018.111-.04.111c-.021 0-.039.084-.039.186s-.018.186-.04.186c-.025 0-.04.297-.04.816 0 .52.015.817.04.817.022 0 .04.067.04.149 0 .082.018.148.04.148.021 0 .04.05.04.112 0 .061.017.111.039.111s.04.034.04.074c0 .041.017.075.039.075s.04.03.04.066c0 .036.035.09.079.12.043.029.079.075.079.103 0 .065.097.156.166.156.03 0 .08.034.111.075.031.04.089.074.127.074.04 0 .07.016.07.037 0 .023.199.037.515.037.317 0 .515-.014.515-.037 0-.02.036-.037.08-.037.043 0 .078-.017.078-.037 0-.02.028-.037.061-.037.074 0 .335-.239.335-.307 0-.027.036-.073.08-.102.043-.03.079-.083.079-.12 0-.036.017-.066.04-.066.021 0 .039-.033.039-.074 0-.04.018-.074.04-.074.021 0 .039-.067.039-.149 0-.081.018-.148.04-.148.021 0 .04-.084.04-.186s.017-.185.039-.185c.025 0 .04-.273.04-.743s-.015-.743-.04-.743c-.022 0-.04-.083-.04-.185s-.018-.186-.04-.186c-.021 0-.039-.05-.039-.111s-.018-.112-.04-.112c-.021 0-.04-.033-.04-.074 0-.04-.017-.074-.039-.074s-.04-.034-.04-.074c0-.041-.017-.075-.039-.075s-.04-.025-.04-.057c0-.074-.256-.314-.335-.314-.033 0-.06-.017-.06-.037 0-.02-.036-.037-.08-.037-.043 0-.079-.017-.079-.037 0-.023-.198-.037-.514-.037-.317 0-.515.014-.515.037zm3.484 0c0 .02-.036.037-.08.037-.043 0-.079.017-.079.037 0 .02-.027.037-.06.037-.104 0-.494.395-.494.5 0 .052-.018.094-.04.094-.023 0-.04.149-.04.371 0 .223.017.372.04.372.022 0 .04.03.04.066 0 .036.036.09.08.12.043.029.078.075.078.103 0 .061.097.156.159.156.046 0 .158.09.158.128 0 .011-.032.02-.07.02-.039 0-.096.034-.128.075-.031.04-.08.074-.11.074-.07 0-.167.092-.167.157 0 .027-.035.074-.08.103-.043.03-.078.083-.078.12 0 .036-.018.066-.04.066-.022 0-.04.05-.04.111s-.017.112-.039.112c-.023 0-.04.123-.04.297 0 .173.017.297.04.297.022 0 .04.05.04.111s.017.111.04.111c.02 0 .039.034.039.075 0 .04.018.074.04.074.021 0 .039.026.039.057 0 .074.256.314.335.314.033 0 .06.017.06.037 0 .02.036.038.08.038.043 0 .08.016.08.037 0 .02.035.037.078.037.044 0 .08.016.08.037 0 .023.21.037.554.037.343 0 .554-.014.554-.037 0-.02.053-.037.119-.037.065 0 .118-.017.118-.037 0-.02.027-.037.06-.037.079 0 .495-.39.495-.464 0-.03.017-.056.04-.056.021 0 .039-.034.039-.075 0-.04.018-.074.04-.074.023 0 .039-.173.039-.445 0-.273-.016-.446-.04-.446-.021 0-.04-.033-.04-.074 0-.041-.017-.074-.039-.074s-.04-.026-.04-.057c0-.031-.097-.148-.216-.26-.12-.112-.244-.203-.277-.203-.093 0-.076-.028.137-.223.11-.1.198-.207.198-.239s.018-.058.04-.058c.022 0 .04-.034.04-.074 0-.041.017-.075.039-.075.023 0 .04-.123.04-.297 0-.173-.017-.297-.04-.297-.022 0-.04-.05-.04-.111s-.017-.111-.04-.111c-.02 0-.039-.026-.039-.057 0-.074-.336-.389-.414-.389-.034 0-.06-.017-.06-.037 0-.02-.054-.037-.12-.037-.065 0-.118-.017-.118-.037 0-.023-.185-.037-.475-.037s-.475.014-.475.037zm-26.919 2.19v2.154h.634v-4.307h-.634v2.153zm1.742 0v2.154h.554V28.18c0-1.139.014-1.745.04-1.745.022 0 .04.03.04.066 0 .036.035.09.079.12.043.029.079.079.079.11 0 .033.035.083.079.112.043.03.08.08.08.111 0 .032.035.082.078.112.044.03.08.083.08.12 0 .036.017.066.039.066s.04.03.04.066c0 .036.035.09.079.12.043.029.079.079.079.11 0 .032.036.082.08.112.043.03.078.08.078.111 0 .032.036.082.08.112.043.03.079.083.079.12 0 .036.018.065.04.065.021 0 .039.03.039.066 0 .037.035.09.079.12s.08.08.08.111c0 .032.035.082.078.112.044.03.08.08.08.111 0 .032.035.082.079.112.043.029.079.08.079.11 0 .033.035.083.079.112.044.03.08.084.08.12 0 .036.017.066.039.066s.04.03.04.066c0 .036.035.09.078.12.044.029.08.08.08.11 0 .033.035.083.079.112.043.03.079.08.079.112 0 .031.036.082.08.111.043.03.078.083.078.12 0 .059.043.066.396.066h.396v-4.307h-.633v1.708c0 1.114-.014 1.708-.04 1.708-.022 0-.04-.034-.04-.075 0-.04-.017-.074-.039-.074s-.04-.03-.04-.066c0-.036-.035-.09-.079-.12-.043-.029-.079-.08-.079-.11 0-.033-.036-.083-.08-.112-.043-.03-.078-.084-.078-.12 0-.036-.018-.066-.04-.066-.022 0-.04-.03-.04-.066 0-.036-.035-.09-.079-.12-.043-.029-.079-.08-.079-.111 0-.032-.035-.082-.079-.111-.044-.03-.08-.08-.08-.112 0-.031-.035-.082-.078-.111-.044-.03-.08-.083-.08-.12 0-.036-.017-.066-.04-.066-.02 0-.039-.03-.039-.066 0-.036-.035-.09-.079-.12-.043-.029-.079-.079-.079-.11 0-.033-.036-.083-.08-.112-.043-.03-.078-.08-.078-.112 0-.031-.036-.081-.08-.11-.043-.03-.079-.084-.079-.12 0-.037-.017-.067-.04-.067-.021 0-.039-.03-.039-.066 0-.036-.035-.09-.079-.12-.044-.029-.08-.079-.08-.11 0-.032-.035-.083-.078-.112-.044-.03-.08-.083-.08-.12 0-.036-.017-.066-.04-.066-.02 0-.039-.03-.039-.066 0-.036-.035-.09-.079-.12-.043-.029-.08-.075-.08-.103 0-.122-.107-.156-.491-.156h-.379v2.153zm8.867 0v2.154h2.534v-.52h-1.9v-1.411h1.662v-.52h-1.662V26.14h1.741v-.52h-2.375v2.153zm9.976-1.745c0 .02.027.037.06.037.079 0 .415.316.415.39 0 .03.018.056.04.056.021 0 .04.05.04.111 0 .062.017.112.039.112.021 0 .04.083.04.185s.017.186.039.186c.025 0 .04.26.04.705 0 .446-.015.706-.04.706-.022 0-.04.067-.04.148 0 .082-.018.149-.04.149-.021 0-.039.05-.039.111 0 .062-.018.112-.04.112-.021 0-.04.033-.04.074 0 .04-.017.074-.039.074-.021 0-.04.026-.04.058 0 .076-.095.165-.175.165-.034 0-.062.017-.062.037 0 .02-.035.037-.079.037s-.08.017-.08.037c0 .02-.088.038-.197.038-.109 0-.198-.017-.198-.038 0-.02-.027-.037-.06-.037-.079 0-.415-.315-.415-.389 0-.03-.018-.056-.04-.056-.021 0-.04-.05-.04-.112 0-.061-.017-.111-.039-.111s-.04-.1-.04-.223c0-.124-.017-.223-.039-.223-.024 0-.04-.21-.04-.557 0-.346.016-.556.04-.556.022 0 .04-.1.04-.223 0-.124.017-.223.04-.223.021 0 .039-.05.039-.111 0-.062.018-.112.04-.112.021 0 .039-.033.039-.074 0-.04.018-.074.04-.074.021 0 .04-.026.04-.058 0-.074.175-.24.255-.24.033 0 .06-.016.06-.037 0-.02.037-.037.08-.037.044 0 .08-.016.08-.037 0-.02.07-.037.158-.037.087 0 .158.017.158.037zm3.484 0c0 .02.035.037.079.037.043 0 .079.017.079.038 0 .02.028.037.062.037.076 0 .175.088.175.156 0 .027.036.074.08.103a.202.202 0 01.079.157c0 .057.018.103.04.103.021 0 .039.067.039.149 0 .082.018.148.04.148.025 0 .039.298.039.817 0 .52-.014.817-.04.817-.021 0-.04.067-.04.149 0 .081-.017.148-.039.148-.021 0-.04.05-.04.111 0 .062-.017.112-.039.112s-.04.025-.04.057c0 .093-.263.314-.374.314-.055 0-.1.017-.1.037 0 .02-.072.038-.159.038-.087 0-.158-.017-.158-.038 0-.02-.045-.037-.1-.037-.112 0-.375-.22-.375-.314 0-.032-.018-.057-.04-.057-.022 0-.04-.034-.04-.074 0-.041-.017-.075-.039-.075s-.04-.066-.04-.148c0-.082-.017-.149-.04-.149-.022 0-.039-.123-.039-.297 0-.173-.016-.297-.04-.297-.021 0-.039-.099-.039-.223 0-.123.018-.222.04-.222.023 0 .04-.136.04-.334s.015-.335.039-.335c.022 0 .04-.066.04-.148 0-.082.017-.149.039-.149s.04-.046.04-.103c0-.06.032-.125.079-.157.043-.029.079-.076.079-.103 0-.068.099-.156.175-.156.034 0 .062-.017.062-.037 0-.02.036-.038.08-.038.043 0 .079-.016.079-.037 0-.02.071-.037.158-.037.087 0 .159.017.159.037zm3.483 0c0 .02.045.037.1.037.112 0 .375.221.375.315 0 .031.018.057.04.057.022 0 .04.111.04.26 0 .148-.018.26-.04.26-.022 0-.04.025-.04.057 0 .074-.176.24-.255.24-.034 0-.062.016-.062.037 0 .02-.053.037-.118.037-.066 0-.12.016-.12.037 0 .02-.035.037-.078.037-.044 0-.08-.017-.08-.037 0-.02-.044-.037-.1-.037-.136 0-.454-.298-.454-.426 0-.052-.017-.094-.04-.094-.021 0-.039-.05-.039-.111 0-.062.018-.112.04-.112.021 0 .04-.046.04-.103 0-.06.032-.125.079-.157.043-.03.079-.083.079-.12 0-.04.03-.065.079-.065.043 0 .079-.017.079-.037 0-.02.036-.038.08-.038.043 0 .078-.016.078-.037 0-.02.072-.037.159-.037.087 0 .158.017.158.037zm.08 1.857c0 .02.044.037.1.037.111 0 .453.293.453.389 0 .03.018.056.04.056.023 0 .04.137.04.335 0 .197-.017.334-.04.334-.022 0-.04.025-.04.057 0 .074-.256.314-.335.314-.033 0-.06.017-.06.037 0 .02-.072.037-.159.037-.087 0-.158.017-.158.037 0 .02-.036.038-.08.038-.043 0-.079-.017-.079-.038 0-.02-.062-.037-.139-.037-.116 0-.175-.034-.356-.203-.18-.17-.217-.226-.217-.334 0-.072-.018-.131-.04-.131-.021 0-.04-.067-.04-.149 0-.081.019-.148.04-.148.022 0 .04-.047.04-.103 0-.06.033-.126.08-.157.043-.03.078-.076.078-.104 0-.068.1-.156.176-.156.034 0 .062-.017.062-.037 0-.02.035-.037.079-.037.043 0 .08-.017.08-.037 0-.021.105-.038.237-.038s.237.017.237.038z" fill="#E62A4C"/></svg>