<svg width="12" height="11" fill="none" xmlns="http://www.w3.org/2000/svg"><path d="M3.335 4.333a.833.833 0 100 1.667.833.833 0 000-1.667zm2.666 0a.833.833 0 100 1.667.833.833 0 000-1.667zm1.834.834a.833.833 0 111.666 0 .833.833 0 01-1.666 0z" fill="#000"/><path fill-rule="evenodd" clip-rule="evenodd" d="M8.735 1.062a33.718 33.718 0 00-5.4-.027l-.128.01A3.286 3.286 0 00.168 4.322V10a.5.5 0 00.737.44l2.607-1.4a.833.833 0 01.394-.1h5.985c.754 0 1.401-.54 1.536-1.282.275-1.505.296-3.045.065-4.557l-.069-.445a1.777 1.777 0 00-1.605-1.502l-1.083-.092zm-5.324.97a32.717 32.717 0 015.24.026l1.082.093c.357.03.647.301.702.656l.068.446c.215 1.402.195 2.83-.06 4.226a.562.562 0 01-.552.461H3.906c-.303 0-.6.075-.868.218l-1.87 1.006V4.322c0-1.196.922-2.19 2.114-2.28l.13-.01z" fill="#000"/></svg>