<svg width="14" height="14" fill="none" xmlns="http://www.w3.org/2000/svg"><path d="M8 5.5a.5.5 0 00-.5-.5h-4a.5.5 0 000 1h4a.5.5 0 00.5-.5zm-.667 2a.5.5 0 00-.5-.5H3.5a.5.5 0 000 1h3.333a.5.5 0 00.5-.5zM7.5 9a.5.5 0 010 1h-4a.5.5 0 110-1h4z" fill="#000"/><path fill-rule="evenodd" clip-rule="evenodd" d="M3 13.5h8.667c1.012 0 1.833-.82 1.833-1.833V8a.5.5 0 00-.5-.5h-2.167V2.295c0-.948-1.072-1.5-1.844-.949l-.117.083c-.52.372-1.225.37-1.748-.003a2.513 2.513 0 00-2.915 0 1.507 1.507 0 01-1.748.003l-.116-.083a1.167 1.167 0 00-1.845.95V11A2.5 2.5 0 003 13.5zM4.79 2.24a1.513 1.513 0 011.753 0c.868.62 2.04.625 2.91.003l.117-.083c.11-.079.263 0 .263.135v9.372c0 .3.072.583.2.833H3A1.5 1.5 0 011.5 11V2.295c0-.135.153-.214.264-.135l.116.083c.87.622 2.043.617 2.91-.003zm6.043 9.427V8.5H12.5v3.167a.833.833 0 01-1.667 0z" fill="#000"/></svg>