<svg width="22" height="22" fill="none" xmlns="http://www.w3.org/2000/svg"><path d="M11 9.438c.518 0 .938.42.938.937v6.25a.937.937 0 11-1.876 0v-6.25c0-.518.42-.938.938-.938zm0-2.188a1.25 1.25 0 100-2.5 1.25 1.25 0 000 2.5z" fill="#FFA630"/><path fill-rule="evenodd" clip-rule="evenodd" d="M.063 11C.063 4.96 4.958.062 11 .062 17.04.063 21.938 4.96 21.938 11c0 6.04-4.897 10.938-10.938 10.938C4.96 21.938.062 17.04.062 11zM11 1.937a9.063 9.063 0 100 18.126 9.063 9.063 0 000-18.125z" fill="#FFA630"/></svg>