<svg width="45" height="44" fill="none" xmlns="http://www.w3.org/2000/svg"><path fill-rule="evenodd" clip-rule="evenodd" d="M41.798 17.451c2.976 2.303 2.976 6.795 0 9.098A107.289 107.289 0 0112.05 42.797l-1.957.695c-3.745 1.33-7.7-1.204-8.207-5.07a127.468 127.468 0 010-32.845c.507-3.865 4.462-6.4 8.207-5.07l1.957.696A107.287 107.287 0 0141.8 17.451zm-2.754 5.538a1.251 1.251 0 000-1.979 102.79 102.79 0 00-28.5-15.566l-1.958-.696c-.975-.346-2.095.314-2.24 1.414a122.967 122.967 0 000 31.675c.145 1.1 1.265 1.76 2.24 1.414l1.957-.695A102.792 102.792 0 0039.044 22.99z" fill="#fff"/><path d="M39.044 21.01a1.251 1.251 0 010 1.98 102.792 102.792 0 01-28.5 15.566l-1.958.695c-.975.346-2.095-.313-2.24-1.414a122.967 122.967 0 010-31.675c.145-1.1 1.265-1.76 2.24-1.414l1.957.696A102.79 102.79 0 0139.044 21.01z" fill="#fff"/></svg>