<svg width="14" height="15" fill="none" xmlns="http://www.w3.org/2000/svg"><path fill-rule="evenodd" clip-rule="evenodd" d="M3.46 4.25a3.542 3.542 0 117.083 0 3.542 3.542 0 01-7.083 0zM7 1.958a2.292 2.292 0 100 4.584 2.292 2.292 0 000-4.583zm-3.332 8.334c-1.036 0-1.875.84-1.875 1.875v.99c0 .015.01.028.026.03 3.432.56 6.933.56 10.365 0a.03.03 0 00.026-.03v-.99c0-1.036-.84-1.875-1.875-1.875h-.284a.209.209 0 00-.065.01l-.721.236a7.29 7.29 0 01-4.527 0l-.721-.236a.209.209 0 00-.065-.01h-.284zM.543 12.167c0-1.726 1.4-3.125 3.125-3.125h.284c.154 0 .307.024.453.072l.721.235a6.042 6.042 0 003.75 0l.722-.235a1.45 1.45 0 01.453-.072h.284a3.125 3.125 0 013.125 3.125v.99a1.28 1.28 0 01-1.075 1.264 33.416 33.416 0 01-10.768 0 1.28 1.28 0 01-1.074-1.264v-.99z" fill="#000"/></svg>