<svg width="12" height="15" fill="none" xmlns="http://www.w3.org/2000/svg"><path fill-rule="evenodd" clip-rule="evenodd" d="M.348 5.905A5.525 5.525 0 015.855.833h.288a5.525 5.525 0 015.506 5.072 5.962 5.962 0 01-1.326 4.263l-3.196 3.908a1.458 1.458 0 01-2.257 0l-3.195-3.908A5.962 5.962 0 01.348 5.905zm5.507-4.072a4.525 4.525 0 00-4.51 4.154 4.962 4.962 0 001.104 3.548l3.195 3.908a.458.458 0 00.71 0l3.195-3.908a4.962 4.962 0 001.104-3.548 4.525 4.525 0 00-4.51-4.154h-.288z" fill="#000"/><path d="M6.665 10.667a.667.667 0 11-1.333 0 .667.667 0 011.333 0z" fill="#000"/><path fill-rule="evenodd" clip-rule="evenodd" d="M5.999 5.167c-.631 0-1.167.53-1.167 1.214a.5.5 0 11-1 0c0-1.21.957-2.214 2.167-2.214S8.165 5.17 8.165 6.38c0 .954-.592 1.776-1.434 2.085a.489.489 0 00-.191.122c-.039.042-.041.068-.041.079a.5.5 0 11-1 0c0-.616.495-.997.887-1.14.448-.164.78-.61.78-1.146 0-.684-.536-1.214-1.167-1.214z" fill="#000"/></svg>