<svg width="12" height="13" fill="none" xmlns="http://www.w3.org/2000/svg"><path fill-rule="evenodd" clip-rule="evenodd" d="M11.39 10.288a41.444 41.444 0 000-8.576A1.319 1.319 0 009.29.79L6.556 2.823a4.833 4.833 0 01-2.884.955H1.12a.833.833 0 00-.833.833V7.39c0 .46.373.833.833.833h.417l-.564 2.104a.5.5 0 00.272.582l2.454 1.144a.5.5 0 00.694-.323l.842-3.142a.503.503 0 00.016-.1c.465.16.906.392 1.306.69L9.29 11.21a1.32 1.32 0 002.099-.922zm-.995-8.473c.29 2.783.29 5.587 0 8.37a.319.319 0 01-.507.223L7.152 8.374a5.833 5.833 0 00-3.48-1.152H1.286V4.778h2.386a5.833 5.833 0 003.48-1.152l2.736-2.034a.319.319 0 01.507.223zM4.291 8.262a4.832 4.832 0 00-.619-.04H2.571l-.524 1.957 1.533.715.688-2.566a.504.504 0 01.023-.066z" fill="#000"/></svg>