<svg width="14" height="10" fill="none" xmlns="http://www.w3.org/2000/svg"><path fill-rule="evenodd" clip-rule="evenodd" d="M4.5 5a2.5 2.5 0 115 0 2.5 2.5 0 01-5 0zM7 3.5a1.5 1.5 0 100 3 1.5 1.5 0 000-3z" fill="#000"/><path fill-rule="evenodd" clip-rule="evenodd" d="M1.882 4.098C1.602 4.5 1.5 4.815 1.5 5c0 .185.103.5.382.902.27.39.672.812 1.18 1.201C4.08 7.885 5.476 8.5 7 8.5s2.92-.615 3.938-1.397a5.58 5.58 0 001.18-1.2c.28-.403.382-.718.382-.903 0-.185-.103-.5-.382-.902a5.58 5.58 0 00-1.18-1.201C9.92 2.115 8.524 1.5 7 1.5s-2.92.615-3.938 1.397c-.508.39-.91.811-1.18 1.2zm.57-1.995C3.607 1.218 5.212.5 7 .5c1.79 0 3.394.718 4.547 1.603a6.577 6.577 0 011.392 1.424c.328.473.561.991.561 1.473 0 .482-.233 1-.56 1.473-.338.485-.815.98-1.393 1.424C10.394 8.782 8.79 9.5 7 9.5c-1.79 0-3.394-.718-4.547-1.603A6.574 6.574 0 011.06 6.473C.733 6 .5 5.482.5 5c0-.482.233-1 .56-1.473.338-.485.815-.98 1.393-1.424z" fill="#000"/></svg>