<svg width="20" height="20" fill="none" xmlns="http://www.w3.org/2000/svg"><path fill-rule="evenodd" clip-rule="evenodd" d="M4.823 11.683a.622.622 0 00.11.027 329.382 329.382 0 01.704 1.668c.419 1.002.84 2.034.934 2.33.116.365.238.613.37.782a.946.946 0 00.242.223.73.73 0 00.156.073c.266.1.51.059.662.007a1.09 1.09 0 00.254-.124l.003-.003 2.356-1.469 2.72 2.086c.04.03.084.057.13.077.327.142.644.192.941.152a1.45 1.45 0 00.71-.306 1.658 1.658 0 00.469-.607l.008-.019.003-.007v-.003l.002-.001v-.002a.624.624 0 00.033-.11l2.483-12.521a.628.628 0 00.012-.122c0-.366-.138-.715-.463-.927-.277-.18-.587-.188-.782-.174a2.412 2.412 0 00-.703.169l-.05.02-.01.004L2.19 8.369l-.001.001a1.577 1.577 0 00-.14.057 2.101 2.101 0 00-.316.177c-.19.13-.624.485-.551 1.07.058.469.379.756.574.894a1.936 1.936 0 00.42.223l.008.003 2.64.89zm11.782-7.626h-.002a.56.56 0 01-.02.01L2.636 9.536a.63.63 0 01-.022.008l-.008.003a.862.862 0 00-.076.034.724.724 0 00.072.035l2.619.881a.624.624 0 01.134.064L14.003 5.5l.008-.005a1.658 1.658 0 01.103-.056c.06-.031.156-.076.264-.11a.901.901 0 01.538-.012.712.712 0 01.49.575.7.7 0 01.002.353c-.057.23-.218.408-.364.544a1499.4 1499.4 0 00-3.346 3.223l-2.177 2.101-.387.375 4.893 3.751c.112.04.178.038.21.034a.19.19 0 00.096-.043.416.416 0 00.087-.1v-.002l2.41-12.144a1.535 1.535 0 00-.223.072h-.002zM9.554 14.385l-.976-.748-.237 1.504 1.213-.756zm-1.872-2.234l.971-.937 2.177-2.101.81-.782-5.433 3.18.03.07a278.67 278.67 0 011.016 2.433l.236-1.5a.623.623 0 01.193-.363z" fill="#D87B00"/></svg>