<svg width="38" height="38" fill="none" xmlns="http://www.w3.org/2000/svg"><path d="M8.3 8.338a15.052 15.052 0 0110.699-4.442c8.341 0 15.104 6.762 15.104 15.104 0 8.342-6.763 15.104-15.104 15.104-8.342 0-15.104-6.762-15.104-15.104A1.562 1.562 0 10.77 19c0 10.068 8.161 18.23 18.229 18.23 10.067 0 18.229-8.162 18.229-18.23S29.066.771 18.998.771A18.177 18.177 0 006.087 6.133c-.053.053-.1.109-.145.167l-2.62-2.62a1.042 1.042 0 00-1.774.643l-.736 8.102a1.042 1.042 0 001.132 1.131l8.102-.736a1.042 1.042 0 00.642-1.774l-2.56-2.559c.06-.044.118-.094.172-.149z" fill="#10BB87"/><path d="M20.561 8.584a1.563 1.563 0 00-3.125 0V19c0 .539.278 1.04.735 1.325l6.25 3.906a1.562 1.562 0 101.656-2.65l-5.516-3.447v-9.55z" fill="#10BB87"/></svg>