<svg width="14" height="18" fill="none" xmlns="http://www.w3.org/2000/svg"><path d="M5.333.875a.625.625 0 00-.625.625v.625H1.167a.625.625 0 100 1.25h11.666a.625.625 0 100-1.25H9.292V1.5a.625.625 0 00-.625-.625H5.333zm0 7c.346 0 .625.28.625.625v5.833a.625.625 0 11-1.25 0V8.5c0-.345.28-.625.625-.625zm3.959.625a.625.625 0 10-1.25 0v5.833a.625.625 0 101.25 0V8.5z" fill="#10BB87"/><path fill-rule="evenodd" clip-rule="evenodd" d="M1.993 5.598a.625.625 0 01.621-.556h8.772c.319 0 .586.24.621.556l.167 1.5a37.068 37.068 0 010 8.19l-.016.147a2.378 2.378 0 01-2.034 2.092c-2.072.29-4.175.29-6.248 0a2.378 2.378 0 01-2.033-2.092l-.017-.148a37.075 37.075 0 010-8.188l.167-1.501zm1.18.694l-.105.945a35.825 35.825 0 000 7.912l.017.148c.057.512.454.92.964.992a21.28 21.28 0 005.902 0c.51-.071.907-.48.964-.992l.017-.148a35.84 35.84 0 000-7.912l-.105-.945H3.174z" fill="#10BB87"/></svg>