<svg width="38" height="36" fill="none" xmlns="http://www.w3.org/2000/svg"><path fill-rule="evenodd" clip-rule="evenodd" d="M29.913.02H31.5a5.73 5.73 0 015.729 5.73v4.166a3.647 3.647 0 01-2.67 3.514c.3 3.805.127 13.862-.519 17.63a5.123 5.123 0 01-4.48 4.225l-1.905.213a77.924 77.924 0 01-17.31 0l-1.906-.213a5.123 5.123 0 01-4.48-4.226c-.645-3.767-.82-13.824-.52-17.63A3.647 3.647 0 01.77 9.917V5.749A5.73 5.73 0 016.499.02h23.414zM3.895 5.75a2.604 2.604 0 012.604-2.605h25a2.604 2.604 0 012.604 2.604v4.167a.52.52 0 01-.521.52H4.416a.52.52 0 01-.521-.52V5.749zm16.666 7.812h10.873c.292 3.584.133 13.42-.475 16.97a1.998 1.998 0 01-1.747 1.647l-1.905.213c-2.242.251-4.493.4-6.746.447V13.562zm-3.125 0v19.277a74.815 74.815 0 01-6.745-.447l-1.906-.213a1.998 1.998 0 01-1.747-1.648c-.608-3.548-.767-13.385-.475-16.97h10.873z" fill="#10BB87"/></svg>