<svg width="26" height="24" fill="none" xmlns="http://www.w3.org/2000/svg"><path d="M14.25 8.25a1.25 1.25 0 11-2.5 0 1.25 1.25 0 012.5 0zM13 11.688c.517 0 .937.42.937.937v6.25a.938.938 0 01-1.875 0v-6.25c0-.518.42-.937.938-.937z" fill="#FFA630"/><path fill-rule="evenodd" clip-rule="evenodd" d="M15.838 1.991c-1.365-1.997-4.311-1.997-5.676 0l-.54.79a94.934 94.934 0 00-8.68 15.704l-.113.26a3.139 3.139 0 002.53 4.371 86.804 86.804 0 0019.281 0 3.139 3.139 0 002.53-4.371l-.113-.26a94.936 94.936 0 00-8.68-15.704l-.54-.79zM11.71 3.049a1.563 1.563 0 012.58 0l.54.79a93.049 93.049 0 018.508 15.394l.113.26a1.264 1.264 0 01-1.02 1.76c-6.268.7-12.595.7-18.864 0a1.264 1.264 0 01-1.018-1.76l.113-.26A93.063 93.063 0 0111.17 3.84l.54-.79z" fill="#FFA630"/></svg>