<svg width="20" height="20" fill="none" xmlns="http://www.w3.org/2000/svg"><path d="M7.405 5.975c.152.004.322.012.482.369.107.238.287.675.433 1.032.114.277.208.505.231.552.054.106.087.23.017.373l-.024.049c-.056.117-.096.2-.19.308a7.48 7.48 0 00-.12.142 3.87 3.87 0 01-.202.232c-.108.106-.219.221-.095.434.123.214.556.915 1.195 1.482.687.611 1.285.869 1.587 1 .058.024.106.045.14.062.215.107.343.09.466-.053.124-.144.536-.624.68-.837.14-.213.285-.18.483-.107.198.074 1.253.591 1.467.698l.12.057c.148.072.25.12.293.193.053.09.053.517-.124 1.018-.181.5-1.055.98-1.451 1.017a3.914 3.914 0 00-.113.013c-.363.044-.823.1-2.464-.546-2.02-.795-3.355-2.767-3.625-3.166a2.267 2.267 0 00-.043-.063l-.005-.007c-.123-.164-.874-1.168-.874-2.205 0-.991.489-1.508.712-1.743l.039-.042a.792.792 0 01.573-.266c.144 0 .288 0 .412.004z" fill="#D87B00"/><path fill-rule="evenodd" clip-rule="evenodd" d="M1.82 17.776a.333.333 0 00.406.411l3.84-1.003a8.333 8.333 0 003.965 1.005h.004c4.572 0 8.298-3.705 8.298-8.259a8.19 8.19 0 00-2.428-5.843 8.264 8.264 0 00-5.87-2.42c-4.572 0-8.298 3.705-8.298 8.259a8.23 8.23 0 001.109 4.128L1.82 17.776zm2.23-3.39a1.25 1.25 0 00-.123-.959 6.98 6.98 0 01-.94-3.501c0-3.858 3.16-7.01 7.048-7.01 1.892 0 3.656.731 4.989 2.057a6.94 6.94 0 012.06 4.957c0 3.858-3.162 7.01-7.049 7.01h-.004c-1.18 0-2.34-.297-3.37-.855a1.25 1.25 0 00-.912-.11l-2.302.601.604-2.19z" fill="#D87B00"/></svg>