<svg width="18" height="14" fill="none" xmlns="http://www.w3.org/2000/svg"><path fill-rule="evenodd" clip-rule="evenodd" d="M7.655 3.964a.625.625 0 00-.946.536v5a.625.625 0 00.946.536l4.167-2.5a.625.625 0 000-1.072l-4.167-2.5zM10.285 7L7.96 8.396V5.604L10.286 7z" fill="#487B6C"/><path fill-rule="evenodd" clip-rule="evenodd" d="M13.193.868a53.748 53.748 0 00-8.385 0l-1.867.146A2.48 2.48 0 00.689 3.077a23.805 23.805 0 000 7.846 2.48 2.48 0 002.252 2.063l1.867.146a53.59 53.59 0 008.385 0l1.867-.146a2.48 2.48 0 002.252-2.063 23.803 23.803 0 000-7.846 2.48 2.48 0 00-2.252-2.063L13.193.868zM4.905 2.114a52.499 52.499 0 018.189 0l1.867.146a1.23 1.23 0 011.117 1.023c.411 2.46.411 4.973 0 7.434a1.23 1.23 0 01-1.117 1.023l-1.867.146a52.508 52.508 0 01-8.19 0l-1.867-.146a1.23 1.23 0 01-1.116-1.023 22.555 22.555 0 010-7.434A1.23 1.23 0 013.038 2.26l1.868-.146z" fill="#487B6C"/></svg>