<svg width="32" height="42" fill="none" xmlns="http://www.w3.org/2000/svg"><path fill-rule="evenodd" clip-rule="evenodd" d="M20.363.812c.577.246.95.812.95 1.438v14.58h8.188a1.562 1.562 0 011.36 2.33l-1.024 1.815a74.474 74.474 0 01-14.689 18.42l-1.657 1.51a1.563 1.563 0 01-2.615-1.155V25.294H2.418a1.563 1.563 0 01-1.36-2.331A74.585 74.585 0 0114.963 4.685l3.704-3.561a1.563 1.563 0 011.695-.312zM5.094 22.17h7.345c.863 0 1.562.7 1.562 1.563v12.465a71.353 71.353 0 0012.82-16.242h-7.07c-.863 0-1.562-.7-1.562-1.563V5.92L17.13 6.938A71.459 71.459 0 005.094 22.169z" fill="#10BB87"/></svg>